<?xml version="1.0" encoding="utf-8"?>
<!-- Generator: Adobe Illustrator 16.0.0, SVG Export Plug-In . SVG Version: 6.00 Build 0)  -->
<!DOCTYPE svg PUBLIC "-//W3C//DTD SVG 1.1//EN" "http://www.w3.org/Graphics/SVG/1.1/DTD/svg11.dtd">
<svg version="1.1" id="Layer_1" xmlns="http://www.w3.org/2000/svg" xmlns:xlink="http://www.w3.org/1999/xlink" x="0px" y="0px"
	 width="67px" height="44px" viewBox="0 0 67 44" enable-background="new 0 0 67 44" xml:space="preserve">
<rect fill="#FFFFFF" stroke="#939598" stroke-miterlimit="10" width="67" height="44"/>
<path fill="#EF7622" d="M66.625,25.428c0,0-17.754,12.527-50.27,18.135h50.27V25.428z"/>
<g>
	<path d="M7.375,12.984H4.664v9.469H7.36c1.434,0,2.47-0.338,3.379-1.093c1.08-0.894,1.719-2.241,1.719-3.635
		C12.458,14.932,10.371,12.984,7.375,12.984z M9.533,20.098c-0.581,0.524-1.334,0.753-2.528,0.753H6.509v-6.262h0.496
		c1.193,0,1.917,0.214,2.528,0.766c0.639,0.569,1.023,1.45,1.023,2.357C10.556,18.621,10.172,19.529,9.533,20.098z"/>
	<rect x="13.308" y="12.984" width="1.847" height="9.469"/>
	<path d="M19.672,16.618c-1.108-0.41-1.434-0.681-1.434-1.192c0-0.596,0.58-1.05,1.375-1.05c0.553,0,1.008,0.228,1.489,0.767
		l0.967-1.265c-0.794-0.695-1.745-1.05-2.783-1.05c-1.675,0-2.953,1.164-2.953,2.713c0,1.305,0.595,1.973,2.33,2.597
		c0.724,0.255,1.091,0.425,1.277,0.539c0.369,0.241,0.554,0.582,0.554,0.979c0,0.768-0.611,1.336-1.435,1.336
		c-0.881,0-1.59-0.441-2.016-1.263l-1.193,1.149c0.851,1.248,1.873,1.802,3.278,1.802c1.919,0,3.266-1.276,3.266-3.109
		C22.396,18.067,21.773,17.387,19.672,16.618z"/>
	<path d="M22.978,17.726c0,2.784,2.186,4.941,4.999,4.941c0.795,0,1.476-0.156,2.315-0.552v-2.174
		c-0.738,0.739-1.393,1.037-2.229,1.037c-1.86,0-3.181-1.349-3.181-3.266c0-1.818,1.362-3.252,3.095-3.252
		c0.881,0,1.548,0.315,2.315,1.065v-2.173c-0.811-0.412-1.477-0.582-2.272-0.582C25.222,12.771,22.978,14.973,22.978,17.726z"/>
	<polygon points="44.937,19.345 42.412,12.984 40.394,12.984 44.413,22.697 45.406,22.697 49.497,12.984 47.495,12.984 	"/>
	<polygon points="50.332,22.453 55.57,22.453 55.57,20.851 52.178,20.851 52.178,18.294 55.445,18.294 55.445,16.69 52.178,16.69 
		52.178,14.589 55.57,14.589 55.57,12.984 50.332,12.984 	"/>
	<path d="M62.885,15.78c0-1.772-1.222-2.795-3.352-2.795h-2.738v9.469h1.845V18.65h0.24l2.556,3.803h2.272l-2.981-3.989
		C62.118,18.182,62.885,17.23,62.885,15.78z M59.179,17.344H58.64v-2.868h0.568c1.15,0,1.774,0.482,1.774,1.403
		C60.982,16.831,60.358,17.344,59.179,17.344z"/>
	<g>
		<circle fill="#EF7622" cx="35.913" cy="17.726" r="5.035"/>
		<g opacity="0.5">
			<defs>
				<circle id="SVGID_1_" opacity="0.5" cx="35.913" cy="17.726" r="5.035"/>
			</defs>
			<clipPath id="SVGID_2_">
				<use xlink:href="#SVGID_1_"  overflow="visible"/>
			</clipPath>
			<g clip-path="url(#SVGID_2_)">
				<circle cx="35.929" cy="17.741" r="5.136"/>
				<circle fill="#030304" cx="35.932" cy="17.744" r="5.136"/>
				<circle fill="#080808" cx="35.936" cy="17.747" r="5.135"/>
				<circle fill="#0C0C0C" cx="35.938" cy="17.751" r="5.135"/>
				<circle fill="#100F10" cx="35.94" cy="17.753" r="5.134"/>
				<circle fill="#131313" cx="35.944" cy="17.757" r="5.134"/>
				<circle fill="#161616" cx="35.946" cy="17.76" r="5.133"/>
				<circle fill="#191919" cx="35.949" cy="17.763" r="5.133"/>
				<circle fill="#1C1B1C" cx="35.952" cy="17.766" r="5.132"/>
				<circle fill="#1E1E1F" cx="35.954" cy="17.77" r="5.132"/>
				<circle fill="#212021" cx="35.957" cy="17.773" r="5.131"/>
				<circle fill="#232324" cx="35.961" cy="17.776" r="5.131"/>
				<circle fill="#252526" cx="35.963" cy="17.779" r="5.13"/>
				<circle fill="#282728" cx="35.966" cy="17.782" r="5.13"/>
				<circle fill="#2A292B" cx="35.969" cy="17.786" r="5.129"/>
				<circle fill="#2C2B2D" cx="35.972" cy="17.789" r="5.129"/>
				<circle fill="#2E2E2F" cx="35.974" cy="17.792" r="5.128"/>
				<circle fill="#303031" cx="35.977" cy="17.795" r="5.128"/>
				<circle fill="#323133" cx="35.979" cy="17.799" r="5.127"/>
				<circle fill="#343335" cx="35.982" cy="17.802" r="5.127"/>
				<circle fill="#363537" cx="35.985" cy="17.805" r="5.126"/>
				<circle fill="#373739" cx="35.988" cy="17.808" r="5.125"/>
				<circle fill="#39393A" cx="35.991" cy="17.812" r="5.125"/>
				<circle fill="#3B3B3C" cx="35.994" cy="17.814" r="5.125"/>
				<circle fill="#3D3C3E" cx="35.996" cy="17.817" r="5.124"/>
				<circle fill="#3E3E40" cx="35.999" cy="17.821" r="5.124"/>
				<circle fill="#403F41" cx="36.002" cy="17.824" r="5.123"/>
				<circle fill="#414042" cx="36.005" cy="17.828" r="5.123"/>
				<circle fill="#424143" cx="36.008" cy="17.831" r="5.123"/>
				<circle fill="#434244" cx="36.011" cy="17.834" r="5.121"/>
				<circle fill="#444345" cx="36.014" cy="17.837" r="5.121"/>
				<circle fill="#454446" cx="36.016" cy="17.84" r="5.121"/>
				<circle fill="#454547" cx="36.019" cy="17.843" r="5.12"/>
				<circle fill="#464648" cx="36.021" cy="17.846" r="5.12"/>
				<circle fill="#474749" cx="36.024" cy="17.85" r="5.119"/>
				<circle fill="#48484A" cx="36.027" cy="17.853" r="5.119"/>
				<circle fill="#49494B" cx="36.029" cy="17.856" r="5.118"/>
				<circle fill="#4A4A4C" cx="36.033" cy="17.86" r="5.118"/>
				<circle fill="#4B4B4D" cx="36.035" cy="17.863" r="5.117"/>
				<circle fill="#4C4C4E" cx="36.038" cy="17.866" r="5.117"/>
				<circle fill="#4D4D4F" cx="36.041" cy="17.869" r="5.116"/>
				<circle fill="#4D4E50" cx="36.044" cy="17.872" r="5.115"/>
				<circle fill="#4E4F51" cx="36.047" cy="17.876" r="5.115"/>
				<circle fill="#4F5052" cx="36.05" cy="17.878" r="5.115"/>
				<circle fill="#505052" cx="36.052" cy="17.882" r="5.114"/>
				<circle fill="#515153" cx="36.055" cy="17.885" r="5.114"/>
				<circle fill="#525254" cx="36.059" cy="17.889" r="5.113"/>
				<circle fill="#535355" cx="36.061" cy="17.891" r="5.113"/>
				<circle fill="#535456" cx="36.063" cy="17.895" r="5.112"/>
				<circle fill="#545557" cx="36.066" cy="17.898" r="5.112"/>
				<circle fill="#555658" cx="36.069" cy="17.901" r="5.111"/>
				<circle fill="#565759" cx="36.071" cy="17.905" r="5.111"/>
				<circle fill="#57585A" cx="36.074" cy="17.907" r="5.11"/>
				<circle fill="#58585B" cx="36.077" cy="17.911" r="5.11"/>
				<circle fill="#58595B" cx="36.08" cy="17.914" r="5.109"/>
				<circle fill="#595A5C" cx="36.083" cy="17.917" r="5.108"/>
				<circle fill="#5A5B5D" cx="36.086" cy="17.92" r="5.108"/>
				<circle fill="#5B5C5E" cx="36.088" cy="17.924" r="5.108"/>
				<circle fill="#5C5D5F" cx="36.092" cy="17.927" r="5.107"/>
				<circle fill="#5C5D60" cx="36.094" cy="17.93" r="5.107"/>
				<circle fill="#5D5E61" cx="36.097" cy="17.933" r="5.106"/>
				<circle fill="#5E5F61" cx="36.1" cy="17.937" r="5.105"/>
				<circle fill="#5F6062" cx="36.103" cy="17.94" r="5.105"/>
				<circle fill="#606163" cx="36.105" cy="17.942" r="5.104"/>
				<circle fill="#606264" cx="36.107" cy="17.946" r="5.104"/>
				<circle fill="#616265" cx="36.11" cy="17.949" r="5.104"/>
				<circle fill="#626366" cx="36.113" cy="17.953" r="5.103"/>
				<circle fill="#636466" cx="36.116" cy="17.956" r="5.103"/>
				<circle fill="#646567" cx="36.119" cy="17.958" r="5.102"/>
				<circle fill="#646668" cx="36.121" cy="17.962" r="5.102"/>
				<circle fill="#656669" cx="36.125" cy="17.965" r="5.101"/>
				<circle fill="#66676A" cx="36.127" cy="17.969" r="5.101"/>
				<circle fill="#67686A" cx="36.13" cy="17.971" r="5.1"/>
				<circle fill="#67696B" cx="36.133" cy="17.975" r="5.099"/>
				<circle fill="#686A6C" cx="36.136" cy="17.979" r="5.1"/>
				<circle fill="#696A6D" cx="36.139" cy="17.981" r="5.099"/>
				<circle fill="#6A6B6D" cx="36.141" cy="17.984" r="5.098"/>
				<circle fill="#6B6C6E" cx="36.145" cy="17.988" r="5.097"/>
				<circle fill="#6B6D6F" cx="36.146" cy="17.991" r="5.097"/>
				<circle fill="#6C6D70" cx="36.149" cy="17.994" r="5.097"/>
				<circle fill="#6D6E71" cx="36.152" cy="17.997" r="5.096"/>
				<circle fill="#6D6F71" cx="36.155" cy="18" r="5.095"/>
				<circle fill="#6E7072" cx="36.158" cy="18.004" r="5.095"/>
				<circle fill="#6F7073" cx="36.16" cy="18.007" r="5.095"/>
				<circle fill="#707174" cx="36.163" cy="18.01" r="5.094"/>
				<circle fill="#707274" cx="36.166" cy="18.013" r="5.093"/>
				<circle fill="#717375" cx="36.169" cy="18.017" r="5.093"/>
				<circle fill="#727376" cx="36.172" cy="18.02" r="5.093"/>
				<circle fill="#737477" cx="36.175" cy="18.023" r="5.092"/>
				<circle fill="#737577" cx="36.178" cy="18.026" r="5.092"/>
				<circle fill="#747678" cx="36.18" cy="18.03" r="5.091"/>
				<circle fill="#757679" cx="36.184" cy="18.032" r="5.091"/>
				<circle fill="#75777A" cx="36.186" cy="18.036" r="5.09"/>
				<circle fill="#76787A" cx="36.188" cy="18.039" r="5.09"/>
				<circle fill="#77797B" cx="36.191" cy="18.042" r="5.089"/>
				<circle fill="#78797C" cx="36.194" cy="18.045" r="5.089"/>
				<circle fill="#787A7D" cx="36.196" cy="18.049" r="5.088"/>
				<circle fill="#797B7D" cx="36.199" cy="18.052" r="5.087"/>
				<circle fill="#7A7B7E" cx="36.203" cy="18.055" r="5.087"/>
				<circle fill="#7A7C7F" cx="36.205" cy="18.058" r="5.086"/>
				<circle fill="#7B7D7F" cx="36.208" cy="18.061" r="5.086"/>
				<circle fill="#7C7E80" cx="36.211" cy="18.065" r="5.085"/>
				<circle fill="#7D7E81" cx="36.214" cy="18.068" r="5.085"/>
				<circle fill="#7D7F82" cx="36.217" cy="18.072" r="5.085"/>
				<circle fill="#7E8082" cx="36.219" cy="18.074" r="5.084"/>
				<circle fill="#7F8183" cx="36.222" cy="18.078" r="5.083"/>
				<circle fill="#7F8184" cx="36.225" cy="18.081" r="5.083"/>
				<circle fill="#808285" cx="36.228" cy="18.084" r="5.082"/>
				<circle fill="#818385" cx="36.23" cy="18.087" r="5.082"/>
				<circle fill="#828386" cx="36.233" cy="18.09" r="5.082"/>
				<circle fill="#828487" cx="36.236" cy="18.094" r="5.081"/>
				<circle fill="#838587" cx="36.238" cy="18.097" r="5.081"/>
				<circle fill="#848688" cx="36.242" cy="18.1" r="5.08"/>
				<circle fill="#848689" cx="36.244" cy="18.103" r="5.08"/>
				<circle fill="#85878A" cx="36.247" cy="18.106" r="5.079"/>
				<circle fill="#86888A" cx="36.25" cy="18.11" r="5.079"/>
				<circle fill="#86888B" cx="36.252" cy="18.113" r="5.078"/>
				<circle fill="#87898C" cx="36.255" cy="18.116" r="5.078"/>
				<circle fill="#888A8C" cx="36.258" cy="18.119" r="5.077"/>
				<circle fill="#898B8D" cx="36.261" cy="18.123" r="5.077"/>
				<circle fill="#898B8E" cx="36.264" cy="18.125" r="5.076"/>
				<circle fill="#8A8C8F" cx="36.267" cy="18.129" r="5.076"/>
				<circle fill="#8B8D8F" cx="36.27" cy="18.132" r="5.075"/>
				<circle fill="#8B8D90" cx="36.272" cy="18.135" r="5.075"/>
				<circle fill="#8C8E91" cx="36.275" cy="18.139" r="5.074"/>
				<circle fill="#8D8F91" cx="36.277" cy="18.142" r="5.073"/>
				<circle fill="#8D9092" cx="36.28" cy="18.145" r="5.073"/>
				<circle fill="#8E9093" cx="36.283" cy="18.148" r="5.073"/>
				<circle fill="#8F9194" cx="36.286" cy="18.151" r="5.072"/>
				<circle fill="#909294" cx="36.289" cy="18.155" r="5.072"/>
				<circle fill="#909295" cx="36.291" cy="18.158" r="5.071"/>
				<circle fill="#919396" cx="36.295" cy="18.161" r="5.071"/>
				<circle fill="#929497" cx="36.297" cy="18.164" r="5.07"/>
				<circle fill="#939597" cx="36.3" cy="18.167" r="5.07"/>
				<circle fill="#939598" cx="36.303" cy="18.17" r="5.069"/>
				<circle fill="#949699" cx="36.306" cy="18.174" r="5.069"/>
				<circle fill="#959799" cx="36.309" cy="18.177" r="5.068"/>
				<circle fill="#95989A" cx="36.312" cy="18.181" r="5.067"/>
				<circle fill="#96989B" cx="36.313" cy="18.183" r="5.067"/>
				<circle fill="#97999C" cx="36.316" cy="18.187" r="5.066"/>
				<circle fill="#989A9C" cx="36.319" cy="18.19" r="5.066"/>
				<circle fill="#989A9D" cx="36.322" cy="18.193" r="5.065"/>
				<circle fill="#999B9E" cx="36.325" cy="18.197" r="5.065"/>
				<circle fill="#9A9C9F" cx="36.328" cy="18.199" r="5.064"/>
				<circle fill="#9B9D9F" cx="36.33" cy="18.203" r="5.064"/>
				<circle fill="#9B9DA0" cx="36.334" cy="18.206" r="5.063"/>
				<circle fill="#9C9EA1" cx="36.336" cy="18.209" r="5.063"/>
				<circle fill="#9D9FA1" cx="36.339" cy="18.212" r="5.062"/>
				<circle fill="#9DA0A2" cx="36.342" cy="18.215" r="5.062"/>
				<circle fill="#9EA0A3" cx="36.345" cy="18.219" r="5.062"/>
				<circle fill="#9FA1A4" cx="36.347" cy="18.222" r="5.061"/>
				<circle fill="#A0A2A4" cx="36.35" cy="18.225" r="5.061"/>
				<circle fill="#A0A3A5" cx="36.353" cy="18.228" r="5.06"/>
				<circle fill="#A1A3A6" cx="36.355" cy="18.231" r="5.06"/>
				<circle fill="#A2A4A7" cx="36.358" cy="18.235" r="5.059"/>
				<circle fill="#A3A5A7" cx="36.361" cy="18.238" r="5.058"/>
				<circle fill="#A3A6A8" cx="36.364" cy="18.241" r="5.058"/>
				<circle fill="#A4A6A9" cx="36.367" cy="18.244" r="5.057"/>
				<circle fill="#A5A7AA" cx="36.369" cy="18.248" r="5.057"/>
				<circle fill="#A6A8AA" cx="36.372" cy="18.251" r="5.057"/>
				<circle fill="#A6A9AB" cx="36.375" cy="18.254" r="5.056"/>
				<circle fill="#A7A9AC" cx="36.378" cy="18.257" r="5.055"/>
				<circle fill="#A8AAAD" cx="36.381" cy="18.26" r="5.055"/>
				<circle fill="#A9ABAD" cx="36.384" cy="18.264" r="5.055"/>
				<circle fill="#A9ACAE" cx="36.387" cy="18.267" r="5.054"/>
				<circle fill="#AAACAF" cx="36.389" cy="18.27" r="5.053"/>
				<circle fill="#ABADB0" cx="36.392" cy="18.273" r="5.053"/>
				<circle fill="#ACAEB0" cx="36.395" cy="18.276" r="5.053"/>
				<circle fill="#ADAFB1" cx="36.397" cy="18.28" r="5.052"/>
				<circle fill="#ADAFB2" cx="36.4" cy="18.283" r="5.051"/>
				<circle fill="#AEB0B3" cx="36.403" cy="18.286" r="5.051"/>
				<circle fill="#AFB1B3" cx="36.405" cy="18.289" r="5.051"/>
				<circle fill="#B0B2B4" cx="36.408" cy="18.292" r="5.05"/>
				<circle fill="#B0B2B5" cx="36.411" cy="18.295" r="5.049"/>
				<circle fill="#B1B3B6" cx="36.414" cy="18.299" r="5.049"/>
				<circle fill="#B2B4B6" cx="36.417" cy="18.302" r="5.048"/>
				<circle fill="#B3B5B7" cx="36.42" cy="18.305" r="5.048"/>
				<circle fill="#B4B6B8" cx="36.422" cy="18.308" r="5.047"/>
				<circle fill="#B4B6B9" cx="36.426" cy="18.312" r="5.047"/>
				<circle fill="#B5B7B9" cx="36.428" cy="18.315" r="5.046"/>
				<circle fill="#B6B8BA" cx="36.431" cy="18.318" r="5.046"/>
				<circle fill="#B7B9BB" cx="36.434" cy="18.322" r="5.046"/>
				<circle fill="#B8B9BC" cx="36.437" cy="18.324" r="5.045"/>
				<circle fill="#B8BABD" cx="36.438" cy="18.328" r="5.044"/>
				<circle fill="#B9BBBD" cx="36.442" cy="18.331" r="5.044"/>
				<circle fill="#BABCBE" cx="36.444" cy="18.334" r="5.043"/>
				<circle fill="#BBBDBF" cx="36.447" cy="18.337" r="5.043"/>
				<circle fill="#BBBDC0" cx="36.45" cy="18.34" r="5.042"/>
				<circle fill="#BCBEC0" cx="36.453" cy="18.344" r="5.042"/>
				<circle fill="#BDBFC1" cx="36.456" cy="18.347" r="5.042"/>
				<circle fill="#BEC0C2" cx="36.459" cy="18.35" r="5.041"/>
				<circle fill="#BFC0C3" cx="36.461" cy="18.353" r="5.04"/>
				<circle fill="#BFC1C3" cx="36.464" cy="18.357" r="5.04"/>
				<circle fill="#C0C2C4" cx="36.467" cy="18.36" r="5.039"/>
				<circle fill="#C1C3C5" cx="36.47" cy="18.363" r="5.039"/>
				<circle fill="#C2C4C6" cx="36.473" cy="18.366" r="5.038"/>
				<circle fill="#C3C4C6" cx="36.476" cy="18.369" r="5.038"/>
				<circle fill="#C3C5C7" cx="36.479" cy="18.373" r="5.037"/>
				<circle fill="#C4C6C8" cx="36.48" cy="18.376" r="5.037"/>
				<circle fill="#C5C7C9" cx="36.483" cy="18.379" r="5.037"/>
				<circle fill="#C6C8CA" cx="36.486" cy="18.382" r="5.036"/>
				<circle fill="#C7C8CA" cx="36.489" cy="18.385" r="5.035"/>
				<circle opacity="0.995" fill="#C7C9CB" cx="36.491" cy="18.388" r="5.035"/>
				<circle opacity="0.9901" fill="#C7C9CB" cx="36.494" cy="18.391" r="5.035"/>
				<circle opacity="0.9851" fill="#C7C9CB" cx="36.496" cy="18.394" r="5.035"/>
				<circle opacity="0.9801" fill="#C8C9CB" cx="36.499" cy="18.397" r="5.035"/>
				<circle opacity="0.9751" fill="#C8CACC" cx="36.501" cy="18.4" r="5.035"/>
				<circle opacity="0.9701" fill="#C8CACC" cx="36.504" cy="18.403" r="5.035"/>
				<circle opacity="0.9652" fill="#C8CACC" cx="36.506" cy="18.406" r="5.035"/>
				<circle opacity="0.9602" fill="#C9CACC" cx="36.508" cy="18.409" r="5.035"/>
				<circle opacity="0.9552" fill="#C9CBCD" cx="36.511" cy="18.411" r="5.035"/>
				<circle opacity="0.9502" fill="#C9CBCD" cx="36.514" cy="18.415" r="5.036"/>
				<circle opacity="0.9453" fill="#C9CBCD" cx="36.516" cy="18.417" r="5.036"/>
				<circle opacity="0.9403" fill="#CACBCD" cx="36.519" cy="18.42" r="5.035"/>
				<circle opacity="0.9353" fill="#CACCCE" cx="36.521" cy="18.423" r="5.036"/>
				<circle opacity="0.9303" fill="#CACCCE" cx="36.523" cy="18.426" r="5.036"/>
				<circle opacity="0.9254" fill="#CBCCCE" cx="36.525" cy="18.429" r="5.036"/>
				<circle opacity="0.9204" fill="#CBCCCE" cx="36.527" cy="18.432" r="5.035"/>
				<circle opacity="0.9154" fill="#CBCDCF" cx="36.53" cy="18.434" r="5.035"/>
				<circle opacity="0.9104" fill="#CBCDCF" cx="36.532" cy="18.438" r="5.035"/>
				<circle opacity="0.9055" fill="#CCCDCF" cx="36.535" cy="18.44" r="5.035"/>
				<circle opacity="0.9005" fill="#CCCDCF" cx="36.537" cy="18.443" r="5.035"/>
				<circle opacity="0.8955" fill="#CCCED0" cx="36.54" cy="18.447" r="5.036"/>
				<circle opacity="0.8905" fill="#CCCED0" cx="36.542" cy="18.449" r="5.035"/>
				<circle opacity="0.8856" fill="#CDCED0" cx="36.545" cy="18.452" r="5.035"/>
				<circle opacity="0.8806" fill="#CDCED0" cx="36.547" cy="18.455" r="5.035"/>
				<circle opacity="0.8756" fill="#CDCFD1" cx="36.549" cy="18.458" r="5.035"/>
				<circle opacity="0.8706" fill="#CDCFD1" cx="36.552" cy="18.461" r="5.035"/>
				<circle opacity="0.8657" fill="#CECFD1" cx="36.554" cy="18.464" r="5.035"/>
				<circle opacity="0.8607" fill="#CED0D1" cx="36.557" cy="18.466" r="5.036"/>
				<circle opacity="0.8557" fill="#CED0D1" cx="36.559" cy="18.469" r="5.035"/>
				<circle opacity="0.8507" fill="#CED0D2" cx="36.562" cy="18.472" r="5.035"/>
				<circle opacity="0.8458" fill="#CFD0D2" cx="36.563" cy="18.475" r="5.036"/>
				<circle opacity="0.8408" fill="#CFD1D2" cx="36.565" cy="18.478" r="5.036"/>
				<circle opacity="0.8358" fill="#CFD1D2" cx="36.568" cy="18.481" r="5.036"/>
				<circle opacity="0.8308" fill="#D0D1D3" cx="36.571" cy="18.484" r="5.035"/>
				<circle opacity="0.8259" fill="#D0D1D3" cx="36.573" cy="18.487" r="5.036"/>
				<circle opacity="0.8209" fill="#D0D2D3" cx="36.575" cy="18.49" r="5.036"/>
				<circle opacity="0.8159" fill="#D0D2D3" cx="36.578" cy="18.493" r="5.035"/>
				<circle opacity="0.8109" fill="#D1D2D4" cx="36.58" cy="18.496" r="5.035"/>
				<circle opacity="0.806" fill="#D1D2D4" cx="36.583" cy="18.499" r="5.036"/>
				<circle opacity="0.801" fill="#D1D3D4" cx="36.585" cy="18.501" r="5.035"/>
				<circle opacity="0.796" fill="#D1D3D4" cx="36.588" cy="18.504" r="5.035"/>
				<circle opacity="0.791" fill="#D2D3D5" cx="36.59" cy="18.508" r="5.035"/>
				<circle opacity="0.7861" fill="#D2D3D5" cx="36.592" cy="18.51" r="5.035"/>
				<circle opacity="0.7811" fill="#D2D4D5" cx="36.595" cy="18.513" r="5.036"/>
				<circle opacity="0.7761" fill="#D2D4D5" cx="36.598" cy="18.516" r="5.035"/>
				<circle opacity="0.7711" fill="#D3D4D6" cx="36.6" cy="18.519" r="5.035"/>
				<circle opacity="0.7662" fill="#D3D4D6" cx="36.602" cy="18.521" r="5.035"/>
				<circle opacity="0.7612" fill="#D3D5D6" cx="36.604" cy="18.524" r="5.035"/>
				<circle opacity="0.7562" fill="#D4D5D6" cx="36.606" cy="18.527" r="5.035"/>
				<circle opacity="0.7512" fill="#D4D5D7" cx="36.609" cy="18.531" r="5.036"/>
				<circle opacity="0.7463" fill="#D4D5D7" cx="36.611" cy="18.533" r="5.035"/>
				<circle opacity="0.7413" fill="#D4D6D7" cx="36.613" cy="18.536" r="5.036"/>
				<circle opacity="0.7363" fill="#D5D6D7" cx="36.617" cy="18.539" r="5.035"/>
				<circle opacity="0.7313" fill="#D5D6D8" cx="36.619" cy="18.542" r="5.035"/>
				<circle opacity="0.7264" fill="#D5D6D8" cx="36.621" cy="18.545" r="5.035"/>
				<circle opacity="0.7214" fill="#D5D7D8" cx="36.623" cy="18.547" r="5.036"/>
				<circle opacity="0.7164" fill="#D6D7D8" cx="36.626" cy="18.551" r="5.035"/>
				<circle opacity="0.7114" fill="#D6D7D9" cx="36.629" cy="18.554" r="5.035"/>
				<circle opacity="0.7065" fill="#D6D7D9" cx="36.631" cy="18.556" r="5.035"/>
				<circle opacity="0.7015" fill="#D6D8D9" cx="36.633" cy="18.559" r="5.036"/>
				<circle opacity="0.6965" fill="#D7D8D9" cx="36.636" cy="18.562" r="5.035"/>
				<circle opacity="0.6915" fill="#D7D8DA" cx="36.639" cy="18.565" r="5.035"/>
				<circle opacity="0.6866" fill="#D7D8DA" cx="36.641" cy="18.568" r="5.035"/>
				<circle opacity="0.6816" fill="#D7D9DA" cx="36.643" cy="18.57" r="5.035"/>
				<circle opacity="0.6766" fill="#D8D9DA" cx="36.645" cy="18.574" r="5.036"/>
				<circle opacity="0.6716" fill="#D8D9DB" cx="36.648" cy="18.577" r="5.036"/>
				<circle opacity="0.6667" fill="#D8D9DB" cx="36.65" cy="18.58" r="5.036"/>
				<circle opacity="0.6617" fill="#D8DADB" cx="36.652" cy="18.582" r="5.035"/>
				<circle opacity="0.6567" fill="#D9DADB" cx="36.654" cy="18.585" r="5.036"/>
				<circle opacity="0.6517" fill="#D9DADC" cx="36.658" cy="18.588" r="5.036"/>
				<circle opacity="0.6468" fill="#D9DBDC" cx="36.66" cy="18.591" r="5.036"/>
				<circle opacity="0.6418" fill="#DADBDC" cx="36.662" cy="18.594" r="5.035"/>
				<circle opacity="0.6368" fill="#DADBDC" cx="36.664" cy="18.597" r="5.035"/>
				<circle opacity="0.6318" fill="#DADBDD" cx="36.667" cy="18.6" r="5.036"/>
				<circle opacity="0.6269" fill="#DADCDD" cx="36.67" cy="18.603" r="5.036"/>
				<circle opacity="0.6219" fill="#DBDCDD" cx="36.671" cy="18.605" r="5.035"/>
				<circle opacity="0.6169" fill="#DBDCDD" cx="36.674" cy="18.609" r="5.036"/>
				<circle opacity="0.6119" fill="#DBDCDE" cx="36.677" cy="18.611" r="5.035"/>
				<circle opacity="0.607" fill="#DBDDDE" cx="36.679" cy="18.614" r="5.035"/>
				<circle opacity="0.602" fill="#DCDDDE" cx="36.682" cy="18.617" r="5.035"/>
				<circle opacity="0.597" fill="#DCDDDE" cx="36.684" cy="18.62" r="5.035"/>
				<circle opacity="0.592" fill="#DCDDDF" cx="36.687" cy="18.623" r="5.035"/>
				<circle opacity="0.5871" fill="#DCDEDF" cx="36.688" cy="18.626" r="5.035"/>
				<circle opacity="0.5821" fill="#DDDEDF" cx="36.69" cy="18.628" r="5.036"/>
				<circle opacity="0.5771" fill="#DDDEDF" cx="36.693" cy="18.632" r="5.035"/>
				<circle opacity="0.5721" fill="#DDDEE0" cx="36.696" cy="18.635" r="5.035"/>
				<circle opacity="0.5672" fill="#DDDFE0" cx="36.697" cy="18.637" r="5.036"/>
				<circle opacity="0.5622" fill="#DEDFE0" cx="36.7" cy="18.64" r="5.036"/>
				<circle opacity="0.5572" fill="#DEDFE0" cx="36.703" cy="18.643" r="5.036"/>
				<circle opacity="0.5522" fill="#DEDFE1" cx="36.705" cy="18.646" r="5.035"/>
				<circle opacity="0.5473" fill="#DFE0E1" cx="36.708" cy="18.649" r="5.036"/>
				<circle opacity="0.5423" fill="#DFE0E1" cx="36.71" cy="18.652" r="5.036"/>
				<circle opacity="0.5373" fill="#DFE0E1" cx="36.713" cy="18.655" r="5.036"/>
				<circle opacity="0.5323" fill="#DFE0E2" cx="36.715" cy="18.658" r="5.035"/>
				<circle opacity="0.5274" fill="#E0E1E2" cx="36.718" cy="18.661" r="5.036"/>
				<circle opacity="0.5224" fill="#E0E1E2" cx="36.719" cy="18.664" r="5.036"/>
				<circle opacity="0.5174" fill="#E0E1E2" cx="36.723" cy="18.666" r="5.035"/>
				<circle opacity="0.5124" fill="#E0E1E3" cx="36.725" cy="18.67" r="5.035"/>
				<circle opacity="0.5075" fill="#E1E2E3" cx="36.727" cy="18.672" r="5.035"/>
				<circle opacity="0.5025" fill="#E1E2E3" cx="36.729" cy="18.675" r="5.035"/>
				<circle opacity="0.4975" fill="#E1E2E3" cx="36.731" cy="18.678" r="5.035"/>
				<circle opacity="0.4925" fill="#E1E2E4" cx="36.734" cy="18.681" r="5.036"/>
				<circle opacity="0.4876" fill="#E2E3E4" cx="36.736" cy="18.684" r="5.035"/>
				<circle opacity="0.4826" fill="#E2E3E4" cx="36.738" cy="18.687" r="5.035"/>
				<circle opacity="0.4776" fill="#E2E3E4" cx="36.741" cy="18.689" r="5.035"/>
				<circle opacity="0.4726" fill="#E2E3E4" cx="36.744" cy="18.692" r="5.035"/>
				<circle opacity="0.4677" fill="#E3E4E5" cx="36.746" cy="18.695" r="5.035"/>
				<circle opacity="0.4627" fill="#E3E4E5" cx="36.748" cy="18.698" r="5.035"/>
				<circle opacity="0.4577" fill="#E3E4E5" cx="36.751" cy="18.701" r="5.035"/>
				<circle opacity="0.4527" fill="#E3E4E5" cx="36.754" cy="18.704" r="5.035"/>
				<circle opacity="0.4478" fill="#E4E5E6" cx="36.756" cy="18.707" r="5.035"/>
				<circle opacity="0.4428" fill="#E4E5E6" cx="36.758" cy="18.71" r="5.035"/>
				<circle opacity="0.4378" fill="#E4E5E6" cx="36.76" cy="18.713" r="5.035"/>
				<circle opacity="0.4328" fill="#E5E5E6" cx="36.763" cy="18.715" r="5.036"/>
				<circle opacity="0.4279" fill="#E5E6E7" cx="36.766" cy="18.718" r="5.036"/>
				<circle opacity="0.4229" fill="#E5E6E7" cx="36.768" cy="18.721" r="5.036"/>
				<circle opacity="0.4179" fill="#E5E6E7" cx="36.771" cy="18.724" r="5.036"/>
				<circle opacity="0.4129" fill="#E6E6E7" cx="36.772" cy="18.727" r="5.036"/>
				<circle opacity="0.408" fill="#E6E7E8" cx="36.775" cy="18.73" r="5.036"/>
				<circle opacity="0.403" fill="#E6E7E8" cx="36.777" cy="18.733" r="5.036"/>
				<circle opacity="0.398" fill="#E6E7E8" cx="36.779" cy="18.736" r="5.036"/>
				<circle opacity="0.393" fill="#E7E8E8" cx="36.782" cy="18.739" r="5.036"/>
				<circle opacity="0.3881" fill="#E7E8E9" cx="36.784" cy="18.742" r="5.036"/>
				<circle opacity="0.3831" fill="#E7E8E9" cx="36.787" cy="18.745" r="5.036"/>
				<circle opacity="0.3781" fill="#E8E8E9" cx="36.789" cy="18.748" r="5.036"/>
				<circle opacity="0.3731" fill="#E8E9E9" cx="36.791" cy="18.75" r="5.035"/>
				<circle opacity="0.3682" fill="#E8E9EA" cx="36.794" cy="18.753" r="5.036"/>
				<circle opacity="0.3632" fill="#E8E9EA" cx="36.797" cy="18.756" r="5.035"/>
				<circle opacity="0.3582" fill="#E9E9EA" cx="36.799" cy="18.759" r="5.036"/>
				<circle opacity="0.3532" fill="#E9EAEB" cx="36.801" cy="18.762" r="5.036"/>
				<circle opacity="0.3483" fill="#E9EAEB" cx="36.804" cy="18.765" r="5.035"/>
				<circle opacity="0.3433" fill="#EAEAEB" cx="36.807" cy="18.768" r="5.035"/>
				<circle opacity="0.3383" fill="#EAEBEB" cx="36.809" cy="18.771" r="5.035"/>
				<circle opacity="0.3333" fill="#EAEBEC" cx="36.811" cy="18.773" r="5.035"/>
				<circle opacity="0.3284" fill="#EAEBEC" cx="36.813" cy="18.777" r="5.036"/>
				<circle opacity="0.3234" fill="#EBEBEC" cx="36.815" cy="18.779" r="5.035"/>
				<circle opacity="0.3184" fill="#EBECEC" cx="36.818" cy="18.782" r="5.035"/>
				<circle opacity="0.3134" fill="#EBECED" cx="36.82" cy="18.785" r="5.035"/>
				<circle opacity="0.3085" fill="#EBECED" cx="36.823" cy="18.788" r="5.035"/>
				<circle opacity="0.3035" fill="#ECECED" cx="36.825" cy="18.791" r="5.035"/>
				<circle opacity="0.2985" fill="#ECECED" cx="36.828" cy="18.794" r="5.035"/>
				<circle opacity="0.2935" fill="#ECEDED" cx="36.83" cy="18.797" r="5.035"/>
				<circle opacity="0.2886" fill="#ECEDEE" cx="36.832" cy="18.8" r="5.035"/>
				<circle opacity="0.2836" fill="#EDEDEE" cx="36.835" cy="18.802" r="5.035"/>
				<circle opacity="0.2786" fill="#EDEEEE" cx="36.837" cy="18.805" r="5.035"/>
				<circle opacity="0.2736" fill="#EDEEEE" cx="36.84" cy="18.808" r="5.035"/>
				<circle opacity="0.2687" fill="#EDEEEF" cx="36.842" cy="18.811" r="5.035"/>
				<circle opacity="0.2637" fill="#EEEEEF" cx="36.845" cy="18.814" r="5.035"/>
				<circle opacity="0.2587" fill="#EEEFEF" cx="36.848" cy="18.817" r="5.035"/>
				<circle opacity="0.2537" fill="#EEEFEF" cx="36.85" cy="18.82" r="5.035"/>
				<circle opacity="0.2488" fill="#EEEFF0" cx="36.852" cy="18.823" r="5.035"/>
				<circle opacity="0.2438" fill="#EFEFF0" cx="36.854" cy="18.826" r="5.035"/>
				<circle opacity="0.2388" fill="#EFF0F0" cx="36.856" cy="18.828" r="5.035"/>
				<circle opacity="0.2338" fill="#EFF0F0" cx="36.859" cy="18.832" r="5.036"/>
				<circle opacity="0.2289" fill="#F0F0F1" cx="36.861" cy="18.834" r="5.036"/>
				<circle opacity="0.2239" fill="#F0F0F1" cx="36.863" cy="18.837" r="5.036"/>
				<circle opacity="0.2189" fill="#F0F1F1" cx="36.866" cy="18.84" r="5.036"/>
				<circle opacity="0.2139" fill="#F0F1F1" cx="36.868" cy="18.843" r="5.035"/>
				<circle opacity="0.209" fill="#F1F1F2" cx="36.871" cy="18.846" r="5.035"/>
				<circle opacity="0.204" fill="#F1F1F2" cx="36.873" cy="18.849" r="5.036"/>
				<circle opacity="0.199" fill="#F1F2F2" cx="36.876" cy="18.852" r="5.035"/>
				<circle opacity="0.194" fill="#F1F2F2" cx="36.878" cy="18.855" r="5.036"/>
				<circle opacity="0.1891" fill="#F2F2F3" cx="36.88" cy="18.857" r="5.035"/>
				<circle opacity="0.1841" fill="#F2F2F3" cx="36.883" cy="18.86" r="5.035"/>
				<circle opacity="0.1791" fill="#F2F3F3" cx="36.885" cy="18.863" r="5.035"/>
				<circle opacity="0.1741" fill="#F2F3F3" cx="36.888" cy="18.866" r="5.035"/>
				<circle opacity="0.1692" fill="#F3F3F4" cx="36.891" cy="18.869" r="5.035"/>
				<circle opacity="0.1642" fill="#F3F3F4" cx="36.893" cy="18.872" r="5.035"/>
				<circle opacity="0.1592" fill="#F3F4F4" cx="36.895" cy="18.875" r="5.035"/>
				<circle opacity="0.1542" fill="#F4F4F4" cx="36.897" cy="18.878" r="5.035"/>
				<circle opacity="0.1493" fill="#F4F4F5" cx="36.9" cy="18.881" r="5.035"/>
				<circle opacity="0.1443" fill="#F4F4F5" cx="36.902" cy="18.883" r="5.036"/>
				<circle opacity="0.1393" fill="#F4F5F5" cx="36.904" cy="18.886" r="5.036"/>
				<circle opacity="0.1343" fill="#F5F5F5" cx="36.906" cy="18.889" r="5.036"/>
				<circle opacity="0.1294" fill="#F5F5F6" cx="36.909" cy="18.892" r="5.036"/>
				<circle opacity="0.1244" fill="#F5F6F6" cx="36.912" cy="18.895" r="5.036"/>
				<circle opacity="0.1194" fill="#F6F6F6" cx="36.914" cy="18.898" r="5.036"/>
				<circle opacity="0.1144" fill="#F6F6F7" cx="36.917" cy="18.901" r="5.036"/>
				<circle opacity="0.1095" fill="#F6F6F7" cx="36.919" cy="18.904" r="5.036"/>
				<circle opacity="0.1045" fill="#F6F7F7" cx="36.921" cy="18.906" r="5.035"/>
				<circle opacity="0.0995" fill="#F7F7F7" cx="36.924" cy="18.91" r="5.036"/>
				<circle opacity="0.0945" fill="#F7F7F8" cx="36.926" cy="18.913" r="5.036"/>
				<circle opacity="0.0896" fill="#F7F8F8" cx="36.929" cy="18.916" r="5.036"/>
				<circle opacity="0.0846" fill="#F8F8F8" cx="36.931" cy="18.918" r="5.036"/>
				<circle opacity="0.0796" fill="#F8F8F9" cx="36.934" cy="18.921" r="5.035"/>
				<circle opacity="0.0746" fill="#F8F9F9" cx="36.936" cy="18.924" r="5.035"/>
				<circle opacity="0.0697" fill="#F9F9F9" cx="36.938" cy="18.927" r="5.036"/>
				<circle opacity="0.0647" fill="#F9F9F9" cx="36.94" cy="18.93" r="5.035"/>
				<circle opacity="0.0597" fill="#F9FAFA" cx="36.943" cy="18.933" r="5.036"/>
				<circle opacity="0.0547" fill="#FAFAFA" cx="36.945" cy="18.936" r="5.035"/>
				<circle opacity="0.0498" fill="#FAFAFA" cx="36.947" cy="18.938" r="5.035"/>
				<circle opacity="0.0448" fill="#FBFBFB" cx="36.95" cy="18.941" r="5.035"/>
				<circle opacity="0.0398" fill="#FBFBFB" cx="36.952" cy="18.944" r="5.035"/>
				<circle opacity="0.0348" fill="#FBFCFC" cx="36.955" cy="18.947" r="5.035"/>
				<circle opacity="0.0299" fill="#FCFCFC" cx="36.957" cy="18.95" r="5.035"/>
				<circle opacity="0.0249" fill="#FCFCFD" cx="36.96" cy="18.953" r="5.035"/>
				<circle opacity="0.0199" fill="#FDFDFD" cx="36.962" cy="18.956" r="5.035"/>
				<circle opacity="0.0149" fill="#FDFDFD" cx="36.965" cy="18.959" r="5.035"/>
				<circle opacity="0.0099" fill="#FEFEFE" cx="36.967" cy="18.962" r="5.035"/>
				<circle opacity="0.005" fill="#FEFEFE" cx="36.97" cy="18.965" r="5.035"/>
				<circle opacity="0" fill="#FFFFFF" cx="36.972" cy="18.968" r="5.035"/>
			</g>
		</g>
	</g>
	<g>
		<path d="M64.2,13.432c0-0.166-0.114-0.257-0.315-0.257h-0.267v0.832h0.197v-0.323l0.234,0.323h0.242l-0.273-0.343
			C64.135,13.633,64.2,13.547,64.2,13.432z M63.85,13.545h-0.034v-0.218h0.036c0.1,0,0.15,0.036,0.15,0.107
			C64.002,13.508,63.95,13.545,63.85,13.545z"/>
		<path d="M63.925,12.864c-0.404,0-0.726,0.322-0.726,0.726c0,0.402,0.324,0.726,0.726,0.726c0.394,0,0.716-0.327,0.716-0.726
			C64.641,13.192,64.318,12.864,63.925,12.864z M63.922,14.186c-0.317,0-0.577-0.265-0.577-0.595c0-0.332,0.256-0.596,0.577-0.596
			c0.317,0,0.575,0.271,0.575,0.596C64.497,13.918,64.239,14.186,63.922,14.186z"/>
	</g>
</g>
</svg>
