<?xml version="1.0" encoding="utf-8"?>
<!-- Generator: Adobe Illustrator 16.0.0, SVG Export Plug-In . SVG Version: 6.00 Build 0)  -->
<!DOCTYPE svg PUBLIC "-//W3C//DTD SVG 1.1//EN" "http://www.w3.org/Graphics/SVG/1.1/DTD/svg11.dtd">
<svg version="1.1" id="Layer_1" xmlns="http://www.w3.org/2000/svg" xmlns:xlink="http://www.w3.org/1999/xlink" x="0px" y="0px"
	 width="67px" height="44px" viewBox="0 0 67 44" enable-background="new 0 0 67 44" xml:space="preserve">
<rect fill="#FFFFFF" stroke="#939598" stroke-miterlimit="10" width="67" height="44"/>
<g>
	<path fill="#ED1C24" d="M38.426,22.632c0,8.731-7.078,15.809-15.809,15.809S6.809,31.363,6.809,22.632
		c0-8.73,7.077-15.809,15.808-15.809S38.426,13.902,38.426,22.632L38.426,22.632z"/>
	<path fill="#FAA61A" d="M43.841,6.823c-4.085,0-7.807,1.55-10.612,4.092c-0.571,0.519-1.105,1.078-1.596,1.673h3.194
		c0.437,0.531,0.839,1.089,1.205,1.674h-5.604c-0.336,0.538-0.641,1.096-0.911,1.674h7.425c0.254,0.542,0.478,1.1,0.67,1.673h-8.765
		c-0.183,0.545-0.336,1.104-0.459,1.674h9.683c0.231,1.079,0.355,2.199,0.355,3.347c0,1.755-0.286,3.445-0.814,5.022h-8.765
		c0.192,0.573,0.416,1.132,0.669,1.674h7.425c-0.271,0.578-0.575,1.137-0.911,1.674h-5.603c0.366,0.584,0.769,1.144,1.205,1.674
		h3.193c-0.49,0.596-1.024,1.156-1.596,1.674c2.805,2.542,6.527,4.092,10.612,4.092c8.73,0,15.81-7.078,15.81-15.809
		C59.65,13.902,52.571,6.823,43.841,6.823L43.841,6.823z"/>
	<path d="M57.543,31.444c0-0.281,0.228-0.511,0.51-0.511c0.283,0,0.511,0.229,0.511,0.511c0,0.282-0.228,0.511-0.511,0.511
		C57.771,31.955,57.543,31.727,57.543,31.444L57.543,31.444z M58.053,31.833c0.215,0,0.389-0.175,0.389-0.389
		c0-0.215-0.174-0.388-0.389-0.388c-0.214,0-0.388,0.173-0.388,0.388C57.665,31.658,57.839,31.833,58.053,31.833L58.053,31.833z
		 M57.984,31.669H57.88V31.22h0.189c0.039,0,0.08,0,0.114,0.022c0.036,0.025,0.058,0.068,0.058,0.113c0,0.05-0.03,0.097-0.078,0.115
		l0.082,0.198H58.13l-0.069-0.178h-0.076V31.669L57.984,31.669z M57.984,31.414h0.058c0.021,0,0.045,0.002,0.064-0.009
		c0.017-0.011,0.025-0.031,0.025-0.052c0-0.017-0.011-0.036-0.025-0.045C58.088,31.298,58.06,31.3,58.04,31.3h-0.056V31.414
		L57.984,31.414z"/>
	<path d="M18.926,24.363c-0.18-0.021-0.26-0.026-0.383-0.026c-0.973,0-1.465,0.333-1.465,0.992c0,0.406,0.241,0.664,0.615,0.664
		C18.392,25.993,18.896,25.328,18.926,24.363L18.926,24.363z M20.174,27.269c-0.229,0-1.422,0-1.422,0l0.032-0.676
		c-0.434,0.535-1.012,0.788-1.799,0.788c-0.93,0-1.567-0.726-1.567-1.781c0-1.587,1.109-2.514,3.013-2.514
		c0.194,0,0.444,0.018,0.699,0.051c0.053-0.215,0.067-0.307,0.067-0.423c0-0.433-0.299-0.594-1.101-0.594
		c-0.839-0.009-1.532,0.2-1.816,0.294c0.018-0.108,0.238-1.467,0.238-1.467c0.855-0.251,1.419-0.345,2.054-0.345
		c1.474,0,2.254,0.662,2.253,1.912c0.003,0.335-0.053,0.749-0.139,1.292C20.537,24.751,20.217,26.775,20.174,27.269L20.174,27.269z"
		/>
	<polygon points="14.7,27.269 12.983,27.269 13.966,21.104 11.771,27.269 10.602,27.269 10.457,21.14 9.424,27.269 7.817,27.269 
		9.159,19.25 11.627,19.25 11.776,23.738 13.282,19.25 16.027,19.25 14.7,27.269 	"/>
	<path d="M45.962,24.363c-0.18-0.021-0.259-0.026-0.382-0.026c-0.973,0-1.466,0.333-1.466,0.992c0,0.406,0.24,0.664,0.615,0.664
		C45.429,25.993,45.933,25.328,45.962,24.363L45.962,24.363z M47.211,27.269c-0.229,0-1.422,0-1.422,0l0.032-0.676
		c-0.435,0.535-1.013,0.788-1.799,0.788c-0.931,0-1.567-0.726-1.567-1.781c0-1.587,1.108-2.514,3.013-2.514
		c0.194,0,0.443,0.018,0.699,0.051c0.054-0.215,0.067-0.307,0.067-0.423c0-0.433-0.299-0.594-1.101-0.594
		c-0.84-0.009-1.531,0.2-1.817,0.294c0.019-0.108,0.239-1.467,0.239-1.467c0.855-0.251,1.418-0.345,2.053-0.345
		c1.475,0,2.255,0.662,2.254,1.912c0.002,0.335-0.053,0.749-0.14,1.292C47.574,24.751,47.254,26.775,47.211,27.269L47.211,27.269z"
		/>
	<path d="M27.801,27.17c-0.47,0.147-0.836,0.211-1.233,0.211c-0.877,0-1.356-0.504-1.356-1.432
		c-0.012-0.288,0.126-1.047,0.235-1.738c0.099-0.609,0.744-4.45,0.744-4.45h1.706l-0.199,0.987h1.03l-0.233,1.567h-1.034
		c-0.198,1.24-0.48,2.785-0.484,2.99c0,0.337,0.18,0.482,0.588,0.482c0.195,0,0.347-0.02,0.462-0.062L27.801,27.17L27.801,27.17z"/>
	<path d="M33.032,27.117c-0.586,0.179-1.151,0.266-1.75,0.264c-1.91-0.001-2.905-0.999-2.905-2.908c0-2.23,1.266-3.871,2.985-3.871
		c1.407,0,2.305,0.919,2.305,2.359c0,0.479-0.062,0.945-0.21,1.604h-3.397c-0.115,0.946,0.491,1.341,1.483,1.341
		c0.61,0,1.162-0.126,1.774-0.411L33.032,27.117L33.032,27.117z M32.073,23.251c0.01-0.136,0.181-1.164-0.794-1.164
		c-0.543,0-0.932,0.415-1.09,1.164H32.073L32.073,23.251z"/>
	<path d="M21.203,22.809c0,0.825,0.4,1.394,1.308,1.821c0.695,0.327,0.802,0.424,0.802,0.72c0,0.406-0.307,0.59-0.985,0.59
		c-0.512,0-0.988-0.08-1.538-0.257c0,0-0.226,1.437-0.236,1.506c0.39,0.085,0.738,0.164,1.786,0.192c1.811,0,2.647-0.689,2.647-2.18
		c0-0.896-0.35-1.422-1.21-1.816c-0.72-0.33-0.802-0.404-0.802-0.709c0-0.352,0.285-0.532,0.84-0.532
		c0.337,0,0.797,0.036,1.233,0.098l0.244-1.512c-0.444-0.07-1.118-0.127-1.51-0.127C21.861,20.602,21.197,21.605,21.203,22.809
		L21.203,22.809z"/>
	<path d="M41.378,20.773c0.477,0,0.922,0.125,1.534,0.433l0.281-1.74c-0.252-0.099-1.137-0.679-1.887-0.679
		c-1.148,0-2.12,0.57-2.803,1.511c-0.996-0.33-1.405,0.337-1.907,1.001l-0.446,0.104c0.034-0.219,0.064-0.436,0.055-0.656h-1.576
		c-0.216,2.019-0.598,4.062-0.896,6.083l-0.078,0.438h1.717c0.287-1.861,0.443-3.054,0.539-3.86l0.646-0.359
		c0.097-0.36,0.399-0.481,1.006-0.466c-0.08,0.425-0.122,0.874-0.122,1.337c0,2.133,1.151,3.461,2.999,3.461
		c0.476,0,0.884-0.062,1.517-0.233l0.302-1.828c-0.569,0.279-1.035,0.411-1.459,0.411c-0.997,0-1.601-0.736-1.601-1.953
		C39.199,22.011,40.097,20.773,41.378,20.773L41.378,20.773z"/>
	<path d="M55.909,19.25l-0.381,2.316c-0.469-0.618-0.974-1.064-1.64-1.064c-0.865,0-1.653,0.656-2.17,1.623
		c-0.719-0.149-1.462-0.402-1.462-0.402v0.006c0.058-0.54,0.081-0.87,0.076-0.981h-1.576c-0.216,2.019-0.597,4.062-0.895,6.083
		l-0.079,0.438H49.5c0.231-1.505,0.409-2.755,0.54-3.747c0.587-0.53,0.88-0.992,1.473-0.961c-0.262,0.635-0.416,1.366-0.416,2.116
		c0,1.63,0.825,2.705,2.072,2.705c0.629,0,1.112-0.217,1.583-0.72l-0.081,0.606h1.623l1.308-8.017H55.909L55.909,19.25z
		 M53.763,25.762c-0.585,0-0.88-0.432-0.88-1.285c0-1.281,0.553-2.191,1.331-2.191c0.59,0,0.909,0.45,0.909,1.278
		C55.123,24.856,54.562,25.762,53.763,25.762L53.763,25.762z"/>
	<polygon fill="#FFFFFF" points="15.193,26.793 13.477,26.793 14.46,20.629 12.265,26.793 11.096,26.793 10.951,20.665 
		9.918,26.793 8.312,26.793 9.653,18.775 12.121,18.775 12.19,23.738 13.855,18.775 16.521,18.775 15.193,26.793 	"/>
	<path fill="#FFFFFF" d="M19.419,23.888c-0.18-0.021-0.26-0.026-0.383-0.026c-0.973,0-1.465,0.334-1.465,0.992
		c0,0.406,0.241,0.665,0.615,0.665C18.886,25.519,19.39,24.853,19.419,23.888L19.419,23.888z M20.668,26.793
		c-0.229,0-1.422,0-1.422,0l0.032-0.675c-0.434,0.533-1.013,0.788-1.798,0.788c-0.931,0-1.568-0.727-1.568-1.781
		c0-1.589,1.108-2.514,3.013-2.514c0.194,0,0.444,0.018,0.699,0.051c0.053-0.215,0.067-0.307,0.067-0.424
		c0-0.432-0.299-0.593-1.101-0.593c-0.84-0.009-1.532,0.2-1.817,0.292c0.018-0.108,0.238-1.465,0.238-1.465
		c0.855-0.251,1.419-0.346,2.054-0.346c1.474,0,2.255,0.662,2.253,1.912c0.002,0.336-0.053,0.75-0.14,1.292
		C21.031,24.274,20.711,26.301,20.668,26.793L20.668,26.793z"/>
	<path fill="#FFFFFF" d="M43.687,18.991l-0.28,1.74c-0.612-0.308-1.058-0.433-1.533-0.433c-1.281,0-2.18,1.238-2.18,3.003
		c0,1.218,0.604,1.953,1.601,1.953c0.424,0,0.89-0.131,1.458-0.411l-0.301,1.827c-0.633,0.173-1.041,0.235-1.517,0.235
		c-1.848,0-2.999-1.329-2.999-3.462c0-2.867,1.59-4.871,3.865-4.871C42.55,18.574,43.435,18.892,43.687,18.991L43.687,18.991z"/>
	<path fill="#FFFFFF" d="M46.456,23.888c-0.18-0.021-0.26-0.026-0.383-0.026c-0.973,0-1.465,0.334-1.465,0.992
		c0,0.406,0.24,0.665,0.615,0.665C45.922,25.519,46.427,24.853,46.456,23.888L46.456,23.888z M47.705,26.793
		c-0.229,0-1.423,0-1.423,0l0.033-0.675c-0.435,0.533-1.013,0.788-1.799,0.788c-0.931,0-1.568-0.727-1.568-1.781
		c0-1.589,1.109-2.514,3.014-2.514c0.194,0,0.444,0.018,0.699,0.051c0.053-0.215,0.067-0.307,0.067-0.424
		c0-0.432-0.299-0.593-1.101-0.593c-0.84-0.009-1.532,0.2-1.817,0.292c0.019-0.108,0.238-1.465,0.238-1.465
		c0.855-0.251,1.419-0.346,2.054-0.346c1.475,0,2.255,0.662,2.253,1.912c0.003,0.336-0.053,0.75-0.139,1.292
		C48.068,24.274,47.748,26.301,47.705,26.793L47.705,26.793z"/>
	<path fill="#FFFFFF" d="M28.295,26.694c-0.47,0.147-0.836,0.212-1.232,0.212c-0.878,0-1.356-0.505-1.356-1.433
		c-0.012-0.289,0.126-1.046,0.235-1.738c0.099-0.61,0.744-4.45,0.744-4.45h1.706l-0.199,0.987h0.875l-0.233,1.567h-0.878
		c-0.198,1.241-0.481,2.785-0.484,2.989c0,0.338,0.18,0.483,0.588,0.483c0.196,0,0.347-0.019,0.463-0.061L28.295,26.694
		L28.295,26.694z"/>
	<path fill="#FFFFFF" d="M33.525,26.642c-0.585,0.18-1.151,0.266-1.75,0.265c-1.91-0.002-2.905-0.999-2.905-2.909
		c0-2.23,1.267-3.871,2.986-3.871c1.406,0,2.305,0.918,2.305,2.36c0,0.479-0.062,0.945-0.21,1.604h-3.397
		c-0.115,0.945,0.49,1.34,1.482,1.34c0.61,0,1.162-0.126,1.774-0.411L33.525,26.642L33.525,26.642z M32.566,22.775
		c0.01-0.136,0.181-1.164-0.793-1.164c-0.543,0-0.932,0.415-1.09,1.164H32.566L32.566,22.775z"/>
	<path fill="#FFFFFF" d="M21.697,22.334c0,0.824,0.4,1.393,1.307,1.82c0.695,0.327,0.803,0.425,0.803,0.72
		c0,0.407-0.307,0.591-0.985,0.591c-0.512,0-0.988-0.08-1.538-0.258c0,0-0.225,1.438-0.235,1.506
		c0.389,0.085,0.737,0.163,1.786,0.193c1.811,0,2.647-0.689,2.647-2.18c0-0.896-0.35-1.422-1.21-1.817
		c-0.719-0.331-0.802-0.404-0.802-0.708c0-0.353,0.286-0.534,0.84-0.534c0.336,0,0.797,0.037,1.233,0.099l0.244-1.513
		c-0.444-0.07-1.118-0.127-1.51-0.127C22.355,20.126,21.691,21.128,21.697,22.334L21.697,22.334z"/>
	<path fill="#FFFFFF" d="M56.788,26.793h-1.623l0.08-0.607c-0.471,0.504-0.953,0.721-1.582,0.721c-1.247,0-2.072-1.076-2.072-2.706
		c0-2.169,1.278-3.998,2.792-3.998c0.666,0,1.17,0.272,1.64,0.889l0.381-2.317h1.692L56.788,26.793L56.788,26.793z M54.257,25.286
		c0.799,0,1.36-0.905,1.36-2.197c0-0.829-0.319-1.278-0.909-1.278c-0.778,0-1.331,0.909-1.331,2.19
		C53.377,24.854,53.672,25.286,54.257,25.286L54.257,25.286z"/>
	<path fill="#FFFFFF" d="M49.251,20.272c-0.216,2.019-0.597,4.063-0.896,6.083l-0.078,0.438h1.717
		c0.614-3.987,0.763-4.766,1.725-4.668c0.153-0.816,0.438-1.531,0.651-1.892c-0.719-0.15-1.119,0.256-1.646,1.028
		c0.041-0.334,0.118-0.658,0.103-0.989H49.251L49.251,20.272z"/>
	<path fill="#FFFFFF" d="M35.123,20.272c-0.216,2.019-0.598,4.063-0.896,6.083l-0.078,0.438h1.718
		c0.613-3.987,0.762-4.766,1.724-4.668c0.154-0.816,0.439-1.531,0.652-1.892c-0.719-0.15-1.12,0.256-1.646,1.028
		c0.041-0.334,0.116-0.658,0.103-0.989H35.123L35.123,20.272z"/>
	<path fill="#FFFFFF" d="M57.542,26.282c0-0.283,0.229-0.511,0.511-0.511c0.281,0,0.51,0.228,0.51,0.511
		c0,0.281-0.229,0.511-0.51,0.511C57.771,26.793,57.542,26.563,57.542,26.282L57.542,26.282z M58.053,26.67
		c0.215,0,0.388-0.174,0.388-0.388s-0.173-0.388-0.388-0.388s-0.389,0.174-0.389,0.388S57.838,26.67,58.053,26.67L58.053,26.67z
		 M57.983,26.506h-0.104v-0.448h0.19c0.039,0,0.079,0.001,0.113,0.022c0.037,0.025,0.058,0.067,0.058,0.112
		c0,0.051-0.029,0.098-0.078,0.116l0.083,0.197h-0.117l-0.067-0.177h-0.077V26.506L57.983,26.506z M57.983,26.252h0.058
		c0.021,0,0.046,0.001,0.064-0.009c0.018-0.012,0.025-0.032,0.025-0.052c0-0.017-0.01-0.036-0.024-0.046
		c-0.019-0.011-0.048-0.008-0.067-0.008h-0.056V26.252L57.983,26.252z"/>
</g>
</svg>
