<?xml version="1.0" standalone="no"?>
<!DOCTYPE svg PUBLIC "-//W3C//DTD SVG 1.1//EN" "http://www.w3.org/Graphics/SVG/1.1/DTD/svg11.dtd" >
<svg>
<metadata>
Created by FontForge 20090622 at Thu Feb  7 07:19:36 2019
 By deploy user
Copyright 2007-2009, 2017, 2018 Monotype Imaging Inc. All rights reserved.
</metadata>
<defs>
<font id="PNCBrand" horiz-adv-x="510" >
  <font-face 
    font-family="PNCBrand"
    font-weight="400"
    font-stretch="normal"
    units-per-em="1000"
    panose-1="2 0 5 3 4 0 0 2 0 3"
    ascent="764"
    descent="-236"
    x-height="492"
    cap-height="712"
    bbox="-168 -226 1106 987"
    underline-thickness="51"
    underline-position="-89"
    unicode-range="U+000D-U+FB02"
  />
<missing-glyph horiz-adv-x="542" 
d="M80 0v712h382v-712h-382zM131 51h280v610h-280v-610z" />
    <glyph glyph-name="uniFB01" unicode="fi" horiz-adv-x="544" 
d="M462 711.5q15 -14.5 15 -34.5t-15 -34.5t-35 -14.5t-34.5 14.5t-14.5 34.5t14.5 34.5t34.5 14.5t35 -14.5zM234 651q-66 0 -66 -72v-87h105v-55h-105v-437h-72v437h-63v55h63v89q0 58 32.5 95t92.5 37h52v-62h-39zM391 0v492h72v-492h-72z" />
    <glyph glyph-name="uniFB02" unicode="fl" horiz-adv-x="586" 
d="M234 651q-66 0 -66 -72v-87h105v-55h-105v-437h-72v437h-63v55h63v89q0 58 32.5 95t92.5 37h52v-62h-39zM474 79.5q15 -17.5 51 -17.5h39v-62h-52q-62 0 -93.5 36t-31.5 95v581h72v-578q0 -37 15 -54.5z" />
    <glyph glyph-name=".notdef" horiz-adv-x="542" 
d="M80 0v712h382v-712h-382zM131 51h280v610h-280v-610z" />
    <glyph glyph-name="glyph1" horiz-adv-x="0" 
 />
    <glyph glyph-name="glyph1" horiz-adv-x="0" 
 />
    <glyph glyph-name="uni000D" unicode="&#xd;" horiz-adv-x="229" 
 />
    <glyph glyph-name="space" unicode=" " horiz-adv-x="229" 
 />
    <glyph glyph-name="exclam" unicode="!" horiz-adv-x="296" 
d="M135 200l-13 512h84l-13 -512h-58zM199.5 82.5q14.5 -14.5 14.5 -35.5t-14.5 -35.5t-35.5 -14.5t-36 14.5t-15 35.5t15 35.5t36 14.5t35.5 -14.5z" />
    <glyph glyph-name="quotedbl" unicode="&#x22;" horiz-adv-x="403" 
d="M78 542v170h79v-170h-79zM246 542v170h79v-170h-79z" />
    <glyph glyph-name="numbersign" unicode="#" horiz-adv-x="657" 
d="M155 227h-89v56h99l25 157h-93v58h101l34 215h67l-35 -215h175l34 215h65l-34 -215h87v-58h-96l-24 -157h90v-56h-99l-36 -227h-66l37 227h-177l-35 -227h-66zM405 283l25 157h-175l-25 -157h175z" />
    <glyph glyph-name="dollar" unicode="$" horiz-adv-x="577" 
d="M413.5 695.5q43.5 -18.5 85.5 -55.5l-49 -49q-30 27 -63 42t-77 18v-259q74 -12 105 -23.5t55 -31.5q29 -25 45 -61t16 -80q0 -86 -59 -139.5t-159 -60.5v-110h-60v108q-70 3 -121.5 25t-98.5 69l52 52q39 -39 79.5 -57t92.5 -20v265q-96 10 -150 56q-55 49 -55 133
q0 85 54 139t147 61v89h60v-89q57 -3 100.5 -21.5zM161 611q-34 -35 -34 -91q0 -54 32 -82q36 -30 98 -39v252q-62 -5 -96 -40zM416.5 102.5q38.5 34.5 38.5 91.5q0 59 -35 89q-20 18 -41 24.5t-42 9t-27 3.5v-257q68 5 106.5 39.5z" />
    <glyph glyph-name="percent" unicode="%" horiz-adv-x="814" 
d="M93 380.5q-38 36.5 -38 98.5v104q0 62 38 98.5t96 36.5t96.5 -36.5t38.5 -98.5v-104q0 -62 -38.5 -98.5t-96.5 -36.5t-96 36.5zM604 712l-334 -712h-60l334 712h60zM246.5 419.5q20.5 23.5 20.5 66.5v91q0 43 -20.5 66t-57.5 23q-36 0 -56.5 -23.5t-20.5 -65.5v-91
q0 -43 20.5 -66.5t56.5 -23.5q37 0 57.5 23.5zM527.5 30.5q-38.5 36.5 -38.5 98.5v104q0 62 38.5 98.5t96.5 36.5t96.5 -36.5t38.5 -98.5v-104q0 -62 -38.5 -98.5t-96.5 -36.5t-96.5 36.5zM681 69q20 23 20 66v91q0 43 -20 66.5t-57 23.5q-36 0 -56.5 -23.5t-20.5 -66.5v-91
q0 -42 20.5 -65.5t56.5 -23.5q37 0 57 23z" />
    <glyph glyph-name="ampersand" unicode="&#x26;" horiz-adv-x="685" 
d="M382.5 698q36.5 -20 57.5 -54t21 -76q0 -39 -22 -69.5t-61 -57.5l-53 -36l182 -219q22 33 30.5 68t9.5 95h72q-2 -141 -66 -218l109 -131h-95l-64 78q-90 -84 -210 -84q-68 0 -119 26t-78.5 72.5t-27.5 108.5q0 50 21 88t52 65t81 60q-37 45 -57 79t-20 76t20.5 76
t56 53.5t80.5 19.5q44 0 80.5 -20zM242 628.5q-23 -22.5 -23 -58.5q0 -24 14 -48t51 -69l38 26q31 22 48 41.5t17 47.5q0 36 -24.5 59.5t-60.5 23.5q-37 0 -60 -22.5zM198.5 317.5q-23.5 -19.5 -40 -48t-16.5 -66.5q0 -63 42 -102.5t108 -39.5q44 0 84.5 15t83.5 54
l-196 236q-42 -29 -65.5 -48.5z" />
    <glyph glyph-name="quotesingle" unicode="'" horiz-adv-x="235" 
d="M78 542v170h79v-170h-79z" />
    <glyph glyph-name="parenleft" unicode="(" horiz-adv-x="276" 
d="M102 121.5q-32 110.5 -32 234.5t32 235t99 214l60 -34q-58 -98 -87 -197.5t-29 -217.5t29 -217t87 -199l-60 -33q-67 104 -99 214.5z" />
    <glyph glyph-name="parenright" unicode=")" horiz-adv-x="276" 
d="M15 -60q58 100 87 199t29 217t-29 217.5t-87 197.5l60 34q67 -103 99 -214t32 -235t-32 -234.5t-99 -214.5z" />
    <glyph glyph-name="asterisk" unicode="*" horiz-adv-x="472" 
d="M378 646l28 -48l-120 -66l120 -65l-28 -49l-117 71l4 -137h-58l4 137l-116 -71l-29 49l120 65l-120 66l29 48l116 -71l-4 137h58l-4 -137z" />
    <glyph glyph-name="plus" unicode="+" horiz-adv-x="502" 
d="M460 305v-67h-175v-176h-67v176h-176v67h176v174h67v-174h175z" />
    <glyph glyph-name="comma" unicode="," horiz-adv-x="252" 
d="M166 94q17 -17 17 -40q0 -15 -4.5 -32t-18.5 -59l-31 -93h-53l44 128q-23 5 -37 19.5t-14 36.5q0 23 17 40t40 17t40 -17z" />
    <glyph glyph-name="hyphen" unicode="-" horiz-adv-x="406" 
d="M66 237v67h274v-67h-274z" />
    <glyph glyph-name="period" unicode="." horiz-adv-x="252" 
d="M166 94q17 -17 17 -40t-17 -40t-40 -17t-40 17t-17 40t17 40t40 17t40 -17z" />
    <glyph glyph-name="slash" unicode="/" horiz-adv-x="336" 
d="M-10 -74l285 860h71l-285 -860h-71z" />
    <glyph glyph-name="zero" unicode="0" horiz-adv-x="502" 
d="M150.5 18.5q-44.5 24.5 -69.5 69t-25 102.5v332q0 58 25 102.5t69.5 69t100.5 24.5q55 0 99.5 -24.5t70 -69t25.5 -102.5v-332q0 -58 -25.5 -102.5t-70 -69t-99.5 -24.5q-56 0 -100.5 24.5zM341.5 96q32.5 38 32.5 98v324q0 60 -32.5 98t-90.5 38t-90.5 -38t-32.5 -98
v-324q0 -60 32.5 -98t90.5 -38t90.5 38z" />
    <glyph glyph-name="one" unicode="1" horiz-adv-x="502" 
d="M115 515v82l133 115h72v-712h-72v632z" />
    <glyph glyph-name="two" unicode="2" horiz-adv-x="502" 
d="M339 421q21 27 30.5 51.5t9.5 53.5q0 58 -33 93t-91 35q-54 0 -89 -32t-35 -97h-72q0 56 24.5 100t69 68.5t102.5 24.5q88 0 142 -52.5t54 -139.5q0 -41 -13 -73t-44 -71l-249 -318h306v-64h-393v64z" />
    <glyph glyph-name="three" unicode="3" horiz-adv-x="502" 
d="M94 41.5q-58 47.5 -62 140.5h72q4 -63 42.5 -93.5t94.5 -30.5q59 0 98 37t39 101q0 66 -34.5 101.5t-105.5 35.5h-15v63h15q64 0 95.5 33.5t31.5 94.5q0 62 -35 96t-89 34q-56 0 -89.5 -32t-38.5 -87h-72q6 85 61.5 134t138.5 49q58 0 102.5 -24t69 -68t24.5 -101
q0 -113 -96 -157q109 -41 109 -173q0 -64 -27.5 -109t-75 -68.5t-106.5 -23.5q-89 0 -147 47.5z" />
    <glyph glyph-name="four" unicode="4" horiz-adv-x="502" 
d="M30 113v65l257 534h77l-257 -534h207v202h71v-202h87v-65h-87v-113h-71v113h-284z" />
    <glyph glyph-name="five" unicode="5" horiz-adv-x="502" 
d="M171 7.5q-37 13.5 -61 37.5q-44 45 -50 124h72q14 -111 121 -111q26 0 49 8.5t39 24.5q25 25 32 60t7 85q0 79 -25 125.5t-95 46.5q-46 0 -76.5 -19t-41.5 -51h-65v374h360v-64h-295v-226q44 49 128 49q78 0 123 -45q35 -35 47 -82t12 -108q0 -64 -11 -109t-46 -80
q-53 -53 -142 -53q-45 0 -82 13.5z" />
    <glyph glyph-name="six" unicode="6" horiz-adv-x="502" 
d="M107.5 50.5q-53.5 56.5 -53.5 148.5q0 37 10 73t34 85l175 355h75l-163 -325q33 20 79 20q54 0 96 -26t65.5 -72t23.5 -104q0 -60 -24 -108t-69 -75.5t-104 -27.5q-91 0 -144.5 56.5zM342.5 97q34.5 39 34.5 105q0 62 -33.5 103t-92.5 41q-57 0 -91 -39t-34 -105t34 -105
t91 -39t91.5 39z" />
    <glyph glyph-name="seven" unicode="7" horiz-adv-x="502" 
d="M137 648v-112h-71v176h395v-64l-247 -648h-76l247 648h-248z" />
    <glyph glyph-name="eight" unicode="8" horiz-adv-x="502" 
d="M144 19.5q-48 25.5 -75.5 71.5t-27.5 105t29 102t78 71q-44 25 -68.5 64.5t-24.5 93.5q0 55 25.5 98.5t70 68t100.5 24.5t100.5 -24.5t70 -68t25.5 -98.5q0 -54 -24 -93.5t-68 -64.5q49 -28 77.5 -71t28.5 -102t-27.5 -105t-75.5 -71.5t-107 -25.5t-107 25.5z
M340.5 434.5q34.5 35.5 34.5 91.5t-34.5 92t-89.5 36t-89.5 -36t-34.5 -92t34.5 -91.5t89.5 -35.5t89.5 35.5zM349.5 98q39.5 40 39.5 99t-39.5 99t-98.5 40t-98.5 -40t-39.5 -99t39.5 -99t98.5 -40t98.5 40z" />
    <glyph glyph-name="nine" unicode="9" horiz-adv-x="502" 
d="M238 305q-54 0 -96 26t-65.5 72t-23.5 104q0 60 24 108t69 75.5t104 27.5q91 0 144.5 -56.5t53.5 -148.5q0 -37 -10 -73t-34 -85l-175 -355h-75l163 325q-31 -20 -79 -20zM342 405q34 39 34 105t-34 105t-91 39t-91.5 -39t-34.5 -105q0 -62 33.5 -103t92.5 -41
q57 0 91 39z" />
    <glyph glyph-name="colon" unicode=":" horiz-adv-x="279" 
d="M193 385q17 -17 17 -40t-17 -40t-40 -17t-40 17t-17 40t17 40t40 17t40 -17zM193 94q17 -17 17 -40t-17 -40t-40 -17t-40 17t-17 40t17 40t40 17t40 -17z" />
    <glyph glyph-name="semicolon" unicode=";" horiz-adv-x="277" 
d="M113 305q-17 17 -17 40t17 40t40 17t40 -17t17 -40t-17 -40t-40 -17t-40 17zM193 94q17 -17 17 -40q0 -15 -4.5 -32t-18.5 -59l-31 -93h-53l44 128q-23 5 -37 19.5t-14 36.5q0 23 17 40t40 17t40 -17z" />
    <glyph glyph-name="less" unicode="&#x3c;" horiz-adv-x="502" 
d="M166 270l250 -124v-77l-331 168v66l331 168v-77z" />
    <glyph glyph-name="equal" unicode="=" horiz-adv-x="502" 
d="M42 321v67h418v-67h-418zM42 152v66h418v-66h-418z" />
    <glyph glyph-name="greater" unicode="&#x3e;" horiz-adv-x="502" 
d="M417 237l-331 -168v77l250 124l-250 124v77l331 -168v-66z" />
    <glyph glyph-name="question" unicode="?" horiz-adv-x="477" 
d="M349 694.5q43 -23.5 67.5 -65t24.5 -93.5q0 -33 -11.5 -61t-33.5 -60l-82 -118q-9 -13 -13.5 -29t-4.5 -29v-39h-72v40q0 28 7.5 49.5t23.5 44.5l81 117q17 25 25 43.5t8 41.5q0 51 -32.5 84.5t-82.5 33.5q-52 0 -84 -35t-32 -84h-72q0 50 24.5 92t67.5 66.5t96 24.5
q52 0 95 -23.5zM294.5 82.5q14.5 -14.5 14.5 -35.5t-14.5 -35.5t-35.5 -14.5t-35.5 14.5t-14.5 35.5t14.5 35.5t35.5 14.5t35.5 -14.5z" />
    <glyph glyph-name="at" unicode="@" horiz-adv-x="943" 
d="M697 632.5q85 -44.5 132.5 -124.5t47.5 -183q0 -87 -32.5 -154.5t-86 -105t-113.5 -37.5q-43 0 -66 16.5t-30 49.5q-30 -41 -63 -57.5t-75 -16.5q-63 0 -102 37t-39 106q0 34 10 84q20 106 70 166t133 60q45 0 72.5 -20t39.5 -50l13 63h64l-59 -303q-4 -19 -4 -34
q0 -24 10.5 -34t29.5 -10q39 0 77 29t63 83.5t25 127.5q0 86 -40 153.5t-111 105t-160 37.5q-102 0 -187.5 -51t-135.5 -138t-50 -190q0 -110 47 -196t133 -134.5t199 -48.5h50l-11 -55h-49q-125 0 -223.5 56t-154 155t-55.5 223q0 120 58.5 219.5t158.5 157.5t220 58
q109 0 194 -44.5zM570 321q0 47 -24 69t-59 22q-57 0 -91 -44.5t-48 -121.5q-8 -42 -8 -74q0 -43 22 -67t60 -24q22 0 43 8.5t38 25.5q20 19 34 49.5t24 82.5q9 47 9 74z" />
    <glyph glyph-name="A" unicode="A" horiz-adv-x="591" 
d="M508 0l-57 161h-311l-57 -161h-81l262 712h64l261 -712h-81zM428 227l-132 377l-133 -377h265z" />
    <glyph glyph-name="B" unicode="B" horiz-adv-x="648" 
d="M513 661q58 -51 58 -139q0 -55 -29.5 -97t-75.5 -59q53 -19 84.5 -63t31.5 -106q0 -95 -57.5 -146t-154.5 -51h-277v712h268q94 0 152 -51zM169 397h186q62 0 101 31.5t39 92.5t-38.5 92t-101.5 31h-186v-247zM169 68h194q66 0 104.5 35.5t38.5 95.5t-38.5 95t-104.5 35
h-194v-261z" />
    <glyph glyph-name="C" unicode="C" horiz-adv-x="617" 
d="M477.5 662q65.5 -56 84.5 -156h-78q-14 67 -58.5 105.5t-110.5 38.5q-73 0 -123 -50q-22 -23 -32.5 -51t-14 -70.5t-3.5 -122.5t3.5 -122.5t14 -70.5t32.5 -51q50 -50 123 -50q66 0 110.5 38.5t58.5 105.5h78q-19 -99 -85 -155.5t-162 -56.5q-108 0 -178 70
q-33 33 -48 68.5t-19 83.5t-4 140t4 140t19 83.5t48 68.5q70 70 178 70q97 0 162.5 -56z" />
    <glyph glyph-name="D" unicode="D" horiz-adv-x="653" 
d="M442.5 694q45.5 -18 81.5 -57q29 -32 43 -75t17 -88.5t3 -117.5t-3 -117.5t-17 -88.5t-43 -75q-36 -39 -81.5 -57t-105.5 -18h-244v712h244q60 0 105.5 -18zM169 68h155q93 0 140 52q31 33 39 87t8 149t-8 149t-39 87q-47 52 -140 52h-155v-576z" />
    <glyph glyph-name="E" unicode="E" horiz-adv-x="580" 
d="M169 644v-251h312v-68h-312v-257h366v-68h-442v712h442v-68h-366z" />
    <glyph glyph-name="F" unicode="F" horiz-adv-x="560" 
d="M169 644v-262h312v-68h-312v-314h-76v712h442v-68h-366z" />
    <glyph glyph-name="G" unicode="G" horiz-adv-x="630" 
d="M434 690.5q53 -27.5 86.5 -75.5t43.5 -110h-76q-15 68 -60.5 106.5t-112.5 38.5q-75 0 -123 -50q-22 -23 -32.5 -51t-14 -70.5t-3.5 -122.5t3.5 -122.5t14 -70.5t32.5 -51q48 -50 123 -50q40 0 75.5 15.5t59.5 45.5q21 27 30.5 57.5t9.5 71.5v55h-175v65h251v-113
q0 -63 -13.5 -104t-47.5 -79q-37 -41 -85.5 -61.5t-104.5 -20.5q-108 0 -178 70q-33 33 -48 68.5t-19 83.5t-4 140t4 140t19 83.5t48 68.5q70 70 178 70q66 0 119 -27.5z" />
    <glyph glyph-name="H" unicode="H" horiz-adv-x="676" 
d="M507 0v325h-338v-325h-76v712h76v-319h338v319h76v-712h-76z" />
    <glyph glyph-name="I" unicode="I" horiz-adv-x="262" 
d="M93 0v712h76v-712h-76z" />
    <glyph glyph-name="J" unicode="J" horiz-adv-x="481" 
d="M370 98.5q-28 -50.5 -78.5 -77.5t-115.5 -27q-51 0 -90.5 15.5t-72.5 48.5l51 51q23 -23 47.5 -35t64.5 -12q70 0 108 42.5t38 121.5v486h76v-496q0 -67 -28 -117.5z" />
    <glyph glyph-name="K" unicode="K" horiz-adv-x="631" 
d="M626 0h-90l-217 379l-150 -181v-198h-76v712h76v-410l333 410h92l-224 -275z" />
    <glyph glyph-name="L" unicode="L" horiz-adv-x="553" 
d="M533 68v-68h-440v712h76v-644h364z" />
    <glyph glyph-name="M" unicode="M" horiz-adv-x="796" 
d="M627 0v541l-195 -429h-65l-198 429v-541h-76v712h76l232 -505l226 505h76v-712h-76z" />
    <glyph glyph-name="N" unicode="N" horiz-adv-x="712" 
d="M547 0l-378 571v-571h-76v712h72l378 -569v569h76v-712h-72z" />
    <glyph glyph-name="O" unicode="O" horiz-adv-x="630" 
d="M492 648q33 -33 48 -68.5t19.5 -84t4.5 -139.5t-4.5 -139.5t-19.5 -84t-48 -68.5q-70 -70 -177 -70q-108 0 -178 70q-33 33 -48 68.5t-19 83.5t-4 140t4 140t19 83.5t48 68.5q70 70 178 70q107 0 177 -70zM192 600q-22 -23 -32.5 -51t-14 -70.5t-3.5 -122.5t3.5 -122.5
t14 -70.5t32.5 -51q50 -50 123 -50t123 50q22 23 32.5 51t14 70.5t3.5 122.5t-3.5 122.5t-14 70.5t-32.5 51q-50 50 -123 50t-123 -50z" />
    <glyph glyph-name="P" unicode="P" horiz-adv-x="610" 
d="M472 686q50 -26 78 -73t28 -110t-28 -110.5t-78 -73.5t-114 -26h-189v-293h-76v712h265q64 0 114 -26zM169 361h183q69 0 109.5 36.5t40.5 105.5t-40.5 105t-109.5 36h-183v-283z" />
    <glyph glyph-name="Q" unicode="Q" horiz-adv-x="630" 
d="M492 648q33 -33 48 -68.5t19.5 -84t4.5 -139.5q0 -117 -8.5 -171t-40.5 -96l78 -78l-46 -46l-78 78q-65 -49 -154 -49q-108 0 -178 70q-33 33 -48 68.5t-19 83.5t-4 140t4 140t19 83.5t48 68.5q70 70 178 70q107 0 177 -70zM192 600q-22 -23 -32.5 -51t-14 -70.5
t-3.5 -122.5t3.5 -122.5t14 -70.5t32.5 -51q50 -50 123 -50q57 0 103 32l-92 92l46 46l89 -89q17 29 22 74t5 139q0 80 -3.5 122.5t-14 70.5t-32.5 51q-50 50 -123 50t-123 -50z" />
    <glyph glyph-name="R" unicode="R" horiz-adv-x="636" 
d="M518.5 658.5q58.5 -53.5 58.5 -144.5q0 -76 -42 -126t-113 -65l169 -323h-89l-162 316h-171v-316h-76v712h273q94 0 152.5 -53.5zM169 383h190q65 0 103.5 33.5t38.5 96.5t-39 97t-103 34h-190v-261z" />
    <glyph glyph-name="S" unicode="S" horiz-adv-x="568" 
d="M395.5 699.5q49.5 -18.5 95.5 -59.5l-49 -49q-33 32 -72.5 47t-93.5 15q-71 0 -111 -36t-40 -97q0 -55 32 -83q31 -27 93 -37l83 -13q50 -8 77.5 -18.5t51.5 -32.5q29 -25 44.5 -60.5t15.5 -79.5q0 -93 -67 -147.5t-179 -54.5q-80 0 -137 22t-106 72l51 51
q43 -43 87.5 -60t106.5 -17q79 0 124 34.5t45 97.5q0 58 -35 89q-16 15 -35 22t-58 13l-83 12q-84 13 -130 54q-55 49 -55 134q0 91 61.5 145.5t166.5 54.5q67 0 116.5 -18.5z" />
    <glyph glyph-name="T" unicode="T" horiz-adv-x="528" 
d="M302 644v-644h-76v644h-206v68h488v-68h-206z" />
    <glyph glyph-name="U" unicode="U" horiz-adv-x="663" 
d="M548 110q-32 -55 -89 -85.5t-128 -30.5t-127.5 30.5t-88.5 85.5t-32 125v477h76v-471q0 -81 47 -130t125 -49t125.5 49t47.5 130v471h76v-477q0 -70 -32 -125z" />
    <glyph glyph-name="V" unicode="V" horiz-adv-x="526" 
d="M232 0l-234 712h80l185 -576l185 576h80l-234 -712h-62z" />
    <glyph glyph-name="W" unicode="W" horiz-adv-x="834" 
d="M575 0l-158 570l-158 -570h-71l-182 712h81l139 -574l157 574h68l157 -574l139 574h81l-182 -712h-71z" />
    <glyph glyph-name="X" unicode="X" horiz-adv-x="531" 
d="M526 0h-88l-173 299l-174 -299h-86l218 365l-204 347h88l158 -281l158 281h88l-205 -347z" />
    <glyph glyph-name="Y" unicode="Y" horiz-adv-x="494" 
d="M286 0h-76v294l-212 418h82l168 -341l166 341h82l-210 -418v-294z" />
    <glyph glyph-name="Z" unicode="Z" horiz-adv-x="536" 
d="M133 68h356v-68h-442v64l356 580h-342v68h428v-64z" />
    <glyph glyph-name="bracketleft" unicode="[" horiz-adv-x="287" 
d="M152 722v-732h105v-64h-177v860h177v-64h-105z" />
    <glyph glyph-name="backslash" unicode="\" horiz-adv-x="335" 
d="M274 -74l-284 857h71l284 -857h-71z" />
    <glyph glyph-name="bracketright" unicode="]" horiz-adv-x="287" 
d="M30 -74v64h105v732h-105v64h177v-860h-177z" />
    <glyph glyph-name="asciicircum" unicode="^" horiz-adv-x="502" 
d="M373 413l-122 228l-123 -228h-74l164 305h66l163 -305h-74z" />
    <glyph glyph-name="underscore" unicode="_" horiz-adv-x="517" 
d="M-10 -165v51h537v-51h-537z" />
    <glyph glyph-name="grave" unicode="`" 
d="M220 594l-105 153h83l91 -153h-69z" />
    <glyph glyph-name="a" unicode="a" horiz-adv-x="506" 
d="M382 456q49 -42 49 -122v-334h-72v47q-29 -29 -61 -41t-81 -12q-51 0 -82 10t-57 35q-18 18 -27.5 44t-9.5 56q0 66 44.5 104t126.5 38h147v47q0 55 -29.5 81.5t-96.5 26.5q-46 0 -73.5 -13t-50.5 -44l-49 45q31 42 71 58t103 16q99 0 148 -42zM111 140q0 -43 27.5 -63.5
t86.5 -20.5q36 0 61.5 6.5t47.5 26.5q25 24 25 85v53h-137q-111 0 -111 -87z" />
    <glyph glyph-name="b" unicode="b" horiz-adv-x="525" 
d="M214 484.5q33 13.5 77 13.5q37 0 68.5 -11.5t51.5 -31.5q34 -34 47 -87.5t13 -121.5t-13 -121t-47 -88q-20 -20 -51.5 -31.5t-68.5 -11.5q-44 0 -77 14t-62 51v-59h-72v712h72v-277q29 36 62 49.5zM177.5 383.5q-25.5 -50.5 -25.5 -137.5t25.5 -137.5t98.5 -50.5t98 50.5
t25 137.5t-25 137.5t-98 50.5t-98.5 -50.5z" />
    <glyph glyph-name="c" unicode="c" horiz-adv-x="471" 
d="M360 482q36 -16 74 -57l-49 -46q-28 31 -53 43t-60 12q-75 0 -114 -56q-17 -24 -24.5 -54.5t-7.5 -77.5t7.5 -77.5t24.5 -54.5q39 -56 114 -56q35 0 60 12.5t53 43.5l49 -47q-38 -41 -74 -57t-88 -16q-63 0 -112.5 28.5t-77.5 85t-28 138.5t28 138.5t77.5 85t112.5 28.5
q52 0 88 -16z" />
    <glyph glyph-name="d" unicode="d" horiz-adv-x="525" 
d="M373 0v58q-29 -36 -62 -50t-77 -14q-37 0 -68.5 11.5t-51.5 31.5q-34 34 -47 87.5t-13 121.5t13 121t47 88q20 20 51.5 31.5t68.5 11.5q44 0 77 -14t62 -50v278h72v-712h-72zM151 383.5q-25 -50.5 -25 -137.5t25 -137.5t98 -50.5q74 0 99 50.5t25 137.5t-25 137.5
t-99 50.5q-73 0 -98 -50.5z" />
    <glyph glyph-name="e" unicode="e" 
d="M403.5 434.5q53.5 -63.5 53.5 -175.5v-32h-332q0 -82 37 -126t108 -44q42 0 70.5 13t58.5 43l49 -43q-40 -40 -80 -58t-100 -18q-102 0 -158.5 62.5t-56.5 189.5q0 119 54 185.5t148 66.5q95 0 148.5 -63.5zM186 417q-30 -20 -46 -54q-8 -18 -10.5 -33t-4.5 -49h261
q-3 35 -5.5 49.5t-10.5 32.5q-16 34 -46 54t-69 20t-69 -20z" />
    <glyph glyph-name="f" unicode="f" horiz-adv-x="294" 
d="M234 651q-66 0 -66 -72v-87h105v-55h-105v-437h-72v437h-63v55h63v89q0 58 32.5 95t92.5 37h52v-62h-39z" />
    <glyph glyph-name="g" unicode="g" horiz-adv-x="523" 
d="M311 484.5q33 -13.5 61 -50.5v58h71v-507q0 -61 -24.5 -109t-71 -75t-109.5 -27q-54 0 -90.5 15t-76.5 51l47 46q30 -27 54 -38t64 -11q68 0 101.5 42t33.5 109v77q-28 -36 -61.5 -50t-76.5 -14q-36 0 -67.5 12t-51.5 32q-34 34 -47 85.5t-13 119.5t13 119.5t47 85.5
q20 20 51.5 31.5t68.5 11.5q44 0 77 -13.5zM151 384q-25 -50 -25 -134t25 -134t98 -50t97.5 50t24.5 134t-24.5 134t-97.5 50t-98 -50z" />
    <glyph glyph-name="h" unicode="h" horiz-adv-x="542" 
d="M290 498q81 0 127 -46q50 -49 50 -138v-314h-72v303q0 64 -31.5 97.5t-88.5 33.5t-90 -34t-33 -97v-303h-72v712h72v-275q54 61 138 61z" />
    <glyph glyph-name="i" unicode="i" horiz-adv-x="233" 
d="M151 711.5q15 -14.5 15 -34.5t-15 -34.5t-35 -14.5t-34.5 14.5t-14.5 34.5t14.5 34.5t34.5 14.5t35 -14.5zM80 0v492h72v-492h-72z" />
    <glyph glyph-name="j" unicode="j" horiz-adv-x="233" 
d="M151 711.5q15 -14.5 15 -34.5t-15 -34.5t-35 -14.5t-34.5 14.5t-14.5 34.5t14.5 34.5t34.5 14.5t35 -14.5zM120.5 -184.5q-31.5 -36.5 -93.5 -36.5h-52v63h39q36 0 51 17.5t15 54.5v578h72v-581q0 -59 -31.5 -95.5z" />
    <glyph glyph-name="k" unicode="k" horiz-adv-x="516" 
d="M374 492h90l-167 -188l196 -304h-89l-156 252l-96 -110v-142h-72v712h72v-476z" />
    <glyph glyph-name="l" unicode="l" horiz-adv-x="277" 
d="M165 79.5q15 -17.5 51 -17.5h39v-62h-52q-62 0 -93.5 36t-31.5 95v581h72v-578q0 -37 15 -54.5z" />
    <glyph glyph-name="m" unicode="m" horiz-adv-x="859" 
d="M731 452q53 -51 53 -137v-315h-72v303q0 64 -32 97.5t-89 33.5q-55 0 -89 -33t-34 -90v-311h-72v303q0 64 -32 97.5t-89 33.5t-90 -34t-33 -97v-303h-72v492h72v-54q26 30 61.5 45t77.5 15q51 0 90 -21t61 -61q58 82 162 82q79 0 127 -46z" />
    <glyph glyph-name="n" unicode="n" horiz-adv-x="543" 
d="M417 452q51 -50 51 -138v-314h-72v303q0 64 -32 97.5t-89 33.5t-90 -34t-33 -97v-303h-72v492h71v-55q26 30 62 45.5t77 15.5q81 0 127 -46z" />
    <glyph glyph-name="o" unicode="o" 
d="M396 442q35 -35 47.5 -83t12.5 -113t-12.5 -113t-47.5 -83q-54 -56 -141 -56t-141 56q-35 35 -47.5 83t-12.5 113t12.5 113t47.5 83q54 56 141 56t141 -56zM166 398q-24 -24 -32 -62t-8 -90q0 -53 7.5 -90t32.5 -62q36 -36 89 -36q54 0 90 36q24 25 31.5 62.5t7.5 89.5
q0 53 -7.5 90.5t-31.5 61.5q-36 36 -90 36q-53 0 -89 -36z" />
    <glyph glyph-name="p" unicode="p" horiz-adv-x="525" 
d="M359.5 486.5q31.5 -11.5 51.5 -31.5q34 -34 47 -87.5t13 -121.5t-13 -121t-47 -88q-20 -20 -51.5 -31.5t-68.5 -11.5q-44 0 -77 14t-62 50v-278h-72v712h72v-58q29 36 62 50t77 14q37 0 68.5 -11.5zM177.5 383.5q-25.5 -50.5 -25.5 -137.5t25.5 -137.5t98.5 -50.5
t98 50.5t25 137.5t-25 137.5t-98 50.5t-98.5 -50.5z" />
    <glyph glyph-name="q" unicode="q" horiz-adv-x="525" 
d="M311 484q33 -14 62 -51v59h72v-712h-72v277q-29 -36 -62 -49.5t-77 -13.5q-37 0 -68.5 11.5t-51.5 31.5q-34 34 -47 87.5t-13 121.5t13 121t47 88q20 20 51.5 31.5t68.5 11.5q44 0 77 -14zM151 383.5q-25 -50.5 -25 -137.5t25 -137.5t98 -50.5q74 0 99 50.5t25 137.5
t-25 137.5t-99 50.5q-73 0 -98 -50.5z" />
    <glyph glyph-name="r" unicode="r" horiz-adv-x="401" 
d="M355 487.5q28 -10.5 53 -35.5l-53 -54q-20 20 -38.5 28t-46.5 8q-53 0 -85.5 -37.5t-32.5 -94.5v-302h-72v492h72v-60q20 31 57.5 48.5t80.5 17.5q37 0 65 -10.5z" />
    <glyph glyph-name="s" unicode="s" horiz-adv-x="476" 
d="M413 445l-47 -47q-51 39 -131 39q-53 0 -81.5 -21t-28.5 -60q0 -33 21 -50t67 -22l77 -7q70 -7 107.5 -37t37.5 -96q0 -70 -54.5 -110t-145.5 -40q-65 0 -114 16.5t-88 54.5l48 48q54 -57 153 -57q63 0 97 22t34 65q0 33 -19.5 50.5t-62.5 21.5l-81 7q-147 12 -147 132
q0 66 50 105t131 39q111 0 177 -53z" />
    <glyph glyph-name="t" unicode="t" horiz-adv-x="312" 
d="M269 492v-55h-105v-303q0 -72 67 -72h38v-62h-51q-61 0 -93.5 37t-32.5 95v305h-62v55h62v151h72v-151h105z" />
    <glyph glyph-name="u" unicode="u" horiz-adv-x="543" 
d="M392 0v55q-26 -30 -62 -45.5t-77 -15.5q-81 0 -127 46q-51 50 -51 138v314h72v-303q0 -64 32 -97.5t89 -33.5t90 34t33 97v303h72v-492h-71z" />
    <glyph glyph-name="v" unicode="v" horiz-adv-x="427" 
d="M79 492l135 -395l134 395h78l-181 -492h-64l-180 492h78z" />
    <glyph glyph-name="w" unicode="w" horiz-adv-x="704" 
d="M79 492l114 -395l128 395h63l127 -395l114 395h78l-156 -492h-67l-128 401l-128 -401h-66l-157 492h78z" />
    <glyph glyph-name="x" unicode="x" horiz-adv-x="458" 
d="M435 0h-87l-118 191l-120 -191h-87l167 251l-160 241h87l113 -182l111 182h87l-160 -241z" />
    <glyph glyph-name="y" unicode="y" horiz-adv-x="427" 
d="M164 -186q-35 -34 -96 -34h-31v64h22q36 0 52.5 13t28.5 48l38 105l-177 482h78l135 -395l134 395h78l-227 -620q-14 -39 -35 -58z" />
    <glyph glyph-name="z" unicode="z" horiz-adv-x="439" 
d="M312 428h-257v64h342v-59l-273 -369h273v-64h-357v59z" />
    <glyph glyph-name="braceleft" unicode="{" horiz-adv-x="339" 
d="M275 722q-26 0 -39 -3t-20 -10q-8 -8 -11 -22.5t-3 -42.5v-188q0 -40 -16 -62.5t-47 -37.5q31 -15 47 -37.5t16 -62.5v-188q0 -28 3 -42.5t11 -22.5q7 -7 20 -10t39 -3h23v-64h-37q-37 0 -61 7t-40 23q-17 17 -23.5 38.5t-6.5 60.5v191q0 42 -18 60t-45 18h-26v64h26
q27 0 45 18t18 60v191q0 39 6.5 60.5t23.5 38.5q16 16 40 23t61 7h37v-64h-23z" />
    <glyph glyph-name="bar" unicode="|" horiz-adv-x="306" 
d="M117 -74v860h72v-860h-72z" />
    <glyph glyph-name="braceright" unicode="}" horiz-adv-x="339" 
d="M139 779q24 -7 40 -23q17 -17 23.5 -38.5t6.5 -60.5v-191q0 -42 18 -60t45 -18h26v-64h-26q-27 0 -45 -18t-18 -60v-191q0 -39 -6.5 -60.5t-23.5 -38.5q-16 -16 -40 -23t-61 -7h-37v64h23q26 0 39 3t20 10q8 8 11 22.5t3 42.5v188q0 40 16 62.5t47 37.5q-31 15 -47 37.5
t-16 62.5v188q0 28 -3 42.5t-11 22.5q-7 7 -20 10t-39 3h-23v64h37q37 0 61 -7z" />
    <glyph glyph-name="asciitilde" unicode="~" horiz-adv-x="519" 
d="M214.5 324.5q22.5 -7.5 58.5 -23.5q27 -13 43.5 -18.5t34.5 -5.5q22 0 39 8.5t45 36.5l45 -45q-41 -41 -67.5 -54.5t-61.5 -13.5q-24 0 -47.5 7.5t-58.5 23.5q-27 13 -43.5 18.5t-34.5 5.5q-22 0 -39 -8.5t-45 -36.5l-44 45q41 41 67.5 54.5t61.5 13.5q24 0 46.5 -7.5z
" />
    <glyph glyph-name="uni00A0" unicode="&#xa0;" horiz-adv-x="229" 
 />
    <glyph glyph-name="exclamdown" unicode="&#xa1;" horiz-adv-x="296" 
d="M168 480.5q15 -14.5 15 -35.5t-15 -35.5t-36 -14.5t-35.5 14.5t-14.5 35.5t14.5 35.5t35.5 14.5t36 -14.5zM90 -220l13 512h58l13 -512h-84z" />
    <glyph glyph-name="cent" unicode="&#xa2;" horiz-adv-x="476" 
d="M371.5 597q33.5 -17 67.5 -54l-49 -46q-25 28 -47.5 40.5t-52.5 14.5v-372q30 2 52.5 14.5t47.5 40.5l49 -46q-34 -37 -67.5 -54t-77.5 -20v-115h-59v117q-84 12 -132.5 77.5t-48.5 171.5t48.5 171.5t132.5 77.5v97h59v-95q44 -3 77.5 -20zM159 498q-17 -24 -25 -55
t-8 -77t8 -77t25 -55q31 -43 80 -52v368q-49 -9 -80 -52z" />
    <glyph glyph-name="sterling" unicode="&#xa3;" horiz-adv-x="528" 
d="M413.5 702.5q39.5 -15.5 72.5 -48.5l-52 -51q-24 24 -47.5 35.5t-63.5 11.5q-71 0 -109 -42.5t-38 -121.5v-102h147v-54h-147v-262h310v-68h-386v330h-63v54h63v112q0 67 28.5 117.5t79 77.5t115.5 27q51 0 90.5 -15.5z" />
    <glyph glyph-name="currency" unicode="&#xa4;" horiz-adv-x="639" 
d="M498 403q45 -59 45 -132q0 -75 -45 -134l73 -73l-46 -46l-74 73q-58 -42 -131 -42q-36 0 -70.5 11t-61.5 31l-74 -73l-46 46l74 73q-46 60 -46 134q0 71 45 132l-73 72l46 46l73 -72q27 21 61.5 32t71.5 11q36 0 70.5 -11.5t61.5 -31.5l73 72l46 -46zM243.5 407
q-35.5 -21 -56 -57t-20.5 -79q0 -44 20.5 -80t56 -57t76.5 -21t76 21t56 57t21 80q0 43 -21 79t-56 57t-76 21t-76.5 -21z" />
    <glyph glyph-name="yen" unicode="&#xa5;" horiz-adv-x="494" 
d="M55 195v50h154v49l-25 49h-129v50h104l-161 319h82l169 -341l165 341h82l-162 -319h105v-50h-130l-24 -49v-49h154v-50h-154v-195h-76v195h-154z" />
    <glyph glyph-name="brokenbar" unicode="&#xa6;" horiz-adv-x="306" 
d="M117 436v350h72v-350h-72zM117 -74v350h72v-350h-72z" />
    <glyph glyph-name="section" unicode="&#xa7;" horiz-adv-x="537" 
d="M398 675.5q50 -42.5 53 -114.5h-72q-7 93 -110 93q-51 0 -79.5 -25.5t-28.5 -73.5q0 -72 84 -96l78 -22q65 -19 101 -67t36 -116q0 -57 -30 -99.5t-74 -64.5q44 -16 70.5 -53.5t26.5 -90.5q0 -51 -24.5 -90t-66.5 -60.5t-93 -21.5q-78 0 -131.5 42t-57.5 119h73
q4 -46 34.5 -70.5t81.5 -24.5q52 0 81.5 27.5t29.5 77.5q0 35 -23.5 62.5t-64.5 39.5l-78 22q-66 19 -101.5 66.5t-35.5 116.5q0 58 30 100t75 64q-46 21 -69.5 53.5t-23.5 84.5q0 48 23 85t64 58t93 21q79 0 129 -42.5zM183 345q-17 -19 -25 -40.5t-8 -51.5q0 -56 33 -92
t86 -36t86 36q32 35 32 92q0 30 -7 52t-25 40q-36 36 -86 36q-53 0 -86 -36z" />
    <glyph glyph-name="dieresis" unicode="&#xa8;" 
d="M181 677.5q13 -13.5 13 -32.5t-13 -32t-32 -13t-32 13t-13 32t13 32.5t32 13.5t32 -13.5zM393 677.5q13 -13.5 13 -32.5t-13 -32t-32 -13t-32 13t-13 32t13 32.5t32 13.5t32 -13.5z" />
    <glyph glyph-name="copyright" unicode="&#xa9;" horiz-adv-x="856" 
d="M246.5 42.5q-83.5 48.5 -132 132t-48.5 181.5t48.5 181.5t132 132t181.5 48.5t181.5 -48.5t132 -132t48.5 -181.5t-48.5 -181.5t-132 -132t-181.5 -48.5t-181.5 48.5zM580.5 89.5q69.5 41.5 110.5 112.5t41 154t-41 154t-110.5 112.5t-152.5 41.5t-152.5 -41.5
t-110.5 -112.5t-41 -154t41 -154t110.5 -112.5t152.5 -41.5t152.5 41.5zM302 209.5q-47 56.5 -47 146.5t47 147t131 57q41 0 70.5 -12.5t60.5 -40.5l-37 -36q-25 22 -45.5 30.5t-48.5 8.5q-64 0 -95 -46q-27 -40 -27 -108t27 -108q31 -45 95 -45q28 0 49 8.5t45 29.5l37 -36
q-29 -27 -59.5 -39.5t-71.5 -12.5q-84 0 -131 56.5z" />
    <glyph glyph-name="ordfeminine" unicode="&#xaa;" horiz-adv-x="429" 
d="M297 355q-23 -23 -48 -32t-63 -9q-40 0 -65.5 8.5t-44.5 27.5q-30 32 -30 79q0 53 35.5 83.5t99.5 30.5h115v36q0 43 -22.5 63.5t-74.5 20.5q-37 0 -58.5 -9.5t-39.5 -34.5l-41 37q26 33 58.5 46.5t81.5 13.5q78 0 116.5 -33.5t38.5 -98.5v-265h-58v36zM189 498
q-84 0 -84 -67q0 -33 20.5 -49t65.5 -16q30 0 50 4.5t36 20.5q19 18 19 67v40h-107z" />
    <glyph glyph-name="guillemotleft" unicode="&#xab;" horiz-adv-x="534" 
d="M120 270l120 -121v-89l-210 210l210 210v-90zM345 270l121 -121v-89l-210 210l210 210v-90z" />
    <glyph glyph-name="logicalnot" unicode="&#xac;" horiz-adv-x="502" 
d="M394 99v137h-353v67h420v-204h-67z" />
    <glyph glyph-name="registered" unicode="&#xae;" horiz-adv-x="856" 
d="M246.5 42.5q-83.5 48.5 -132 132t-48.5 181.5t48.5 181.5t132 132t181.5 48.5t181.5 -48.5t132 -132t48.5 -181.5t-48.5 -181.5t-132 -132t-181.5 -48.5t-181.5 48.5zM581 88.5q70 41.5 111 112.5t41 155t-41 155t-111 112.5t-153 41.5t-152.5 -41.5t-110.5 -112.5
t-41 -155t41 -155t110.5 -112.5t152.5 -41.5t153 41.5zM445 555q52 0 88.5 -34.5t36.5 -84.5q0 -42 -23 -69.5t-62 -39.5l95 -169h-64l-91 162h-60v-162h-55v397h135zM493 386.5q21 19.5 21 49.5t-21 50t-54 20h-74v-139h74q33 0 54 19.5z" />
    <glyph glyph-name="macron" unicode="&#xaf;" 
d="M105 614v56h301v-56h-301z" />
    <glyph glyph-name="degree" unicode="&#xb0;" horiz-adv-x="377" 
d="M124.5 243.5q-29.5 17.5 -47 47t-17.5 64.5q0 34 17.5 63.5t47 47t64.5 17.5q34 0 63.5 -17.5t47 -47t17.5 -63.5q0 -35 -17.5 -64.5t-47 -47t-63.5 -17.5q-35 0 -64.5 17.5z" />
    <glyph glyph-name="plusminus" unicode="&#xb1;" horiz-adv-x="502" 
d="M460 356v-67h-175v-177h-67v177h-176v67h176v175h67v-175h175zM42 0v67h418v-67h-418z" />
    <glyph glyph-name="uni00B2" unicode="&#xb2;" horiz-adv-x="201" 
d="M127 597q18 19 18 45q0 17 -11.5 28.5t-30.5 11.5q-40 0 -43 -43h-43q2 37 26 58.5t60 21.5q37 0 60.5 -22t23.5 -55q0 -18 -7 -33.5t-23 -32.5l-91 -105h115v-37h-164v37z" />
    <glyph glyph-name="uni00B3" unicode="&#xb3;" horiz-adv-x="201" 
d="M34 452q-25 21 -27 59h43q1 -18 14.5 -29.5t31.5 -11.5q21 0 34 13t13 35t-13.5 33.5t-34.5 11.5h-9v33h9q19 0 31 11t12 30q0 20 -11.5 31t-30.5 11q-17 0 -28 -10t-14 -28h-43q4 37 26 57.5t59 20.5q38 0 61.5 -22t23.5 -55q0 -46 -39 -61q20 -9 32 -26t12 -42
q0 -37 -25 -59.5t-65 -22.5q-37 0 -62 21z" />
    <glyph glyph-name="acute" unicode="&#xb4;" 
d="M224 594l91 153h83l-105 -153h-69z" />
    <glyph glyph-name="uni00B5" unicode="&#xb5;" horiz-adv-x="548" 
d="M152 492v-303q0 -64 32 -97.5t89 -33.5t90 34t33 97v303h72v-492h-71v55q-52 -60 -135 -60q-72 0 -110 42v-257h-72v712h72z" />
    <glyph glyph-name="paragraph" unicode="&#xb6;" horiz-adv-x="583" 
d="M418 -220v864h-117v-864h-72v546q-58 0 -103 27t-69.5 71t-24.5 94q0 54 26 98t75 70t116 26h241v-932h-72z" />
    <glyph glyph-name="periodcentered" unicode="&#xb7;" horiz-adv-x="252" 
d="M166 309.5q17 -16.5 17 -39.5t-17 -40t-40 -17t-40 17t-17 40t17 39.5t40 16.5t40 -16.5z" />
    <glyph glyph-name="cedilla" unicode="&#xb8;" 
d="M315.5 -73q20.5 -20 20.5 -47q0 -38 -27 -58.5t-71 -20.5q-46 0 -88 18l13 52q40 -17 71 -17q19 0 30.5 6.5t11.5 19.5q0 33 -85 41l33 92h51l-20 -57q40 -9 60.5 -29z" />
    <glyph glyph-name="uni00B9" unicode="&#xb9;" horiz-adv-x="210" 
d="M40 615v50l60 51h43v-282h-43v232z" />
    <glyph glyph-name="ordmasculine" unicode="&#xba;" horiz-adv-x="434" 
d="M367 425q-10 -38 -38 -66q-44 -44 -112 -44t-112 44q-28 28 -38 66t-10 90q0 51 10 89.5t38 66.5q45 45 112 45t112 -45q28 -28 38 -66.5t10 -89.5q0 -52 -10 -90zM312 585.5q-6 29.5 -25 48.5q-28 28 -70 28t-70 -28q-19 -19 -24.5 -48t-5.5 -71q0 -41 5.5 -70t24.5 -48
q29 -29 70 -29t70 29q19 19 25 48.5t6 69.5q0 41 -6 70.5z" />
    <glyph glyph-name="guillemotright" unicode="&#xbb;" horiz-adv-x="534" 
d="M68 60v90l121 120l-121 121v89l210 -210zM294 60v90l120 120l-120 121v89l210 -210z" />
    <glyph glyph-name="onequarter" unicode="&#xbc;" horiz-adv-x="826" 
d="M65 575v66l83 71h57v-427h-57v363zM609 712l-333 -712h-60l333 712h60zM534 66v50l151 311h57l-150 -311h111v107h55v-107h49v-50h-49v-66h-55v66h-169z" />
    <glyph glyph-name="onehalf" unicode="&#xbd;" horiz-adv-x="830" 
d="M65 575v66l83 71h57v-427h-57v363zM609 712l-333 -712h-60l333 712h60zM721 254q14 16 19.5 29.5t5.5 33.5q0 28 -19.5 45t-52.5 17q-32 0 -51.5 -16t-19.5 -51h-56q0 54 34.5 86.5t92.5 32.5t93 -31t35 -83q0 -30 -9 -49.5t-33 -46.5l-149 -169h192v-52h-257v52z" />
    <glyph glyph-name="threequarters" unicode="&#xbe;" horiz-adv-x="832" 
d="M56 311.5q-39 30.5 -41 88.5h58q1 -35 23.5 -51.5t56.5 -16.5t56.5 20t22.5 53q0 35 -21 54t-61 19h-10v51h10q36 0 55.5 18t19.5 49q0 32 -21 50.5t-52 18.5q-32 0 -51.5 -17t-22.5 -47h-57q4 53 40.5 84t90.5 31q58 0 94 -32.5t36 -86.5q0 -34 -15 -56t-45 -35
q67 -26 67 -101q0 -59 -38.5 -91.5t-97.5 -32.5q-58 0 -97 30.5zM615 712l-333 -712h-60l333 712h60zM540 66v50l151 311h57l-150 -311h111v107h55v-107h49v-50h-49v-66h-55v66h-169z" />
    <glyph glyph-name="questiondown" unicode="&#xbf;" horiz-adv-x="477" 
d="M253.5 480.5q14.5 -14.5 14.5 -35.5t-14.5 -35.5t-35.5 -14.5t-35.5 14.5t-14.5 35.5t14.5 35.5t35.5 14.5t35.5 -14.5zM245.5 202.5q-7.5 -21.5 -23.5 -44.5l-81 -117q-17 -25 -25 -43.5t-8 -41.5q0 -51 32.5 -84.5t82.5 -33.5q52 0 84 35t32 84h72q0 -50 -24.5 -92
t-67.5 -66.5t-96 -24.5q-52 0 -95 23.5t-67.5 65t-24.5 93.5q0 33 11.5 61t33.5 60l82 118q9 13 13.5 29t4.5 29v39h72v-40q0 -28 -7.5 -49.5z" />
    <glyph glyph-name="Agrave" unicode="&#xc0;" horiz-adv-x="591" 
d="M488 0l-57 161h-311l-57 -161h-81l262 712h64l261 -712h-81zM408 227l-132 377l-133 -377h265zM248 780l-105 153h83l91 -153h-69z" />
    <glyph glyph-name="Aacute" unicode="&#xc1;" horiz-adv-x="591" 
d="M488 0l-57 161h-311l-57 -161h-81l262 712h64l261 -712h-81zM408 227l-132 377l-133 -377h265zM236 780l91 153h83l-105 -153h-69z" />
    <glyph glyph-name="Acircumflex" unicode="&#xc2;" horiz-adv-x="591" 
d="M488 0l-57 161h-311l-57 -161h-81l262 712h64l261 -712h-81zM408 227l-132 377l-133 -377h265zM367 780l-91 104l-90 -104h-69l125 153h68l126 -153h-69z" />
    <glyph glyph-name="Atilde" unicode="&#xc3;" horiz-adv-x="591" 
d="M488 0l-57 161h-311l-57 -161h-81l262 712h64l261 -712h-81zM408 227l-132 377l-133 -377h265zM247.5 887.5q15.5 -5.5 35.5 -18.5q19 -11 30.5 -15.5t25.5 -4.5t26 5.5t33 26.5l37 -36q-30 -31 -52 -41t-43 -10q-19 0 -34.5 5.5t-36.5 18.5q-17 10 -29.5 15t-26.5 5
q-15 0 -26.5 -5.5t-32.5 -26.5l-37 36q31 31 52 41t43 10q20 0 35.5 -5.5z" />
    <glyph glyph-name="Adieresis" unicode="&#xc4;" horiz-adv-x="591" 
d="M488 0l-57 161h-311l-57 -161h-81l262 712h64l261 -712h-81zM408 227l-132 377l-133 -377h265zM202 864.5q13 -13.5 13 -32.5t-13 -32t-32 -13t-32 13t-13 32t13 32.5t32 13.5t32 -13.5zM414 864.5q13 -13.5 13 -32.5t-13 -32t-32 -13t-32 13t-13 32t13 32.5t32 13.5
t32 -13.5z" />
    <glyph glyph-name="Aring" unicode="&#xc5;" horiz-adv-x="591" 
d="M488 0l-57 161h-311l-57 -161h-81l262 712h64l261 -712h-81zM408 227l-132 377l-133 -377h265zM359.5 952.5q34.5 -34.5 34.5 -83.5t-34.5 -84t-83.5 -35t-83.5 35t-34.5 84t34.5 83.5t83.5 34.5t83.5 -34.5zM227 917q-20 -20 -20 -48t20.5 -48.5t48.5 -20.5
q29 0 49 20.5t20 48.5t-20 48t-49 20t-49 -20z" />
    <glyph glyph-name="AE" unicode="&#xc6;" horiz-adv-x="907" 
d="M496 644v-251h312v-68h-312v-257h366v-68h-442v169h-247l-88 -169h-83l376 712h484v-68h-366zM420 235v409l-214 -409h214z" />
    <glyph glyph-name="Ccedilla" unicode="&#xc7;" horiz-adv-x="617" 
d="M457.5 662q65.5 -56 84.5 -156h-78q-14 67 -58.5 105.5t-110.5 38.5q-73 0 -123 -50q-22 -23 -32.5 -51t-14 -70.5t-3.5 -122.5t3.5 -122.5t14 -70.5t32.5 -51q50 -50 123 -50q66 0 110.5 38.5t58.5 105.5h78q-19 -99 -85 -155.5t-162 -56.5q-108 0 -178 70
q-33 33 -48 68.5t-19 83.5t-4 140t4 140t19 83.5t48 68.5q70 70 178 70q97 0 162.5 -56zM359.5 -73q20.5 -20 20.5 -47q0 -38 -27 -58.5t-71 -20.5q-46 0 -88 18l13 52q40 -17 71 -17q19 0 30.5 6.5t11.5 19.5q0 33 -85 41l33 92h51l-20 -57q40 -9 60.5 -29z" />
    <glyph glyph-name="Egrave" unicode="&#xc8;" horiz-adv-x="580" 
d="M149 644v-251h312v-68h-312v-257h366v-68h-442v712h442v-68h-366zM253 780l-105 153h83l91 -153h-69z" />
    <glyph glyph-name="Eacute" unicode="&#xc9;" horiz-adv-x="580" 
d="M149 644v-251h312v-68h-312v-257h366v-68h-442v712h442v-68h-366zM241 780l91 153h83l-105 -153h-69z" />
    <glyph glyph-name="Ecircumflex" unicode="&#xca;" horiz-adv-x="580" 
d="M149 644v-251h312v-68h-312v-257h366v-68h-442v712h442v-68h-366zM372 780l-91 104l-90 -104h-69l125 153h68l126 -153h-69z" />
    <glyph glyph-name="Edieresis" unicode="&#xcb;" horiz-adv-x="580" 
d="M149 644v-251h312v-68h-312v-257h366v-68h-442v712h442v-68h-366zM207 864.5q13 -13.5 13 -32.5t-13 -32t-32 -13t-32 13t-13 32t13 32.5t32 13.5t32 -13.5zM419 864.5q13 -13.5 13 -32.5t-13 -32t-32 -13t-32 13t-13 32t13 32.5t32 13.5t32 -13.5z" />
    <glyph glyph-name="Igrave" unicode="&#xcc;" horiz-adv-x="262" 
d="M73 0v712h76v-712h-76zM82 780l-105 153h83l91 -153h-69z" />
    <glyph glyph-name="Iacute" unicode="&#xcd;" horiz-adv-x="262" 
d="M73 0v712h76v-712h-76zM70 780l91 153h83l-105 -153h-69z" />
    <glyph glyph-name="Icircumflex" unicode="&#xce;" horiz-adv-x="262" 
d="M73 0v712h76v-712h-76zM201 780l-91 104l-90 -104h-69l125 153h68l126 -153h-69z" />
    <glyph glyph-name="Idieresis" unicode="&#xcf;" horiz-adv-x="262" 
d="M73 0v712h76v-712h-76zM36 864.5q13 -13.5 13 -32.5t-13 -32t-32 -13t-32 13t-13 32t13 32.5t32 13.5t32 -13.5zM248 864.5q13 -13.5 13 -32.5t-13 -32t-32 -13t-32 13t-13 32t13 32.5t32 13.5t32 -13.5z" />
    <glyph glyph-name="Eth" unicode="&#xd0;" horiz-adv-x="667" 
d="M456.5 694q45.5 -18 81.5 -57q29 -32 43 -75t17 -88.5t3 -117.5q0 -105 -11 -170.5t-52 -110.5q-36 -39 -81.5 -57t-105.5 -18h-244v330h-78v59h78v323h244q60 0 105.5 -18zM183 389h162v-59h-162v-262h155q93 0 140 52q31 33 39 87t8 149t-8 149t-39 87q-47 52 -140 52
h-155v-255z" />
    <glyph glyph-name="Ntilde" unicode="&#xd1;" horiz-adv-x="712" 
d="M527 0l-378 571v-571h-76v712h72l378 -569v569h76v-712h-72zM307.5 887.5q15.5 -5.5 35.5 -18.5q19 -11 30.5 -15.5t25.5 -4.5t26 5.5t33 26.5l37 -36q-30 -31 -52 -41t-43 -10q-19 0 -34.5 5.5t-36.5 18.5q-17 10 -29.5 15t-26.5 5q-15 0 -26.5 -5.5t-32.5 -26.5l-37 36
q31 31 52 41t43 10q20 0 35.5 -5.5z" />
    <glyph glyph-name="Ograve" unicode="&#xd2;" horiz-adv-x="630" 
d="M472 648q33 -33 48 -68.5t19.5 -84t4.5 -139.5t-4.5 -139.5t-19.5 -84t-48 -68.5q-70 -70 -177 -70q-108 0 -178 70q-33 33 -48 68.5t-19 83.5t-4 140t4 140t19 83.5t48 68.5q70 70 178 70q107 0 177 -70zM172 600q-22 -23 -32.5 -51t-14 -70.5t-3.5 -122.5t3.5 -122.5
t14 -70.5t32.5 -51q50 -50 123 -50t123 50q22 23 32.5 51t14 70.5t3.5 122.5t-3.5 122.5t-14 70.5t-32.5 51q-50 50 -123 50t-123 -50zM268 780l-105 153h83l91 -153h-69z" />
    <glyph glyph-name="Oacute" unicode="&#xd3;" horiz-adv-x="630" 
d="M472 648q33 -33 48 -68.5t19.5 -84t4.5 -139.5t-4.5 -139.5t-19.5 -84t-48 -68.5q-70 -70 -177 -70q-108 0 -178 70q-33 33 -48 68.5t-19 83.5t-4 140t4 140t19 83.5t48 68.5q70 70 178 70q107 0 177 -70zM172 600q-22 -23 -32.5 -51t-14 -70.5t-3.5 -122.5t3.5 -122.5
t14 -70.5t32.5 -51q50 -50 123 -50t123 50q22 23 32.5 51t14 70.5t3.5 122.5t-3.5 122.5t-14 70.5t-32.5 51q-50 50 -123 50t-123 -50zM255 780l91 153h83l-105 -153h-69z" />
    <glyph glyph-name="Ocircumflex" unicode="&#xd4;" horiz-adv-x="630" 
d="M472 648q33 -33 48 -68.5t19.5 -84t4.5 -139.5t-4.5 -139.5t-19.5 -84t-48 -68.5q-70 -70 -177 -70q-108 0 -178 70q-33 33 -48 68.5t-19 83.5t-4 140t4 140t19 83.5t48 68.5q70 70 178 70q107 0 177 -70zM172 600q-22 -23 -32.5 -51t-14 -70.5t-3.5 -122.5t3.5 -122.5
t14 -70.5t32.5 -51q50 -50 123 -50t123 50q22 23 32.5 51t14 70.5t3.5 122.5t-3.5 122.5t-14 70.5t-32.5 51q-50 50 -123 50t-123 -50zM386 780l-91 104l-90 -104h-69l125 153h68l126 -153h-69z" />
    <glyph glyph-name="Otilde" unicode="&#xd5;" horiz-adv-x="630" 
d="M472 648q33 -33 48 -68.5t19.5 -84t4.5 -139.5t-4.5 -139.5t-19.5 -84t-48 -68.5q-70 -70 -177 -70q-108 0 -178 70q-33 33 -48 68.5t-19 83.5t-4 140t4 140t19 83.5t48 68.5q70 70 178 70q107 0 177 -70zM172 600q-22 -23 -32.5 -51t-14 -70.5t-3.5 -122.5t3.5 -122.5
t14 -70.5t32.5 -51q50 -50 123 -50t123 50q22 23 32.5 51t14 70.5t3.5 122.5t-3.5 122.5t-14 70.5t-32.5 51q-50 50 -123 50t-123 -50zM266.5 887.5q15.5 -5.5 35.5 -18.5q19 -11 30.5 -15.5t25.5 -4.5t26 5.5t33 26.5l37 -36q-30 -31 -52 -41t-43 -10q-19 0 -34.5 5.5
t-36.5 18.5q-17 10 -29.5 15t-26.5 5q-15 0 -26.5 -5.5t-32.5 -26.5l-37 36q31 31 52 41t43 10q20 0 35.5 -5.5z" />
    <glyph glyph-name="Odieresis" unicode="&#xd6;" horiz-adv-x="630" 
d="M472 648q33 -33 48 -68.5t19.5 -84t4.5 -139.5t-4.5 -139.5t-19.5 -84t-48 -68.5q-70 -70 -177 -70q-108 0 -178 70q-33 33 -48 68.5t-19 83.5t-4 140t4 140t19 83.5t48 68.5q70 70 178 70q107 0 177 -70zM172 600q-22 -23 -32.5 -51t-14 -70.5t-3.5 -122.5t3.5 -122.5
t14 -70.5t32.5 -51q50 -50 123 -50t123 50q22 23 32.5 51t14 70.5t3.5 122.5t-3.5 122.5t-14 70.5t-32.5 51q-50 50 -123 50t-123 -50zM221 864.5q13 -13.5 13 -32.5t-13 -32t-32 -13t-32 13t-13 32t13 32.5t32 13.5t32 -13.5zM433 864.5q13 -13.5 13 -32.5t-13 -32t-32 -13
t-32 13t-13 32t13 32.5t32 13.5t32 -13.5z" />
    <glyph glyph-name="multiply" unicode="&#xd7;" horiz-adv-x="502" 
d="M295 270l152 -151l-45 -45l-151 151l-151 -151l-45 45l151 151l-151 151l45 45l151 -152l151 152l45 -45z" />
    <glyph glyph-name="Oslash" unicode="&#xd8;" horiz-adv-x="630" 
d="M560 216q-4 -47 -19 -82.5t-49 -69.5q-70 -70 -177 -70q-70 0 -126 31l-33 -69h-65l50 104q-35 34 -50.5 70t-20 84t-4.5 142q0 92 4 140t19 83.5t48 68.5q70 70 178 70q74 0 125 -31l34 69h65l-50 -105q35 -34 51 -70.5t20 -83.5t4 -141q0 -93 -4 -140zM148.5 207
q6.5 -47 28.5 -77l234 492q-40 28 -96 28q-75 0 -123 -50q-22 -23 -32.5 -51t-14 -70.5t-3.5 -122.5q0 -102 6.5 -149zM481.5 504.5q-6.5 46.5 -28.5 77.5l-234 -492q42 -28 96 -28q73 0 123 50q22 23 32.5 51t14 70.5t3.5 122.5q0 102 -6.5 148.5z" />
    <glyph glyph-name="Ugrave" unicode="&#xd9;" horiz-adv-x="663" 
d="M528 110q-32 -55 -89 -85.5t-128 -30.5t-127.5 30.5t-88.5 85.5t-32 125v477h76v-471q0 -81 47 -130t125 -49t125.5 49t47.5 130v471h76v-477q0 -70 -32 -125zM284 780l-105 153h83l91 -153h-69z" />
    <glyph glyph-name="Uacute" unicode="&#xda;" horiz-adv-x="663" 
d="M528 110q-32 -55 -89 -85.5t-128 -30.5t-127.5 30.5t-88.5 85.5t-32 125v477h76v-471q0 -81 47 -130t125 -49t125.5 49t47.5 130v471h76v-477q0 -70 -32 -125zM272 780l91 153h83l-105 -153h-69z" />
    <glyph glyph-name="Ucircumflex" unicode="&#xdb;" horiz-adv-x="663" 
d="M528 110q-32 -55 -89 -85.5t-128 -30.5t-127.5 30.5t-88.5 85.5t-32 125v477h76v-471q0 -81 47 -130t125 -49t125.5 49t47.5 130v471h76v-477q0 -70 -32 -125zM403 780l-91 104l-90 -104h-69l125 153h68l126 -153h-69z" />
    <glyph glyph-name="Udieresis" unicode="&#xdc;" horiz-adv-x="663" 
d="M528 110q-32 -55 -89 -85.5t-128 -30.5t-127.5 30.5t-88.5 85.5t-32 125v477h76v-471q0 -81 47 -130t125 -49t125.5 49t47.5 130v471h76v-477q0 -70 -32 -125zM238 864.5q13 -13.5 13 -32.5t-13 -32t-32 -13t-32 13t-13 32t13 32.5t32 13.5t32 -13.5zM450 864.5
q13 -13.5 13 -32.5t-13 -32t-32 -13t-32 13t-13 32t13 32.5t32 13.5t32 -13.5z" />
    <glyph glyph-name="Yacute" unicode="&#xdd;" horiz-adv-x="494" 
d="M266 0h-76v294l-212 418h82l168 -341l166 341h82l-210 -418v-294zM187 780l91 153h83l-105 -153h-69z" />
    <glyph glyph-name="Thorn" unicode="&#xde;" horiz-adv-x="622" 
d="M358 568q65 0 115 -25.5t77.5 -73t27.5 -110.5t-27.5 -110.5t-77.5 -73t-115 -25.5h-189v-150h-76v712h76v-144h189zM169 218h182q69 0 110 36t41 105t-41 105t-110 36h-182v-282z" />
    <glyph glyph-name="germandbls" unicode="&#xdf;" horiz-adv-x="536" 
d="M419.5 676q53.5 -42 53.5 -124q0 -79 -63 -119q36 -18 50 -45t14 -75v-172q0 -67 -40 -105q-21 -19 -44.5 -27.5t-58.5 -8.5h-53v62h39q20 0 32.5 4.5t26.5 15.5q26 20 26 67v168q0 42 -21 62q-21 21 -60 21h-43v61h36q40 0 64 24.5t24 65.5q0 47 -31 75q-32 29 -95 29
q-64 0 -94 -35.5t-30 -99.5v-520h-72v523q0 93 53.5 144t147.5 51q85 0 138.5 -42z" />
    <glyph glyph-name="agrave" unicode="&#xe0;" horiz-adv-x="506" 
d="M362 456q49 -42 49 -122v-334h-72v47q-29 -29 -61 -41t-81 -12q-51 0 -82 10t-57 35q-18 18 -27.5 44t-9.5 56q0 66 44.5 104t126.5 38h147v47q0 55 -29.5 81.5t-96.5 26.5q-46 0 -73.5 -13t-50.5 -44l-49 45q31 42 71 58t103 16q99 0 148 -42zM91 140q0 -43 27.5 -63.5
t86.5 -20.5q36 0 61.5 6.5t47.5 26.5q25 24 25 85v53h-137q-111 0 -111 -87zM187 594l-105 153h83l91 -153h-69z" />
    <glyph glyph-name="aacute" unicode="&#xe1;" horiz-adv-x="506" 
d="M362 456q49 -42 49 -122v-334h-72v47q-29 -29 -61 -41t-81 -12q-51 0 -82 10t-57 35q-18 18 -27.5 44t-9.5 56q0 66 44.5 104t126.5 38h147v47q0 55 -29.5 81.5t-96.5 26.5q-46 0 -73.5 -13t-50.5 -44l-49 45q31 42 71 58t103 16q99 0 148 -42zM91 140q0 -43 27.5 -63.5
t86.5 -20.5q36 0 61.5 6.5t47.5 26.5q25 24 25 85v53h-137q-111 0 -111 -87zM191 594l91 153h83l-105 -153h-69z" />
    <glyph glyph-name="acircumflex" unicode="&#xe2;" horiz-adv-x="506" 
d="M362 456q49 -42 49 -122v-334h-72v47q-29 -29 -61 -41t-81 -12q-51 0 -82 10t-57 35q-18 18 -27.5 44t-9.5 56q0 66 44.5 104t126.5 38h147v47q0 55 -29.5 81.5t-96.5 26.5q-46 0 -73.5 -13t-50.5 -44l-49 45q31 42 71 58t103 16q99 0 148 -42zM91 140q0 -43 27.5 -63.5
t86.5 -20.5q36 0 61.5 6.5t47.5 26.5q25 24 25 85v53h-137q-111 0 -111 -87zM313 594l-91 104l-90 -104h-69l125 153h68l126 -153h-69z" />
    <glyph glyph-name="atilde" unicode="&#xe3;" horiz-adv-x="506" 
d="M362 456q49 -42 49 -122v-334h-72v47q-29 -29 -61 -41t-81 -12q-51 0 -82 10t-57 35q-18 18 -27.5 44t-9.5 56q0 66 44.5 104t126.5 38h147v47q0 55 -29.5 81.5t-96.5 26.5q-46 0 -73.5 -13t-50.5 -44l-49 45q31 42 71 58t103 16q99 0 148 -42zM91 140q0 -43 27.5 -63.5
t86.5 -20.5q36 0 61.5 6.5t47.5 26.5q25 24 25 85v53h-137q-111 0 -111 -87zM193.5 700.5q15.5 -5.5 35.5 -18.5q19 -11 30.5 -15.5t25.5 -4.5t26 5.5t33 26.5l37 -36q-30 -31 -52 -41t-43 -10q-19 0 -34.5 5.5t-36.5 18.5q-17 10 -29.5 15t-26.5 5q-15 0 -26.5 -5.5
t-32.5 -26.5l-37 36q31 31 52 41t43 10q20 0 35.5 -5.5z" />
    <glyph glyph-name="adieresis" unicode="&#xe4;" horiz-adv-x="506" 
d="M362 456q49 -42 49 -122v-334h-72v47q-29 -29 -61 -41t-81 -12q-51 0 -82 10t-57 35q-18 18 -27.5 44t-9.5 56q0 66 44.5 104t126.5 38h147v47q0 55 -29.5 81.5t-96.5 26.5q-46 0 -73.5 -13t-50.5 -44l-49 45q31 42 71 58t103 16q99 0 148 -42zM91 140q0 -43 27.5 -63.5
t86.5 -20.5q36 0 61.5 6.5t47.5 26.5q25 24 25 85v53h-137q-111 0 -111 -87zM148 677.5q13 -13.5 13 -32.5t-13 -32t-32 -13t-32 13t-13 32t13 32.5t32 13.5t32 -13.5zM360 677.5q13 -13.5 13 -32.5t-13 -32t-32 -13t-32 13t-13 32t13 32.5t32 13.5t32 -13.5z" />
    <glyph glyph-name="aring" unicode="&#xe5;" horiz-adv-x="506" 
d="M362 456q49 -42 49 -122v-334h-72v47q-29 -29 -61 -41t-81 -12q-51 0 -82 10t-57 35q-18 18 -27.5 44t-9.5 56q0 66 44.5 104t126.5 38h147v47q0 55 -29.5 81.5t-96.5 26.5q-46 0 -73.5 -13t-50.5 -44l-49 45q31 42 71 58t103 16q99 0 148 -42zM91 140q0 -43 27.5 -63.5
t86.5 -20.5q36 0 61.5 6.5t47.5 26.5q25 24 25 85v53h-137q-111 0 -111 -87zM305.5 770.5q34.5 -34.5 34.5 -83.5t-34.5 -84t-83.5 -35t-83.5 35t-34.5 84t34.5 83.5t83.5 34.5t83.5 -34.5zM173 735q-20 -20 -20 -48t20.5 -48.5t48.5 -20.5q29 0 49 20.5t20 48.5t-20 48
t-49 20t-49 -20z" />
    <glyph glyph-name="ae" unicode="&#xe6;" horiz-adv-x="817" 
d="M709.5 434q53.5 -64 53.5 -175v-32h-333q0 -82 37.5 -126t108.5 -44q42 0 70.5 13t57.5 43l50 -43q-40 -40 -81 -58t-101 -18q-121 0 -175 85q-32 -47 -73.5 -66t-106.5 -19q-50 0 -81.5 10t-57.5 35q-18 18 -27.5 44t-9.5 56q0 66 44.5 104t126.5 38h147v47
q0 55 -29.5 81.5t-96.5 26.5q-46 0 -73.5 -13t-50.5 -44l-49 45q31 42 71 58t103 16q132 0 173 -77q51 77 154 77q95 0 148.5 -64zM490 417q-31 -20 -44 -54q-8 -20 -11 -35t-5 -47h261q-2 32 -4.5 47.5t-10.5 34.5q-14 34 -45 54t-70 20q-40 0 -71 -20zM111 140
q0 -43 27.5 -63.5t86.5 -20.5q36 0 61.5 6.5t47.5 26.5q25 24 25 85v53h-137q-111 0 -111 -87z" />
    <glyph glyph-name="ccedilla" unicode="&#xe7;" horiz-adv-x="471" 
d="M340 482q36 -16 74 -57l-49 -46q-28 31 -53 43t-60 12q-75 0 -114 -56q-17 -24 -24.5 -54.5t-7.5 -77.5t7.5 -77.5t24.5 -54.5q39 -56 114 -56q35 0 60 12.5t53 43.5l49 -47q-38 -41 -74 -57t-88 -16q-63 0 -112.5 28.5t-77.5 85t-28 138.5t28 138.5t77.5 85t112.5 28.5
q52 0 88 -16zM308.5 -73q20.5 -20 20.5 -47q0 -38 -27 -58.5t-71 -20.5q-46 0 -88 18l13 52q40 -17 71 -17q19 0 30.5 6.5t11.5 19.5q0 33 -85 41l33 92h51l-20 -57q40 -9 60.5 -29z" />
    <glyph glyph-name="egrave" unicode="&#xe8;" 
d="M383.5 434.5q53.5 -63.5 53.5 -175.5v-32h-332q0 -82 37 -126t108 -44q42 0 70.5 13t58.5 43l49 -43q-40 -40 -80 -58t-100 -18q-102 0 -158.5 62.5t-56.5 189.5q0 119 54 185.5t148 66.5q95 0 148.5 -63.5zM166 417q-30 -20 -46 -54q-8 -18 -10.5 -33t-4.5 -49h261
q-3 35 -5.5 49.5t-10.5 32.5q-16 34 -46 54t-69 20t-69 -20zM200 594l-105 153h83l91 -153h-69z" />
    <glyph glyph-name="eacute" unicode="&#xe9;" 
d="M383.5 434.5q53.5 -63.5 53.5 -175.5v-32h-332q0 -82 37 -126t108 -44q42 0 70.5 13t58.5 43l49 -43q-40 -40 -80 -58t-100 -18q-102 0 -158.5 62.5t-56.5 189.5q0 119 54 185.5t148 66.5q95 0 148.5 -63.5zM166 417q-30 -20 -46 -54q-8 -18 -10.5 -33t-4.5 -49h261
q-3 35 -5.5 49.5t-10.5 32.5q-16 34 -46 54t-69 20t-69 -20zM204 594l91 153h83l-105 -153h-69z" />
    <glyph glyph-name="ecircumflex" unicode="&#xea;" 
d="M383.5 434.5q53.5 -63.5 53.5 -175.5v-32h-332q0 -82 37 -126t108 -44q42 0 70.5 13t58.5 43l49 -43q-40 -40 -80 -58t-100 -18q-102 0 -158.5 62.5t-56.5 189.5q0 119 54 185.5t148 66.5q95 0 148.5 -63.5zM166 417q-30 -20 -46 -54q-8 -18 -10.5 -33t-4.5 -49h261
q-3 35 -5.5 49.5t-10.5 32.5q-16 34 -46 54t-69 20t-69 -20zM326 594l-91 104l-90 -104h-69l125 153h68l126 -153h-69z" />
    <glyph glyph-name="edieresis" unicode="&#xeb;" 
d="M383.5 434.5q53.5 -63.5 53.5 -175.5v-32h-332q0 -82 37 -126t108 -44q42 0 70.5 13t58.5 43l49 -43q-40 -40 -80 -58t-100 -18q-102 0 -158.5 62.5t-56.5 189.5q0 119 54 185.5t148 66.5q95 0 148.5 -63.5zM166 417q-30 -20 -46 -54q-8 -18 -10.5 -33t-4.5 -49h261
q-3 35 -5.5 49.5t-10.5 32.5q-16 34 -46 54t-69 20t-69 -20zM161 677.5q13 -13.5 13 -32.5t-13 -32t-32 -13t-32 13t-13 32t13 32.5t32 13.5t32 -13.5zM373 677.5q13 -13.5 13 -32.5t-13 -32t-32 -13t-32 13t-13 32t13 32.5t32 13.5t32 -13.5z" />
    <glyph glyph-name="igrave" unicode="&#xec;" horiz-adv-x="233" 
d="M60 0v492h72v-492h-72zM61 594l-105 153h83l91 -153h-69z" />
    <glyph glyph-name="iacute" unicode="&#xed;" horiz-adv-x="233" 
d="M60 0v492h72v-492h-72zM65 594l91 153h83l-105 -153h-69z" />
    <glyph glyph-name="icircumflex" unicode="&#xee;" horiz-adv-x="233" 
d="M60 0v492h72v-492h-72zM187 594l-91 104l-90 -104h-69l125 153h68l126 -153h-69z" />
    <glyph glyph-name="idieresis" unicode="&#xef;" horiz-adv-x="233" 
d="M60 0v492h72v-492h-72zM22 677.5q13 -13.5 13 -32.5t-13 -32t-32 -13t-32 13t-13 32t13 32.5t32 13.5t32 -13.5zM234 677.5q13 -13.5 13 -32.5t-13 -32t-32 -13t-32 13t-13 32t13 32.5t32 13.5t32 -13.5z" />
    <glyph glyph-name="eth" unicode="&#xf0;" horiz-adv-x="509" 
d="M382 632v-52h-54l63 -111q39 -68 51 -113t12 -112q0 -64 -12.5 -112t-47.5 -83q-53 -55 -140 -55t-140 55q-34 34 -46.5 82t-12.5 113t12.5 113t46.5 82q50 52 136 52q38 0 61 -10l-58 99h-116v52h88l-47 82h75l47 -82h82zM166 395q-24 -24 -31.5 -61.5t-7.5 -89.5
t7.5 -89t31.5 -61q36 -36 88 -36q53 0 89 36q24 24 31.5 61t7.5 89t-7.5 89.5t-31.5 61.5q-36 36 -89 36q-52 0 -88 -36z" />
    <glyph glyph-name="ntilde" unicode="&#xf1;" horiz-adv-x="543" 
d="M397 452q51 -50 51 -138v-314h-72v303q0 64 -32 97.5t-89 33.5t-90 -34t-33 -97v-303h-72v492h71v-55q26 30 62 45.5t77 15.5q81 0 127 -46zM225.5 700.5q15.5 -5.5 35.5 -18.5q19 -11 30.5 -15.5t25.5 -4.5t26 5.5t33 26.5l37 -36q-30 -31 -52 -41t-43 -10
q-19 0 -34.5 5.5t-36.5 18.5q-17 10 -29.5 15t-26.5 5q-15 0 -26.5 -5.5t-32.5 -26.5l-37 36q31 31 52 41t43 10q20 0 35.5 -5.5z" />
    <glyph glyph-name="ograve" unicode="&#xf2;" 
d="M376 442q35 -35 47.5 -83t12.5 -113t-12.5 -113t-47.5 -83q-54 -56 -141 -56t-141 56q-35 35 -47.5 83t-12.5 113t12.5 113t47.5 83q54 56 141 56t141 -56zM146 398q-24 -24 -32 -62t-8 -90q0 -53 7.5 -90t32.5 -62q36 -36 89 -36q54 0 90 36q24 25 31.5 62.5t7.5 89.5
q0 53 -7.5 90.5t-31.5 61.5q-36 36 -90 36q-53 0 -89 -36zM200 594l-105 153h83l91 -153h-69z" />
    <glyph glyph-name="oacute" unicode="&#xf3;" 
d="M376 442q35 -35 47.5 -83t12.5 -113t-12.5 -113t-47.5 -83q-54 -56 -141 -56t-141 56q-35 35 -47.5 83t-12.5 113t12.5 113t47.5 83q54 56 141 56t141 -56zM146 398q-24 -24 -32 -62t-8 -90q0 -53 7.5 -90t32.5 -62q36 -36 89 -36q54 0 90 36q24 25 31.5 62.5t7.5 89.5
q0 53 -7.5 90.5t-31.5 61.5q-36 36 -90 36q-53 0 -89 -36zM204 594l91 153h83l-105 -153h-69z" />
    <glyph glyph-name="ocircumflex" unicode="&#xf4;" 
d="M376 442q35 -35 47.5 -83t12.5 -113t-12.5 -113t-47.5 -83q-54 -56 -141 -56t-141 56q-35 35 -47.5 83t-12.5 113t12.5 113t47.5 83q54 56 141 56t141 -56zM146 398q-24 -24 -32 -62t-8 -90q0 -53 7.5 -90t32.5 -62q36 -36 89 -36q54 0 90 36q24 25 31.5 62.5t7.5 89.5
q0 53 -7.5 90.5t-31.5 61.5q-36 36 -90 36q-53 0 -89 -36zM326 594l-91 104l-90 -104h-69l125 153h68l126 -153h-69z" />
    <glyph glyph-name="otilde" unicode="&#xf5;" 
d="M376 442q35 -35 47.5 -83t12.5 -113t-12.5 -113t-47.5 -83q-54 -56 -141 -56t-141 56q-35 35 -47.5 83t-12.5 113t12.5 113t47.5 83q54 56 141 56t141 -56zM146 398q-24 -24 -32 -62t-8 -90q0 -53 7.5 -90t32.5 -62q36 -36 89 -36q54 0 90 36q24 25 31.5 62.5t7.5 89.5
q0 53 -7.5 90.5t-31.5 61.5q-36 36 -90 36q-53 0 -89 -36zM206.5 700.5q15.5 -5.5 35.5 -18.5q19 -11 30.5 -15.5t25.5 -4.5t26 5.5t33 26.5l37 -36q-30 -31 -52 -41t-43 -10q-19 0 -34.5 5.5t-36.5 18.5q-17 10 -29.5 15t-26.5 5q-15 0 -26.5 -5.5t-32.5 -26.5l-37 36
q31 31 52 41t43 10q20 0 35.5 -5.5z" />
    <glyph glyph-name="odieresis" unicode="&#xf6;" 
d="M376 442q35 -35 47.5 -83t12.5 -113t-12.5 -113t-47.5 -83q-54 -56 -141 -56t-141 56q-35 35 -47.5 83t-12.5 113t12.5 113t47.5 83q54 56 141 56t141 -56zM146 398q-24 -24 -32 -62t-8 -90q0 -53 7.5 -90t32.5 -62q36 -36 89 -36q54 0 90 36q24 25 31.5 62.5t7.5 89.5
q0 53 -7.5 90.5t-31.5 61.5q-36 36 -90 36q-53 0 -89 -36zM161 677.5q13 -13.5 13 -32.5t-13 -32t-32 -13t-32 13t-13 32t13 32.5t32 13.5t32 -13.5zM373 677.5q13 -13.5 13 -32.5t-13 -32t-32 -13t-32 13t-13 32t13 32.5t32 13.5t32 -13.5z" />
    <glyph glyph-name="divide" unicode="&#xf7;" horiz-adv-x="502" 
d="M216 412q-15 15 -15 36q0 20 15 35t36 15q20 0 35 -15t15 -35q0 -21 -15 -36t-35 -15q-21 0 -36 15zM41 236v67h420v-67h-420zM216 55q-15 15 -15 36q0 20 15 35t36 15q20 0 35 -15t15 -35q0 -21 -15 -36t-35 -15q-21 0 -36 15z" />
    <glyph glyph-name="oslash" unicode="&#xf8;" 
d="M443.5 133q-12.5 -48 -47.5 -83q-56 -56 -141 -56q-59 0 -105 27l-38 -65h-57l57 96q-33 35 -45.5 82.5t-12.5 111.5q0 65 12.5 113t47.5 83q56 56 141 56q59 0 105 -27l39 65h56l-57 -96q33 -35 45.5 -82.5t12.5 -111.5q0 -65 -12.5 -113zM255 434q-53 0 -89 -36
q-24 -24 -32 -62t-8 -90q0 -43 5 -76t20 -57l176 300q-30 21 -72 21zM379.5 322.5q-4.5 32.5 -19.5 56.5l-177 -299q31 -22 72 -22q54 0 90 36q24 24 31.5 61.5t7.5 90.5q0 44 -4.5 76.5z" />
    <glyph glyph-name="ugrave" unicode="&#xf9;" horiz-adv-x="543" 
d="M372 0v55q-26 -30 -62 -45.5t-77 -15.5q-81 0 -127 46q-51 50 -51 138v314h72v-303q0 -64 32 -97.5t89 -33.5t90 34t33 97v303h72v-492h-71zM214 594l-105 153h83l91 -153h-69z" />
    <glyph glyph-name="uacute" unicode="&#xfa;" horiz-adv-x="543" 
d="M372 0v55q-26 -30 -62 -45.5t-77 -15.5q-81 0 -127 46q-51 50 -51 138v314h72v-303q0 -64 32 -97.5t89 -33.5t90 34t33 97v303h72v-492h-71zM218 594l91 153h83l-105 -153h-69z" />
    <glyph glyph-name="ucircumflex" unicode="&#xfb;" horiz-adv-x="543" 
d="M372 0v55q-26 -30 -62 -45.5t-77 -15.5q-81 0 -127 46q-51 50 -51 138v314h72v-303q0 -64 32 -97.5t89 -33.5t90 34t33 97v303h72v-492h-71zM340 594l-91 104l-90 -104h-69l125 153h68l126 -153h-69z" />
    <glyph glyph-name="udieresis" unicode="&#xfc;" horiz-adv-x="543" 
d="M372 0v55q-26 -30 -62 -45.5t-77 -15.5q-81 0 -127 46q-51 50 -51 138v314h72v-303q0 -64 32 -97.5t89 -33.5t90 34t33 97v303h72v-492h-71zM175 677.5q13 -13.5 13 -32.5t-13 -32t-32 -13t-32 13t-13 32t13 32.5t32 13.5t32 -13.5zM387 677.5q13 -13.5 13 -32.5t-13 -32
t-32 -13t-32 13t-13 32t13 32.5t32 13.5t32 -13.5z" />
    <glyph glyph-name="yacute" unicode="&#xfd;" horiz-adv-x="427" 
d="M144 -186q-35 -34 -96 -34h-31v64h22q36 0 52.5 13t28.5 48l38 105l-177 482h78l135 -395l134 395h78l-227 -620q-14 -39 -35 -58zM163 594l91 153h83l-105 -153h-69z" />
    <glyph glyph-name="thorn" unicode="&#xfe;" horiz-adv-x="525" 
d="M214 484.5q33 13.5 77 13.5q37 0 68.5 -11.5t51.5 -31.5q34 -34 47 -87.5t13 -121.5t-13 -121t-47 -88q-20 -20 -51.5 -31.5t-68.5 -11.5q-44 0 -77 14t-62 50v-278h-72v932h72v-277q29 36 62 49.5zM177.5 383.5q-25.5 -50.5 -25.5 -137.5t25.5 -137.5t98.5 -50.5
t98 50.5t25 137.5t-25 137.5t-98 50.5t-98.5 -50.5z" />
    <glyph glyph-name="ydieresis" unicode="&#xff;" horiz-adv-x="427" 
d="M144 -186q-35 -34 -96 -34h-31v64h22q36 0 52.5 13t28.5 48l38 105l-177 482h78l135 -395l134 395h78l-227 -620q-14 -39 -35 -58zM120 677.5q13 -13.5 13 -32.5t-13 -32t-32 -13t-32 13t-13 32t13 32.5t32 13.5t32 -13.5zM332 677.5q13 -13.5 13 -32.5t-13 -32t-32 -13
t-32 13t-13 32t13 32.5t32 13.5t32 -13.5z" />
    <glyph glyph-name="Aogonek" unicode="&#x104;" horiz-adv-x="591" 
d="M488 0l-57 161h-311l-57 -161h-81l262 712h64l261 -712h-81zM408 227l-132 377l-133 -377h265zM435.5 -177.5q-24.5 22.5 -24.5 56.5q0 64 88 121h57q-42 -32 -62.5 -58t-20.5 -52q0 -15 8.5 -24t23.5 -9q13 0 24.5 5.5t25.5 17.5l35 -38q-39 -42 -92 -42
q-38 0 -62.5 22.5z" />
    <glyph glyph-name="aogonek" unicode="&#x105;" horiz-adv-x="506" 
d="M362 456q49 -42 49 -122v-334h-72v47q-29 -29 -61 -41t-81 -12q-51 0 -82 10t-57 35q-18 18 -27.5 44t-9.5 56q0 66 44.5 104t126.5 38h147v47q0 55 -29.5 81.5t-96.5 26.5q-46 0 -73.5 -13t-50.5 -44l-49 45q31 42 71 58t103 16q99 0 148 -42zM91 140q0 -43 27.5 -63.5
t86.5 -20.5q36 0 61.5 6.5t47.5 26.5q25 24 25 85v53h-137q-111 0 -111 -87zM288.5 -177.5q-24.5 22.5 -24.5 56.5q0 64 88 121h57q-42 -32 -62.5 -58t-20.5 -52q0 -15 8.5 -24t23.5 -9q13 0 24.5 5.5t25.5 17.5l35 -38q-39 -42 -92 -42q-38 0 -62.5 22.5z" />
    <glyph glyph-name="Cacute" unicode="&#x106;" horiz-adv-x="617" 
d="M457.5 662q65.5 -56 84.5 -156h-78q-14 67 -58.5 105.5t-110.5 38.5q-73 0 -123 -50q-22 -23 -32.5 -51t-14 -70.5t-3.5 -122.5t3.5 -122.5t14 -70.5t32.5 -51q50 -50 123 -50q66 0 110.5 38.5t58.5 105.5h78q-19 -99 -85 -155.5t-162 -56.5q-108 0 -178 70
q-33 33 -48 68.5t-19 83.5t-4 140t4 140t19 83.5t48 68.5q70 70 178 70q97 0 162.5 -56zM255 780l91 153h83l-105 -153h-69z" />
    <glyph glyph-name="cacute" unicode="&#x107;" horiz-adv-x="471" 
d="M340 482q36 -16 74 -57l-49 -46q-28 31 -53 43t-60 12q-75 0 -114 -56q-17 -24 -24.5 -54.5t-7.5 -77.5t7.5 -77.5t24.5 -54.5q39 -56 114 -56q35 0 60 12.5t53 43.5l49 -47q-38 -41 -74 -57t-88 -16q-63 0 -112.5 28.5t-77.5 85t-28 138.5t28 138.5t77.5 85t112.5 28.5
q52 0 88 -16zM204 594l91 153h83l-105 -153h-69z" />
    <glyph glyph-name="Eogonek" unicode="&#x118;" horiz-adv-x="580" 
d="M149 644v-251h312v-68h-312v-257h366v-68h-442v712h442v-68h-366zM365.5 -177.5q-24.5 22.5 -24.5 56.5q0 64 88 121h57q-42 -32 -62.5 -58t-20.5 -52q0 -15 8.5 -24t23.5 -9q13 0 24.5 5.5t25.5 17.5l35 -38q-39 -42 -92 -42q-38 0 -62.5 22.5z" />
    <glyph glyph-name="eogonek" unicode="&#x119;" 
d="M457 227h-332q0 -82 37 -126t108 -44q42 0 70.5 13t58.5 43l49 -43l-25 -22q-50 -44 -72.5 -65.5t-35.5 -44t-13 -48.5q0 -15 8.5 -24t23.5 -9q13 0 24.5 5.5t25.5 17.5l35 -38q-39 -42 -92 -42q-38 0 -62.5 23t-24.5 58q0 29 16 56.5t50 59.5q-16 -3 -38 -3
q-102 0 -158.5 62.5t-56.5 189.5q0 119 54 185.5t148 66.5q95 0 148.5 -63.5t53.5 -175.5v-32zM386 281q-3 35 -5.5 49.5t-10.5 32.5q-16 34 -46 54t-69 20t-69 -20t-46 -54q-8 -18 -10.5 -33t-4.5 -49h261z" />
    <glyph glyph-name="dotlessi" unicode="&#x131;" horiz-adv-x="233" 
d="M80 0v492h72v-492h-72z" />
    <glyph glyph-name="Lslash" unicode="&#x141;" horiz-adv-x="562" 
d="M333 501v-65l-155 -98v-270h364v-68h-440v290l-73 -46v65l73 47v356h76v-309z" />
    <glyph glyph-name="lslash" unicode="&#x142;" horiz-adv-x="290" 
d="M243 498v-62l-81 -50v-252q0 -37 15 -54.5t51 -17.5h40v-62h-52q-63 0 -94.5 36t-31.5 95v211l-63 -39v62l63 39v308h72v-264z" />
    <glyph glyph-name="Nacute" unicode="&#x143;" horiz-adv-x="712" 
d="M527 0l-378 571v-571h-76v712h72l378 -569v569h76v-712h-72zM296 780l91 153h83l-105 -153h-69z" />
    <glyph glyph-name="nacute" unicode="&#x144;" horiz-adv-x="543" 
d="M397 452q51 -50 51 -138v-314h-72v303q0 64 -32 97.5t-89 33.5t-90 -34t-33 -97v-303h-72v492h71v-55q26 30 62 45.5t77 15.5q81 0 127 -46zM223 594l91 153h83l-105 -153h-69z" />
    <glyph glyph-name="OE" unicode="&#x152;" horiz-adv-x="974" 
d="M487 638v74h442v-68h-366v-251h313v-68h-313v-257h366v-68h-442v74q-32 -39 -77.5 -59.5t-95.5 -20.5q-107 0 -177 70q-33 33 -48 68.5t-19 83.5t-4 140t4 140t19 83.5t48 68.5q70 70 177 70q108 0 173 -80zM192 600q-22 -23 -32.5 -51t-14 -70.5t-3.5 -122.5t3.5 -122.5
t14 -70.5t32.5 -51q48 -50 123 -50q35 0 67.5 13.5t55.5 37.5q22 23 32.5 50.5t13.5 69t3 123.5t-3 123.5t-13.5 69t-32.5 50.5q-23 24 -55.5 37.5t-67.5 13.5q-75 0 -123 -50z" />
    <glyph glyph-name="oe" unicode="&#x153;" horiz-adv-x="841" 
d="M493 101q37 -44 108 -44q42 0 70.5 13t58.5 43l49 -43q-40 -40 -80 -58t-100 -18q-124 0 -177 95q-23 -45 -67 -70t-100 -25q-87 0 -141 56q-35 35 -47.5 83t-12.5 113t12.5 113t47.5 83q54 56 141 56q57 0 100.5 -24.5t67.5 -70.5q24 46 65.5 70.5t97.5 24.5
q95 0 148.5 -64t53.5 -174v-33h-332q0 -82 37 -126zM711.5 330.5q-2.5 14.5 -10.5 32.5q-16 34 -46 54t-69 20t-69 -20t-46 -54q-8 -18 -10.5 -33t-4.5 -49h261q-3 35 -5.5 49.5zM376.5 336.5q-7.5 37.5 -31.5 61.5q-36 36 -90 36q-53 0 -89 -36q-24 -24 -32 -62t-8 -90
q0 -53 7.5 -90t32.5 -62q36 -36 89 -36q54 0 90 36q24 25 31.5 62.5t7.5 89.5q0 53 -7.5 90.5z" />
    <glyph glyph-name="Sacute" unicode="&#x15a;" horiz-adv-x="568" 
d="M375.5 699.5q49.5 -18.5 95.5 -59.5l-49 -49q-33 32 -72.5 47t-93.5 15q-71 0 -111 -36t-40 -97q0 -55 32 -83q31 -27 93 -37l83 -13q50 -8 77.5 -18.5t51.5 -32.5q29 -25 44.5 -60.5t15.5 -79.5q0 -93 -67 -147.5t-179 -54.5q-80 0 -137 22t-106 72l51 51
q43 -43 87.5 -60t106.5 -17q79 0 124 34.5t45 97.5q0 58 -35 89q-16 15 -35 22t-58 13l-83 12q-84 13 -130 54q-55 49 -55 134q0 91 61.5 145.5t166.5 54.5q67 0 116.5 -18.5zM219 780l91 153h83l-105 -153h-69z" />
    <glyph glyph-name="sacute" unicode="&#x15b;" horiz-adv-x="476" 
d="M393 445l-47 -47q-51 39 -131 39q-53 0 -81.5 -21t-28.5 -60q0 -33 21 -50t67 -22l77 -7q70 -7 107.5 -37t37.5 -96q0 -70 -54.5 -110t-145.5 -40q-65 0 -114 16.5t-88 54.5l48 48q54 -57 153 -57q63 0 97 22t34 65q0 33 -19.5 50.5t-62.5 21.5l-81 7q-147 12 -147 132
q0 66 50 105t131 39q111 0 177 -53zM184 594l91 153h83l-105 -153h-69z" />
    <glyph glyph-name="Scaron" unicode="&#x160;" horiz-adv-x="568" 
d="M375.5 699.5q49.5 -18.5 95.5 -59.5l-49 -49q-33 32 -72.5 47t-93.5 15q-71 0 -111 -36t-40 -97q0 -55 32 -83q31 -27 93 -37l83 -13q50 -8 77.5 -18.5t51.5 -32.5q29 -25 44.5 -60.5t15.5 -79.5q0 -93 -67 -147.5t-179 -54.5q-80 0 -137 22t-106 72l51 51
q43 -43 87.5 -60t106.5 -17q79 0 124 34.5t45 97.5q0 58 -35 89q-16 15 -35 22t-58 13l-83 12q-84 13 -130 54q-55 49 -55 134q0 91 61.5 145.5t166.5 54.5q67 0 116.5 -18.5zM225 780l-126 153h69l91 -105l90 105h69l-125 -153h-68z" />
    <glyph glyph-name="scaron" unicode="&#x161;" horiz-adv-x="476" 
d="M393 445l-47 -47q-51 39 -131 39q-53 0 -81.5 -21t-28.5 -60q0 -33 21 -50t67 -22l77 -7q70 -7 107.5 -37t37.5 -96q0 -70 -54.5 -110t-145.5 -40q-65 0 -114 16.5t-88 54.5l48 48q54 -57 153 -57q63 0 97 22t34 65q0 33 -19.5 50.5t-62.5 21.5l-81 7q-147 12 -147 132
q0 66 50 105t131 39q111 0 177 -53zM182 594l-126 153h69l91 -105l90 105h69l-125 -153h-68z" />
    <glyph glyph-name="Ydieresis" unicode="&#x178;" horiz-adv-x="494" 
d="M266 0h-76v294l-212 418h82l168 -341l166 341h82l-210 -418v-294zM153 864.5q13 -13.5 13 -32.5t-13 -32t-32 -13t-32 13t-13 32t13 32.5t32 13.5t32 -13.5zM365 864.5q13 -13.5 13 -32.5t-13 -32t-32 -13t-32 13t-13 32t13 32.5t32 13.5t32 -13.5z" />
    <glyph glyph-name="Zacute" unicode="&#x179;" horiz-adv-x="536" 
d="M113 68h356v-68h-442v64l356 580h-342v68h428v-64zM214 780l91 153h83l-105 -153h-69z" />
    <glyph glyph-name="zacute" unicode="&#x17a;" horiz-adv-x="439" 
d="M292 428h-257v64h342v-59l-273 -369h273v-64h-357v59zM169 594l91 153h83l-105 -153h-69z" />
    <glyph glyph-name="Zdotaccent" unicode="&#x17b;" horiz-adv-x="536" 
d="M113 68h356v-68h-442v64l356 580h-342v68h428v-64zM285.5 866q13.5 -13 13.5 -31q0 -19 -13 -32.5t-32 -13.5t-32 13.5t-13 31.5q0 19 13 32t31 13q19 0 32.5 -13z" />
    <glyph glyph-name="zdotaccent" unicode="&#x17c;" horiz-adv-x="439" 
d="M292 428h-257v64h342v-59l-273 -369h273v-64h-357v59zM231.5 687q13.5 -13 13.5 -31q0 -19 -13 -32.5t-32 -13.5t-32 13.5t-13 31.5q0 19 13 32t31 13q19 0 32.5 -13z" />
    <glyph glyph-name="Zcaron" unicode="&#x17d;" horiz-adv-x="536" 
d="M113 68h356v-68h-442v64l356 580h-342v68h428v-64zM220 780l-126 153h69l91 -105l90 105h69l-125 -153h-68z" />
    <glyph glyph-name="zcaron" unicode="&#x17e;" horiz-adv-x="439" 
d="M292 428h-257v64h342v-59l-273 -369h273v-64h-357v59zM167 594l-126 153h69l91 -105l90 105h69l-125 -153h-68z" />
    <glyph glyph-name="florin" unicode="&#x192;" horiz-adv-x="383" 
d="M313 652q-66 0 -79 -72l-34 -196h105v-54h-115l-97 -550h-72l97 550h-62v54h72l34 198q10 58 49.5 95t99.5 37h52v-62h-50z" />
    <glyph glyph-name="circumflex" unicode="&#x2c6;" 
d="M346 594l-91 104l-90 -104h-69l125 153h68l126 -153h-69z" />
    <glyph glyph-name="caron" unicode="&#x2c7;" 
d="M222 594l-126 153h69l91 -105l90 105h69l-125 -153h-68z" />
    <glyph glyph-name="breve" unicode="&#x2d8;" 
d="M372.5 625q-41.5 -35 -117.5 -35t-117.5 35t-47.5 104h56q5 -40 34 -61.5t75 -21.5t75 21.5t34 61.5h56q-6 -69 -47.5 -104z" />
    <glyph glyph-name="dotaccent" unicode="&#x2d9;" 
d="M286.5 687q13.5 -13 13.5 -31q0 -19 -13 -32.5t-32 -13.5t-32 13.5t-13 31.5q0 19 13 32t31 13q19 0 32.5 -13z" />
    <glyph glyph-name="ring" unicode="&#x2da;" 
d="M338.5 770.5q34.5 -34.5 34.5 -83.5t-34.5 -84t-83.5 -35t-83.5 35t-34.5 84t34.5 83.5t83.5 34.5t83.5 -34.5zM206 735q-20 -20 -20 -48t20.5 -48.5t48.5 -20.5q29 0 49 20.5t20 48.5t-20 48t-49 20t-49 -20z" />
    <glyph glyph-name="ogonek" unicode="&#x2db;" 
d="M201.5 -177.5q-24.5 22.5 -24.5 56.5q0 64 88 121h57q-42 -32 -62.5 -58t-20.5 -52q0 -15 8.5 -24t23.5 -9q13 0 24.5 5.5t25.5 17.5l35 -38q-39 -42 -92 -42q-38 0 -62.5 22.5z" />
    <glyph glyph-name="tilde" unicode="&#x2dc;" 
d="M226.5 700.5q15.5 -5.5 35.5 -18.5q19 -11 30.5 -15.5t25.5 -4.5t26 5.5t33 26.5l37 -36q-30 -31 -52 -41t-43 -10q-19 0 -34.5 5.5t-36.5 18.5q-17 10 -29.5 15t-26.5 5q-15 0 -26.5 -5.5t-32.5 -26.5l-37 36q31 31 52 41t43 10q20 0 35.5 -5.5z" />
    <glyph glyph-name="hungarumlaut" unicode="&#x2dd;" 
d="M123 594l89 153h85l-108 -153h-66zM306 594l89 153h85l-109 -153h-65z" />
    <glyph glyph-name="gravecomb" unicode="&#x300;" horiz-adv-x="0" 
d="M9 594l-105 153h83l91 -153h-69z" />
    <glyph glyph-name="acutecomb" unicode="&#x301;" horiz-adv-x="0" 
d="M-96 594l91 153h83l-105 -153h-69z" />
    <glyph glyph-name="tildecomb" unicode="&#x303;" horiz-adv-x="0" 
d="M-37.5 700.5q15.5 -5.5 35.5 -18.5q19 -11 30.5 -15.5t25.5 -4.5t26 5.5t33 26.5l37 -36q-30 -31 -52 -41t-43 -10q-19 0 -34.5 5.5t-36.5 18.5q-17 10 -29.5 15t-26.5 5q-15 0 -26.5 -5.5t-32.5 -26.5l-37 36q31 31 52 41t43 10q20 0 35.5 -5.5z" />
    <glyph glyph-name="endash" unicode="&#x2013;" horiz-adv-x="550" 
d="M66 236v67h418v-67h-418z" />
    <glyph glyph-name="emdash" unicode="&#x2014;" horiz-adv-x="894" 
d="M66 236v67h762v-67h-762z" />
    <glyph glyph-name="quoteleft" unicode="&#x2018;" horiz-adv-x="243" 
d="M162.5 579.5q13.5 -14.5 13.5 -34.5q0 -22 -16 -38.5t-39 -16.5q-22 0 -38.5 16.5t-16.5 38.5q0 14 4.5 30.5t17.5 56.5l27 80h51l-39 -114q22 -4 35.5 -18.5z" />
    <glyph glyph-name="quoteright" unicode="&#x2019;" horiz-adv-x="243" 
d="M160 702q16 -16 16 -39q0 -14 -4.5 -30.5t-17.5 -56.5l-27 -80h-51l39 114q-22 4 -35.5 18.5t-13.5 34.5q0 23 16.5 39t38.5 16q23 0 39 -16z" />
    <glyph glyph-name="quotesinglbase" unicode="&#x201a;" horiz-adv-x="243" 
d="M141 91q16 -16 16 -39q0 -14 -4.5 -30.5t-17.5 -56.5l-27 -80h-51l39 114q-22 4 -35.5 18.5t-13.5 34.5q0 23 16.5 39t38.5 16q23 0 39 -16z" />
    <glyph glyph-name="quotedblleft" unicode="&#x201c;" horiz-adv-x="413" 
d="M142.5 579.5q13.5 -14.5 13.5 -34.5q0 -22 -16 -38.5t-39 -16.5q-22 0 -38.5 16.5t-16.5 38.5q0 14 4.5 30.5t17.5 56.5l27 80h51l-39 -114q22 -4 35.5 -18.5zM312.5 579.5q13.5 -14.5 13.5 -34.5q0 -22 -16 -38.5t-39 -16.5q-22 0 -38.5 16.5t-16.5 38.5q0 14 4.5 30.5
t17.5 56.5l27 80h51l-39 -114q22 -4 35.5 -18.5z" />
    <glyph glyph-name="quotedblright" unicode="&#x201d;" horiz-adv-x="413" 
d="M140 702q16 -16 16 -39q0 -14 -4.5 -30.5t-17.5 -56.5l-27 -80h-51l39 114q-22 4 -35.5 18.5t-13.5 34.5q0 23 16.5 39t38.5 16q23 0 39 -16zM310 702q16 -16 16 -39q0 -14 -4.5 -30.5t-17.5 -56.5l-27 -80h-51l39 114q-22 4 -35.5 18.5t-13.5 34.5q0 23 16.5 39t38.5 16
q23 0 39 -16z" />
    <glyph glyph-name="quotedblbase" unicode="&#x201e;" horiz-adv-x="413" 
d="M141 91q16 -16 16 -39q0 -14 -4.5 -30.5t-17.5 -56.5l-27 -80h-51l39 114q-22 4 -35.5 18.5t-13.5 34.5q0 23 16.5 39t38.5 16q23 0 39 -16zM311 91q16 -16 16 -39q0 -14 -4.5 -30.5t-17.5 -56.5l-27 -80h-51l39 114q-22 4 -35.5 18.5t-13.5 34.5q0 23 16.5 39t38.5 16
q23 0 39 -16z" />
    <glyph glyph-name="dagger" unicode="&#x2020;" horiz-adv-x="582" 
d="M521 509v-64h-194v-445h-72v445h-194v64h194v203h72v-203h194z" />
    <glyph glyph-name="daggerdbl" unicode="&#x2021;" horiz-adv-x="582" 
d="M521 509v-64h-194v-397h194v-64h-194v-204h-72v204h-194v64h194v397h-194v64h194v203h72v-203h194z" />
    <glyph glyph-name="bullet" unicode="&#x2022;" horiz-adv-x="512" 
d="M337.5 411q37.5 -22 59.5 -59.5t22 -81.5t-22 -81.5t-59.5 -59.5t-81.5 -22t-81.5 22t-59.5 59.5t-22 81.5t22 81.5t59.5 59.5t81.5 22t81.5 -22z" />
    <glyph glyph-name="ellipsis" unicode="&#x2026;" horiz-adv-x="754" 
d="M175 94q17 -17 17 -40t-17 -40t-40 -17t-40 17t-17 40t17 40t40 17t40 -17zM417 94q17 -17 17 -40t-17 -40t-40 -17t-40 17t-17 40t17 40t40 17t40 -17zM659 94q17 -17 17 -40t-17 -40t-40 -17t-40 17t-17 40t17 40t40 17t40 -17z" />
    <glyph glyph-name="perthousand" unicode="&#x2030;" horiz-adv-x="1161" 
d="M93 380.5q-38 36.5 -38 98.5v104q0 62 38 98.5t96 36.5t96.5 -36.5t38.5 -98.5v-104q0 -62 -38.5 -98.5t-96.5 -36.5t-96 36.5zM604 712l-334 -712h-60l334 712h60zM246.5 419.5q20.5 23.5 20.5 66.5v91q0 43 -20.5 66t-57.5 23q-36 0 -56.5 -23.5t-20.5 -65.5v-91
q0 -43 20.5 -66.5t56.5 -23.5q37 0 57.5 23.5zM527.5 30.5q-38.5 36.5 -38.5 98.5v104q0 62 38.5 98.5t96.5 36.5t96.5 -36.5t38.5 -98.5v-104q0 -62 -38.5 -98.5t-96.5 -36.5t-96.5 36.5zM874.5 30.5q-38.5 36.5 -38.5 98.5v104q0 62 38.5 98.5t96.5 36.5t96.5 -36.5
t38.5 -98.5v-104q0 -62 -38.5 -98.5t-96.5 -36.5t-96.5 36.5zM681 69q20 23 20 66v91q0 43 -20 66.5t-57 23.5q-36 0 -56.5 -23.5t-20.5 -66.5v-91q0 -42 20.5 -65.5t56.5 -23.5q37 0 57 23zM1028 69q20 23 20 66v91q0 43 -20 66.5t-57 23.5q-36 0 -56.5 -23.5t-20.5 -66.5
v-91q0 -42 20.5 -65.5t56.5 -23.5q37 0 57 23z" />
    <glyph glyph-name="guilsinglleft" unicode="&#x2039;" horiz-adv-x="308" 
d="M120 269l120 -121v-89l-210 210l210 210v-90z" />
    <glyph glyph-name="guilsinglright" unicode="&#x203a;" horiz-adv-x="308" 
d="M68 59v90l120 120l-120 121v89l210 -210z" />
    <glyph glyph-name="fraction" unicode="&#x2044;" horiz-adv-x="165" 
d="M279 712l-333 -712h-60l333 712h60z" />
    <glyph glyph-name="Euro" unicode="&#x20ac;" horiz-adv-x="659" 
d="M514.5 662q65.5 -56 84.5 -156h-78q-14 67 -58.5 105.5t-110.5 38.5q-73 0 -123 -50q-24 -25 -34.5 -56t-13.5 -87h219v-50h-220v-97h220v-50h-220q3 -59 13.5 -91t35.5 -57q50 -50 123 -50q66 0 110.5 38.5t58.5 105.5h78q-19 -99 -85 -155.5t-162 -56.5q-108 0 -178 70
q-38 38 -53 80.5t-17 115.5h-67v50h67v97h-67v50h67q3 71 18 112.5t52 78.5q70 70 178 70q97 0 162.5 -56z" />
    <glyph glyph-name="trademark" unicode="&#x2122;" horiz-adv-x="833" 
d="M197 666v-380h-51v380h-120v46h291v-46h-120zM735 286v320l-114 -253h-44l-116 253v-320h-51v426h51l138 -301l136 301h50v-426h-50z" />
    <glyph glyph-name="partialdiff" unicode="&#x2202;" horiz-adv-x="443" 
d="M364 474.5q-22 -37.5 -59.5 -59.5t-82.5 -22t-83 22t-60 59.5t-22 82.5t22 82.5t60 59.5t83 22t82.5 -22t59.5 -59.5t22 -82.5t-22 -82.5zM295 632.5q-30 30.5 -74 30.5t-73.5 -30.5t-29.5 -75.5t30 -75.5t74 -30.5t73.5 30.5t29.5 75.5t-30 75.5z" />
    <glyph glyph-name="summation" unicode="&#x2211;" horiz-adv-x="833" 
d="M90.5 294.5q-34.5 13.5 -65.5 44.5l35 35q25 -25 50.5 -35.5t63.5 -10.5q47 0 73 20t26 55q0 31 -18 49t-56 23l-50 7q-56 8 -85.5 37t-29.5 78q0 55 38 88t103 33q41 0 71 -11t59 -37l-34 -34q-20 19 -43 28t-55 9q-41 0 -64.5 -20t-23.5 -55q0 -29 17.5 -45.5
t55.5 -22.5l50 -8q117 -18 117 -118q0 -56 -41.5 -89.5t-110.5 -33.5q-48 0 -82.5 13.5zM410 712h51l138 -301l136 301h50v-426h-50v320l-114 -253h-44l-116 253v-320h-51v426z" />
    <glyph glyph-name="minus" unicode="&#x2212;" horiz-adv-x="502" 
d="M42 237v67h418v-67h-418z" />
    <glyph glyph-name="infinity" unicode="&#x221e;" horiz-adv-x="792" 
d="M40 712h712v-712h-712v712zM575 315v76l-340 157v-93l236 -101l-236 -103v-94z" />
    <glyph glyph-name="approxequal" unicode="&#x2248;" horiz-adv-x="1135" 
d="M49 -123.5q-9 8.5 -9 31.5v1014q0 23 9 31.5t31 8.5h975q23 0 31.5 -8.5t8.5 -31.5v-1014q0 -23 -8.5 -31.5t-31.5 -8.5h-975q-22 0 -31 8.5zM1062 -99v1028h-989v-1028h989zM137 591q-14 31 -14 84q0 59 28 97t87 63q137 59 328 59q212 0 338 -59q60 -28 84.5 -64
t24.5 -96q0 -52 -15.5 -83.5t-46.5 -31.5q-11 0 -27 8l-203 87q-9 5 -9 15q0 9 11 29q12 24 12 33q0 25 -43 34t-126 9q-79 0 -122 -9t-43 -34q0 -10 13 -38q9 -20 9 -24q0 -9 -11 -15l-203 -87q-18 -8 -28 -8q-30 0 -44 31zM133 414v76q0 21 20 21h77q21 0 21 -21v-76
q0 -20 -21 -20h-77q-20 0 -20 20zM321 414v76q0 21 20 21h77q21 0 21 -21v-76q0 -20 -21 -20h-77q-20 0 -20 20zM509 414v76q0 21 20 21h77q21 0 21 -21v-76q0 -20 -21 -20h-77q-20 0 -20 20zM697 414v76q0 21 20 21h77q21 0 21 -21v-76q0 -20 -21 -20h-77q-20 0 -20 20z
M885 414v76q0 21 20 21h77q21 0 21 -21v-76q0 -20 -21 -20h-77q-20 0 -20 20zM227 264v76q0 21 20 21h77q21 0 21 -21v-76q0 -20 -21 -20h-77q-20 0 -20 20zM415 264v76q0 21 20 21h77q21 0 21 -21v-76q0 -20 -21 -20h-77q-20 0 -20 20zM603 264v76q0 21 20 21h77
q21 0 21 -21v-76q0 -20 -21 -20h-77q-20 0 -20 20zM791 264v76q0 21 20 21h77q21 0 21 -21v-76q0 -20 -21 -20h-77q-20 0 -20 20zM133 104v76q0 21 20 21h77q21 0 21 -21v-76q0 -20 -21 -20h-77q-20 0 -20 20zM321 104v76q0 21 20 21h77q21 0 21 -21v-76q0 -20 -21 -20h-77
q-20 0 -20 20zM509 104v76q0 21 20 21h77q21 0 21 -21v-76q0 -20 -21 -20h-77q-20 0 -20 20zM697 104v76q0 21 20 21h77q21 0 21 -21v-76q0 -20 -21 -20h-77q-20 0 -20 20zM885 104v76q0 21 20 21h77q21 0 21 -21v-76q0 -20 -21 -20h-77q-20 0 -20 20zM209 -29v35
q0 21 20 21h677q21 0 21 -21v-35q0 -20 -21 -20h-677q-20 0 -20 20z" />
    <glyph glyph-name="lessequal" unicode="&#x2264;" horiz-adv-x="502" 
d="M166 334l250 -123v-77l-331 168v65l331 168v-77zM416 -16l-331 168v77l331 -168v-77z" />
    <glyph glyph-name="greaterequal" unicode="&#x2265;" horiz-adv-x="502" 
d="M416 302l-331 -168v77l250 123l-250 124v77l331 -168v-65zM85 -16v77l331 168v-77z" />
    <glyph glyph-name="lozenge" unicode="&#x25ca;" horiz-adv-x="1155" 
d="M183 602h-75v90l469 279l469 -279v-90h-75v-348h-788v348zM877 342v340l-300 176l-300 -176v-340h600zM401 644h352v-87h-352v87zM401 519h352v-87h-352v87zM231 120q-8 -5 -19 -5q-18 0 -25 11.5t-7 33.5t6 34t26 12q19 0 25.5 -11.5t6.5 -34.5q0 -11 -1 -19t-5 -13
l9 -9l-7 -7zM619.5 126.5q-6.5 11.5 -6.5 33.5q0 21 6.5 33.5t25.5 12.5t25.5 -11.5t6.5 -34.5q0 -21 -6.5 -33t-25.5 -12t-25.5 11.5zM774 127l9 9q8 -9 23 -9q18 0 18 14q0 6 -3 8.5t-10 4.5l-11 2q-23 4 -23 24q0 12 8 19t22 7q17 0 28 -10l-9 -9q-8 7 -20 7
q-7 0 -11.5 -4t-4.5 -10q0 -10 13 -12l12 -2q23 -4 23 -25q0 -12 -9 -19t-23 -7q-20 0 -32 12zM987.5 127q-7.5 12 -7.5 33q0 22 6.5 34t26.5 12q14 0 22 -8t10 -20h-14q-3 16 -18 16q-12 0 -15.5 -8.5t-3.5 -25.5q0 -16 3 -24.5t16 -8.5q18 0 18 20v5h-19v12h33v-14
q0 -17 -8 -26t-24 -9q-18 0 -25.5 12zM108 205h57v-12h-44v-26h37v-12h-37v-27h44v-12h-57v89zM272 123.5q-9 8.5 -9 22.5v59h13v-59q0 -9 5.5 -14t13.5 -5t13 5t5 14v59h14v-59q0 -14 -9 -22.5t-23 -8.5t-23 8.5zM371 205h11l33 -89h-15l-6 18h-35l-6 -18h-15zM427 205h14
v-77h43v-12h-57v89zM529 205h14v-38h36v38h14v-89h-14v39h-36v-39h-14v89zM705 123q-9 8 -9 22v60h13v-59q0 -9 5.5 -14t13.5 -5t13 5t5 14v59h14v-59q0 -14 -9 -22.5t-23 -8.5t-23 8zM856 205h13v-89h-13v89zM893 205h12l41 -63v63h14v-89h-12l-42 62v-62h-13v89zM222 130
l-10 9l7 8l10 -9q2 8 2 22q0 16 -3.5 25t-15.5 9q-11 0 -15 -9t-4 -25q0 -15 3.5 -24t15.5 -9q6 0 10 3zM660 135.5q4 8.5 4 24.5t-3.5 25t-15.5 9q-11 0 -15 -9t-4 -25q0 -15 3.5 -24t15.5 -9q11 0 15 8.5zM390 145l-14 40l-13 -40h27zM108 63h35v-149h82v-31h-117v180z
M255 63h119v-31h-84v-43h72v-31h-72v-44h84v-31h-119v180zM408 63h32l71 -110v110h36v-180h-32l-71 110v-110h-36v180zM589 63h65q39 0 52.5 -22t13.5 -68q0 -47 -13 -68.5t-53 -21.5h-65v180zM756 63h119v-31h-84v-43h72v-31h-72v-44h84v-31h-119v180zM910 63h71
q27 0 42.5 -16t15.5 -39q0 -18 -9.5 -30t-23.5 -17l41 -78h-41l-36 72h-25v-72h-35v180zM651 -86q22 0 28 13t6 46q0 31 -6 45t-28 14h-27v-118h27zM979 -16q11 0 18 6.5t7 17.5t-7 17.5t-18 6.5h-34v-48h34z" />
    <glyph glyph-name="zero.aalt" horiz-adv-x="502" 
d="M150.5 18.5q-44.5 24.5 -69.5 69t-25 102.5v332q0 58 25 102.5t69.5 69t100.5 24.5q55 0 99.5 -24.5t70 -69t25.5 -102.5v-332q0 -58 -25.5 -102.5t-70 -69t-99.5 -24.5q-56 0 -100.5 24.5zM341.5 96q32.5 38 32.5 98v324q0 60 -32.5 98t-90.5 38t-90.5 -38t-32.5 -98
v-324q0 -60 32.5 -98t90.5 -38t90.5 38z" />
    <glyph glyph-name="one.pnum" horiz-adv-x="352" 
d="M41 515v82l133 115h72v-712h-72v632z" />
    <glyph glyph-name="two.pnum" horiz-adv-x="467" 
d="M312 421q20 26 29.5 51t9.5 54q0 58 -32.5 93t-90.5 35q-54 0 -89 -32t-35 -97h-72q0 56 24.5 100t68.5 68.5t103 24.5q88 0 141.5 -52.5t53.5 -139.5q0 -41 -13 -73t-43 -71l-249 -318h305v-64h-392v64z" />
    <glyph glyph-name="three.pnum" horiz-adv-x="492" 
d="M90 41.5q-58 47.5 -62 140.5h72q4 -63 42.5 -93.5t94.5 -30.5q59 0 98 37t39 101q0 66 -34.5 101.5t-105.5 35.5h-15v63h15q64 0 95.5 33.5t31.5 94.5q0 62 -35 96t-89 34q-56 0 -89.5 -32t-38.5 -87h-72q6 85 61.5 134t138.5 49q58 0 102.5 -24t69 -68t24.5 -101
q0 -113 -96 -157q109 -41 109 -173q0 -64 -27.5 -109t-75 -68.5t-106.5 -23.5q-89 0 -147 47.5z" />
    <glyph glyph-name="four.aalt" horiz-adv-x="498" 
d="M26 113v65l257 534h77l-257 -534h207v202h71v-202h87v-65h-87v-113h-71v113h-284z" />
    <glyph glyph-name="five.aalt" horiz-adv-x="497" 
d="M162 7.5q-37 13.5 -61 37.5q-44 45 -50 124h72q14 -111 121 -111q26 0 49 8.5t39 24.5q25 25 32 60t7 85q0 79 -25 125.5t-95 46.5q-46 0 -76.5 -19t-41.5 -51h-65v374h360v-64h-295v-226q44 49 128 49q78 0 123 -45q35 -35 47 -82t12 -108q0 -64 -11 -109t-46 -80
q-53 -53 -142 -53q-45 0 -82 13.5z" />
    <glyph glyph-name="six.aalt" horiz-adv-x="469" 
d="M91 50.5q-54 56.5 -54 148.5q0 37 10 73t34 85l176 355h75l-163 -325q31 20 78 20q55 0 97 -26t65 -72t23 -104q0 -61 -24 -108.5t-68.5 -75t-104.5 -27.5q-90 0 -144 56.5zM325.5 97q34.5 39 34.5 105q0 62 -33.5 103t-92.5 41q-57 0 -91 -39t-34 -105t34 -105t91 -39
t91.5 39z" />
    <glyph glyph-name="seven.aalt" horiz-adv-x="451" 
d="M102 648v-112h-71v176h395v-64l-247 -648h-76l247 648h-248z" />
    <glyph glyph-name="eight.aalt" horiz-adv-x="518" 
d="M152 19.5q-48 25.5 -75.5 71.5t-27.5 105t29 102t78 71q-44 25 -68.5 64.5t-24.5 93.5q0 55 25.5 98.5t70 68t100.5 24.5t100.5 -24.5t70 -68t25.5 -98.5q0 -54 -24 -93.5t-68 -64.5q49 -28 77.5 -71t28.5 -102t-27.5 -105t-75.5 -71.5t-107 -25.5t-107 25.5z
M348.5 434.5q34.5 35.5 34.5 91.5t-34.5 92t-89.5 36t-89.5 -36t-34.5 -92t34.5 -91.5t89.5 -35.5t89.5 35.5zM357.5 98q39.5 40 39.5 99t-39.5 99t-98.5 40t-98.5 -40t-39.5 -99t39.5 -99t98.5 -40t98.5 40z" />
    <glyph glyph-name="nine.aalt" horiz-adv-x="469" 
d="M378 661.5q54 -56.5 54 -148.5q0 -37 -10 -73t-34 -85l-176 -355h-75l163 325q-31 -20 -78 -20q-55 0 -97 26t-65 72t-23 104q0 61 24 108.5t68.5 75t104.5 27.5q90 0 144 -56.5zM143.5 615q-34.5 -39 -34.5 -105q0 -62 33.5 -103t92.5 -41q57 0 91 39t34 105t-34 105
t-91 39t-91.5 -39z" />
    </font>
</defs>
</svg>
