<?xml version="1.0" encoding="utf-8"?>
<!-- Generator: Adobe Illustrator 16.0.0, SVG Export Plug-In . SVG Version: 6.00 Build 0)  -->
<!DOCTYPE svg PUBLIC "-//W3C//DTD SVG 1.1//EN" "http://www.w3.org/Graphics/SVG/1.1/DTD/svg11.dtd">
<svg version="1.1" id="Layer_1" xmlns="http://www.w3.org/2000/svg" xmlns:xlink="http://www.w3.org/1999/xlink" x="0px" y="0px"
	 width="67px" height="44px" viewBox="0 0 67 44" enable-background="new 0 0 67 44" xml:space="preserve">
<rect fill="#FFFFFF" stroke="#939598" stroke-miterlimit="10" width="67" height="44"/>
<g>
	<polyline fill="#273991" points="22.923,31.221 25.853,13.084 30.536,13.084 27.606,31.221 22.923,31.221 	"/>
	<path fill="#273991" d="M44.594,13.529c-0.927-0.364-2.383-0.761-4.197-0.761c-4.63,0-7.889,2.461-7.916,5.986
		c-0.029,2.606,2.326,4.061,4.102,4.927c1.825,0.889,2.438,1.457,2.431,2.251c-0.013,1.215-1.456,1.771-2.803,1.771
		c-1.875,0-2.872-0.274-4.412-0.951l-0.603-0.289l-0.655,4.061c1.092,0.505,3.117,0.943,5.218,0.967
		c4.921,0,8.118-2.432,8.155-6.195c0.017-2.067-1.231-3.635-3.934-4.928c-1.637-0.841-2.642-1.398-2.63-2.25
		c0.002-0.754,0.849-1.561,2.684-1.561c1.531-0.025,2.641,0.328,3.505,0.697l0.42,0.208L44.594,13.529"/>
	<path fill="#273991" d="M50.829,24.79c0.389-1.042,1.865-5.069,1.865-5.069c-0.026,0.048,0.387-1.051,0.623-1.731l0.315,1.565
		c0,0,0.899,4.329,1.084,5.235C53.988,24.79,51.744,24.79,50.829,24.79L50.829,24.79z M56.606,13.102h-3.619
		c-1.122,0-1.963,0.321-2.454,1.503l-6.955,16.622h4.919c0,0,0.803-2.236,0.984-2.727c0.537,0,5.316,0.009,5.999,0.009
		c0.14,0.633,0.569,2.718,0.569,2.718h4.347L56.606,13.102"/>
	<path fill="#273991" d="M18.994,13.099L14.41,25.464l-0.491-2.513c-0.854-2.896-3.513-6.035-6.487-7.608l4.193,15.862l4.956-0.003
		l7.375-18.103H18.994"/>
	<path fill="#F9A01B" d="M10.155,13.087H2.603l-0.062,0.375c5.876,1.502,9.765,5.129,11.378,9.488l-1.641-8.333
		C11.995,13.468,11.172,13.127,10.155,13.087L10.155,13.087z"/>
	<path fill="#273991" d="M61.729,30.035h0.222c0.157,0,0.189-0.091,0.189-0.165c0-0.126-0.083-0.156-0.21-0.156h-0.201V30.035
		L61.729,30.035z M61.538,29.573h0.457c0.106,0,0.341,0.028,0.341,0.297c0,0.071-0.021,0.172-0.174,0.237v0.006
		c0.132,0.022,0.139,0.147,0.146,0.248c0.01,0.159,0,0.188,0.041,0.245h-0.198c-0.037-0.038-0.029-0.068-0.037-0.236
		c0-0.095-0.013-0.192-0.228-0.192h-0.157v0.429h-0.191V29.573L61.538,29.573z M61.916,30.976c0.47,0,0.839-0.391,0.839-0.878
		s-0.369-0.877-0.839-0.877s-0.839,0.39-0.839,0.877S61.446,30.976,61.916,30.976L61.916,30.976z M61.916,29.063
		c0.579,0,1.034,0.464,1.034,1.034c0,0.571-0.455,1.034-1.034,1.034s-1.034-0.463-1.034-1.034
		C60.882,29.527,61.337,29.063,61.916,29.063L61.916,29.063z"/>
</g>
</svg>
