<?xml version="1.0" encoding="utf-8"?>
<!-- Generator: Adobe Illustrator 15.0.0, SVG Export Plug-In . SVG Version: 6.00 Build 0)  -->
<!DOCTYPE svg PUBLIC "-//W3C//DTD SVG 1.1//EN" "http://www.w3.org/Graphics/SVG/1.1/DTD/svg11.dtd">
<svg version="1.1" id="Layer_1" xmlns="http://www.w3.org/2000/svg" xmlns:xlink="http://www.w3.org/1999/xlink" x="0px" y="0px"
	 width="166px" height="76px" viewBox="0 0 166 76" enable-background="new 0 0 166 76" xml:space="preserve">
<g>
	<g>
		<path fill="#0098D3" d="M15.073,68.862c0,1.981-0.517,3.445-1.55,4.393c-1.206,1.092-3.246,1.636-6.115,1.636
			c-2.729,0-4.724-0.646-5.987-1.938C0.474,72.006,0,70.83,0,69.422v-6.393h5.986v6.474c0,0.317,0.126,0.57,0.379,0.757
			c0.252,0.188,0.557,0.281,0.914,0.281c0.416,0,0.728-0.086,0.937-0.259c0.208-0.173,0.312-0.433,0.312-0.779v-3.59
			c0-0.836-0.188-1.499-0.563-1.989c-1.011-1.038-2.093-2.176-3.247-3.417c-1.904-2.01-2.973-3.158-3.203-3.446
			C0.504,55.771,0,54.564,0,53.445v-3.402c0-1.923,0.545-3.345,1.636-4.264c1.264-1.062,3.274-1.593,6.03-1.593
			c2.382,0,4.162,0.531,5.339,1.593c1.005,0.919,1.508,2.168,1.508,3.747v5.072H8.527v-5.454c0-0.289-0.097-0.513-0.292-0.672
			c-0.194-0.159-0.441-0.239-0.741-0.239c-0.359,0-0.628,0.073-0.807,0.217c-0.18,0.145-0.27,0.376-0.27,0.694v2.817
			c0,0.983,0.433,1.937,1.299,2.861c1.21,1.235,2.351,2.398,3.418,3.488c1.386,1.436,2.28,2.441,2.684,3.014
			c0.836,1.178,1.255,2.413,1.255,3.704V68.862z"/>
	</g>
	<g>
		<path fill="#0098D3" d="M31.182,74.547h-5.297V73.6c-0.288,0.546-0.725,0.898-1.313,1.055c-0.589,0.158-1.429,0.237-2.52,0.237
			c-1.781,0-3.044-0.316-3.79-0.947c-0.748-0.631-1.12-1.593-1.12-2.885v-4.91c0-1.952,1.341-3.575,4.026-4.867
			c2.685-1.292,4.027-2.196,4.027-2.713v-3.618c0-0.402-0.085-0.703-0.253-0.905c-0.169-0.2-0.422-0.301-0.759-0.301
			c-0.282,0-0.521,0.101-0.718,0.301c-0.197,0.202-0.294,0.503-0.294,0.905v4.131h-5.814v-4.174c0-1.809,0.732-3.129,2.197-3.962
			c1.176-0.661,2.827-0.991,4.953-0.991c2.124,0,3.717,0.359,4.78,1.077c1.263,0.833,1.895,2.196,1.895,4.091V74.547z
			 M25.195,69.981v-6.287c-0.804,0.201-1.35,0.445-1.637,0.732c-0.288,0.287-0.43,0.66-0.43,1.119v4.435
			c0,0.374,0.093,0.654,0.28,0.84c0.187,0.187,0.452,0.28,0.797,0.28c0.287,0,0.523-0.093,0.71-0.28
			C25.103,70.635,25.195,70.355,25.195,69.981z"/>
	</g>
	<path fill="#0098D3" d="M39.788,74.547h-5.987V44.4h5.987V74.547z"/>
	<path fill="#0098D3" d="M48.415,74.547h-5.986V44.4h5.986V74.547z"/>
	<path fill="#0098D3" d="M57.017,48.798h-5.986v-4.35h5.986V48.798z M57.017,74.552h-5.986V50.013h5.986V74.552z"/>
	<path fill="#0098D3" d="M73.53,69.939c0,1.809-0.718,3.13-2.153,3.963c-1.149,0.659-2.786,0.99-4.91,0.99
		c-2.125,0-3.762-0.359-4.909-1.076c-1.378-0.862-2.067-2.226-2.067-4.092v-14.6c0-1.836,0.674-3.187,2.024-4.048
		c1.176-0.746,2.827-1.12,4.953-1.12c2.095,0,3.732,0.33,4.91,0.991c1.435,0.804,2.153,2.125,2.153,3.962v9.302h-8.053v5.65
		c0,0.399,0.085,0.705,0.258,0.919c0.172,0.214,0.431,0.321,0.775,0.321s0.603-0.106,0.775-0.32
		c0.172-0.214,0.259-0.521,0.259-0.921v-4.294h5.986V69.939z M67.544,60.508v-5.563c0-0.4-0.086-0.699-0.259-0.899
		c-0.172-0.199-0.43-0.299-0.775-0.299c-0.288,0-0.532,0.1-0.733,0.299c-0.201,0.2-0.3,0.5-0.3,0.899v5.563H67.544z"/>
	<path fill="#0098D3" d="M99.14,74.547h-5.943V57.622l-3.433,16.925h-4.548l-3.949-16.925v16.925h-5.21V44.4h8.569l2.994,15.634
		l2.69-15.634h8.829V74.547z"/>
	<path fill="#0098D3" d="M131.792,69.939c0,1.809-0.69,3.13-2.126,3.963c-1.149,0.659-2.757,0.99-4.882,0.99
		c-2.124,0-3.762-0.359-4.909-1.076c-1.379-0.862-2.067-2.226-2.067-4.092l-0.055-14.6c0-1.836,0.675-3.187,2.023-4.048
		c1.177-0.746,2.828-1.12,4.952-1.12c2.097,0,3.733,0.33,4.91,0.991c1.436,0.804,2.153,2.125,2.153,3.962v9.302h-8.053l0.055,5.65
		c0,0.399,0.087,0.705,0.259,0.919c0.172,0.214,0.431,0.321,0.774,0.321c0.345,0,0.604-0.106,0.775-0.32
		c0.173-0.214,0.259-0.521,0.259-0.921l-0.055-4.294h5.985V69.939z M125.807,60.508v-5.563c0-0.4-0.087-0.699-0.259-0.899
		c-0.173-0.199-0.431-0.299-0.775-0.299c-0.288,0-0.532,0.1-0.732,0.299c-0.2,0.2-0.301,0.5-0.301,0.899v5.563H125.807z"/>
	<g>
		<path fill="#0098D3" d="M143.417,42.69c-7.959-15.71-21.914-28.389-38.512-35.02C88.339,0.968,69.307,0.405,52.396,6.038
			c-16.96,5.546-31.581,17.314-40.481,32.337c9.041-14.945,23.734-26.535,40.629-31.9c16.862-5.45,35.709-4.709,51.994,2.046
			c16.327,6.689,29.935,19.302,37.599,34.777c4.882,9.708,7.339,20.498,7.327,31.271h1.725
			C151.101,63.543,148.486,52.545,143.417,42.69z"/>
		<path fill="#0098D3" d="M138.918,44.472c-7.547-14.894-20.786-26.915-36.521-33.198C86.686,4.92,68.646,4.395,52.612,9.739
			C36.541,15,22.685,26.162,14.253,40.401c8.566-14.166,22.5-25.144,38.511-30.222c15.978-5.164,33.834-4.462,49.265,1.951
			c15.465,6.337,28.356,18.293,35.612,32.956c4.602,9.153,6.924,19.325,6.929,29.484h1.724
			C146.188,64.156,143.706,53.776,138.918,44.472z"/>
		<path fill="#0098D3" d="M134.261,46.11c-7.123-14.043-19.604-25.37-34.442-31.289c-14.813-5.987-31.82-6.477-46.929-1.434
			C37.741,18.351,24.686,28.87,16.746,42.291c8.077-13.344,21.208-23.686,36.295-28.468c15.055-4.857,31.874-4.19,46.408,1.85
			c14.566,5.976,26.702,17.239,33.529,31.051c4.345,8.646,6.518,18.253,6.508,27.847h1.735
			C141.13,64.724,138.79,54.908,134.261,46.11z"/>
	</g>
	<g>
		<path fill="#0098D3" d="M115.468,74.547h-5.297V73.6c-0.288,0.546-0.726,0.898-1.313,1.055c-0.589,0.158-1.429,0.237-2.52,0.237
			c-1.78,0-3.044-0.316-3.79-0.947c-0.747-0.631-1.12-1.593-1.12-2.885v-4.91c0-1.952,1.343-3.575,4.027-4.867
			c2.685-1.292,4.026-2.196,4.026-2.713v-3.618c0-0.402-0.084-0.703-0.252-0.905c-0.169-0.2-0.422-0.301-0.759-0.301
			c-0.281,0-0.522,0.101-0.717,0.301c-0.198,0.202-0.297,0.503-0.297,0.905v4.131h-5.813v-4.174c0-1.809,0.732-3.129,2.196-3.962
			c1.177-0.661,2.827-0.991,4.954-0.991c2.123,0,3.717,0.359,4.779,1.077c1.263,0.833,1.895,2.196,1.895,4.091V74.547z
			 M109.481,69.981v-6.287c-0.805,0.201-1.351,0.445-1.637,0.732c-0.286,0.287-0.43,0.66-0.43,1.119v4.435
			c0,0.374,0.092,0.654,0.279,0.84c0.188,0.187,0.452,0.28,0.797,0.28c0.287,0,0.523-0.093,0.711-0.28
			C109.389,70.635,109.481,70.355,109.481,69.981z"/>
	</g>
	<g>
		<path fill="#0098D3" d="M160,72.046c0,1.574-1.266,2.823-2.873,2.823c-1.608,0-2.892-1.249-2.892-2.823
			c0-1.573,1.283-2.806,2.908-2.806C158.734,69.24,160,70.473,160,72.046z M154.953,72.046c0,1.25,0.941,2.242,2.19,2.242
			c1.215,0.016,2.138-0.993,2.138-2.225c0-1.249-0.923-2.258-2.172-2.258C155.895,69.805,154.953,70.814,154.953,72.046z
			 M156.682,73.5h-0.65v-2.805c0.256-0.035,0.615-0.086,1.078-0.086c0.53,0,0.769,0.086,0.957,0.223
			c0.172,0.12,0.292,0.325,0.292,0.599c0,0.342-0.257,0.564-0.582,0.667v0.034c0.273,0.085,0.41,0.308,0.495,0.685
			c0.087,0.428,0.154,0.582,0.205,0.684h-0.684c-0.085-0.103-0.136-0.342-0.223-0.684c-0.05-0.291-0.222-0.428-0.581-0.428h-0.308
			V73.5z M156.698,71.927h0.309c0.358,0,0.65-0.12,0.65-0.412c0-0.257-0.188-0.427-0.6-0.427c-0.171,0-0.29,0.017-0.359,0.034
			V71.927z"/>
	</g>
</g>
</svg>
