<?xml version="1.0" encoding="utf-8"?>
<!-- Generator: Adobe Illustrator 15.0.0, SVG Export Plug-In . SVG Version: 6.00 Build 0)  -->
<!DOCTYPE svg PUBLIC "-//W3C//DTD SVG 1.1//EN" "http://www.w3.org/Graphics/SVG/1.1/DTD/svg11.dtd">
<svg version="1.1" id="Layer_1" xmlns="http://www.w3.org/2000/svg" xmlns:xlink="http://www.w3.org/1999/xlink" x="0px" y="0px"
	 width="80px" height="40px" viewBox="5 0.5 80 40" enable-background="new 5 0.5 80 40" xml:space="preserve">
<g>
	<g>
		<path fill="#0098D3" d="M14.109,35.084c0,0.956-0.25,1.665-0.75,2.124c-0.583,0.527-1.569,0.79-2.955,0.79
			c-1.319,0-2.283-0.312-2.894-0.936c-0.458-0.459-0.687-1.025-0.687-1.707v-3.09h2.893v3.129c0,0.154,0.062,0.276,0.184,0.366
			c0.122,0.093,0.269,0.136,0.441,0.136c0.201,0,0.352-0.041,0.452-0.125c0.101-0.084,0.151-0.209,0.151-0.377v-1.735
			c0-0.404-0.091-0.724-0.272-0.961c-0.488-0.502-1.012-1.053-1.569-1.65c-0.92-0.973-1.436-1.527-1.548-1.667
			c-0.489-0.623-0.732-1.206-0.732-1.748v-1.644c0-0.931,0.264-1.617,0.791-2.061c0.61-0.514,1.582-0.77,2.914-0.77
			c1.151,0,2.012,0.256,2.58,0.77c0.486,0.443,0.729,1.047,0.729,1.81v2.451h-2.894v-2.635c0-0.139-0.047-0.248-0.142-0.324
			c-0.094-0.078-0.213-0.115-0.358-0.115c-0.174,0-0.304,0.035-0.39,0.104c-0.087,0.069-0.13,0.181-0.13,0.335v1.361
			c0,0.474,0.209,0.937,0.627,1.384c0.584,0.596,1.137,1.158,1.652,1.686c0.671,0.693,1.102,1.18,1.298,1.456
			c0.403,0.571,0.606,1.167,0.606,1.792L14.109,35.084L14.109,35.084z"/>
	</g>
	<g>
		<path fill="#0098D3" d="M21.896,37.833h-2.56v-0.458c-0.139,0.264-0.351,0.434-0.634,0.509C18.416,37.96,18.011,38,17.483,38
			c-0.861,0-1.471-0.153-1.833-0.459c-0.361-0.304-0.541-0.771-0.541-1.394v-2.373c0-0.944,0.649-1.729,1.945-2.353
			c1.299-0.625,1.947-1.061,1.947-1.313V28.36c0-0.194-0.041-0.339-0.122-0.438c-0.082-0.096-0.204-0.146-0.368-0.146
			c-0.136,0-0.252,0.05-0.346,0.146c-0.095,0.099-0.143,0.243-0.143,0.438v1.998h-2.811v-2.02c0-0.874,0.354-1.513,1.063-1.915
			c0.568-0.317,1.366-0.478,2.393-0.478c1.027,0,1.797,0.172,2.312,0.521c0.61,0.402,0.915,1.06,0.915,1.978V37.833z M19.001,35.627
			v-3.039c-0.389,0.097-0.653,0.214-0.792,0.353c-0.138,0.14-0.207,0.319-0.207,0.54v2.145c0,0.18,0.045,0.315,0.135,0.405
			c0.091,0.091,0.219,0.135,0.385,0.135c0.139,0,0.253-0.045,0.343-0.135C18.958,35.942,19.001,35.808,19.001,35.627z"/>
	</g>
	<path fill="#0098D3" d="M26.056,37.833h-2.895V23.262h2.895V37.833z"/>
	<path fill="#0098D3" d="M30.225,37.833h-2.893V23.262h2.893V37.833z"/>
	<path fill="#0098D3" d="M34.383,25.388H31.49v-2.104h2.893V25.388z M34.383,37.834H31.49V25.976h2.893V37.834z"/>
	<path fill="#0098D3" d="M42.364,35.605c0,0.875-0.347,1.513-1.041,1.915C40.769,37.838,39.976,38,38.951,38
		c-1.027,0-1.819-0.175-2.374-0.521c-0.666-0.417-0.999-1.074-0.999-1.977v-7.058c0-0.888,0.326-1.541,0.979-1.956
		c0.568-0.359,1.367-0.541,2.394-0.541c1.012,0,1.804,0.16,2.373,0.478c0.694,0.391,1.041,1.028,1.041,1.915v4.497h-3.892v2.731
		c0,0.191,0.041,0.339,0.124,0.442s0.209,0.155,0.375,0.155c0.166,0,0.291-0.052,0.374-0.154c0.083-0.104,0.126-0.252,0.126-0.445
		v-2.075h2.893V35.605L42.364,35.605z M39.47,31.048v-2.689c0-0.192-0.042-0.339-0.125-0.435s-0.208-0.145-0.374-0.145
		c-0.141,0-0.257,0.049-0.354,0.145c-0.096,0.096-0.145,0.242-0.145,0.435v2.689H39.47z"/>
	<path fill="#0098D3" d="M54.739,37.833h-2.87v-8.181l-1.66,8.181h-2.198l-1.909-8.181v8.181h-2.517V23.262h4.14l1.448,7.556
		l1.298-7.556h4.269V37.833L54.739,37.833z"/>
	<path fill="#0098D3" d="M70.522,35.605c0,0.875-0.334,1.513-1.027,1.915C68.94,37.838,68.162,38,67.135,38
		c-1.026,0-1.817-0.175-2.372-0.521c-0.666-0.417-0.998-1.074-0.998-1.977l-0.027-7.058c0-0.888,0.326-1.541,0.979-1.956
		c0.567-0.359,1.364-0.541,2.393-0.541c1.015,0,1.804,0.16,2.373,0.478c0.694,0.391,1.04,1.028,1.04,1.915v4.497h-3.892l0.026,2.731
		c0,0.191,0.041,0.339,0.125,0.442s0.207,0.155,0.375,0.155c0.166,0,0.29-0.052,0.373-0.154c0.085-0.104,0.126-0.252,0.126-0.445
		l-0.027-2.075h2.894V35.605L70.522,35.605L70.522,35.605z M67.628,31.048v-2.689c0-0.192-0.04-0.339-0.124-0.435
		s-0.209-0.145-0.374-0.145c-0.141,0-0.257,0.049-0.354,0.145c-0.097,0.096-0.145,0.242-0.145,0.435v2.689H67.628z"/>
	<g>
		<path fill="#0098D3" d="M76.141,22.435C72.294,14.845,65.549,8.717,57.526,5.512c-8.007-3.239-17.204-3.51-25.378-0.789
			c-8.197,2.681-15.264,8.369-19.565,15.626c4.37-7.219,11.471-12.821,19.639-15.414c8.148-2.635,17.258-2.277,25.127,0.989
			c7.892,3.232,14.469,9.329,18.173,16.805c2.36,4.691,3.547,9.906,3.542,15.112h0.834C79.854,32.514,78.592,27.199,76.141,22.435z"
			/>
		<path fill="#0098D3" d="M73.966,23.298C70.319,16.102,63.92,10.292,56.314,7.254c-7.594-3.071-16.311-3.326-24.061-0.741
			C24.485,9.056,17.79,14.45,13.713,21.329c4.139-6.843,10.874-12.148,18.613-14.604c7.723-2.496,16.35-2.156,23.81,0.943
			c7.475,3.063,13.705,8.842,17.213,15.925c2.226,4.426,3.346,9.342,3.351,14.252h0.831C77.48,32.811,76.28,27.793,73.966,23.298z"
			/>
		<path fill="#0098D3" d="M71.717,24.089c-3.443-6.783-9.475-12.258-16.647-15.121c-7.16-2.893-15.378-3.13-22.681-0.692
			c-7.323,2.399-13.632,7.484-17.47,13.969c3.904-6.448,10.25-11.446,17.542-13.758C39.738,6.14,47.865,6.462,54.891,9.38
			c7.039,2.89,12.906,8.333,16.205,15.005c2.101,4.178,3.15,8.82,3.146,13.459h0.838C75.034,33.086,73.904,28.341,71.717,24.089z"/>
	</g>
	<g>
		<path fill="#0098D3" d="M62.632,37.833H60.07v-0.458c-0.137,0.264-0.35,0.434-0.636,0.509C59.153,37.96,58.746,38,58.22,38
			c-0.861,0-1.473-0.153-1.834-0.459c-0.36-0.304-0.541-0.771-0.541-1.394v-2.373c0-0.944,0.65-1.729,1.948-2.353
			c1.298-0.625,1.946-1.061,1.946-1.313V28.36c0-0.194-0.042-0.339-0.123-0.438c-0.082-0.096-0.204-0.146-0.366-0.146
			c-0.136,0-0.252,0.05-0.348,0.146c-0.095,0.099-0.143,0.243-0.143,0.438v1.998h-2.81v-2.02c0-0.874,0.354-1.513,1.062-1.915
			c0.568-0.317,1.365-0.478,2.394-0.478c1.025,0,1.796,0.172,2.311,0.521c0.611,0.402,0.916,1.06,0.916,1.978V37.833L62.632,37.833z
			 M59.739,35.627v-3.039c-0.391,0.097-0.653,0.214-0.792,0.353c-0.137,0.14-0.208,0.319-0.208,0.54v2.145
			c0,0.18,0.046,0.315,0.134,0.405c0.093,0.091,0.22,0.135,0.388,0.135c0.137,0,0.253-0.045,0.345-0.135
			C59.693,35.942,59.739,35.808,59.739,35.627z"/>
	</g>
	<g>
		<path fill="#0098D3" d="M84.156,36.625c0,0.761-0.613,1.362-1.39,1.362c-0.775,0-1.398-0.603-1.398-1.362s0.621-1.356,1.407-1.356
			C83.545,35.269,84.156,35.864,84.156,36.625z M81.717,36.625c0,0.604,0.454,1.083,1.059,1.083
			c0.586,0.009,1.034-0.479,1.034-1.076c0-0.602-0.448-1.092-1.052-1.092C82.171,35.54,81.717,36.03,81.717,36.625z M82.551,37.327
			h-0.313v-1.355c0.124-0.018,0.296-0.042,0.521-0.042c0.256,0,0.371,0.042,0.463,0.109c0.084,0.057,0.143,0.156,0.143,0.288
			c0,0.166-0.126,0.272-0.281,0.321v0.019c0.131,0.041,0.198,0.147,0.239,0.33c0.042,0.206,0.075,0.28,0.097,0.33H83.09
			c-0.041-0.05-0.066-0.165-0.107-0.33c-0.024-0.142-0.108-0.206-0.281-0.206h-0.15V37.327L82.551,37.327z M82.561,36.565h0.149
			c0.171,0,0.313-0.058,0.313-0.197c0-0.126-0.09-0.208-0.29-0.208c-0.083,0-0.139,0.01-0.172,0.018L82.561,36.565L82.561,36.565z"
			/>
	</g>
</g>
</svg>
